<svg width="24" height="17" viewBox="0 0 24 17" fill="none" xmlns="http://www.w3.org/2000/svg">
<path fill-rule="evenodd" clip-rule="evenodd" d="M0.666992 0H23.3337V17H0.666992V0Z" fill="#00ABC2"/>
<path fill-rule="evenodd" clip-rule="evenodd" d="M2.79906 16.5398C2.91594 16.6531 2.87698 16.8408 3.19927 16.816C3.68802 16.816 3.70219 16.5185 3.70219 16.3095C3.70219 16.1006 2.96906 15.8102 2.93365 15.502C2.89823 15.1939 3.10365 15.1125 3.27365 15.1125C3.4401 15.1125 3.55698 15.2081 3.55698 15.2931C3.55698 15.3781 3.47906 15.4064 3.35865 15.4064C3.23823 15.4064 3.41177 15.3462 3.30906 15.3002C3.20635 15.2541 3.13906 15.371 3.13906 15.4418C3.13906 15.5198 3.39406 15.541 3.56406 15.4879C3.59948 15.6543 3.61365 15.665 3.37635 15.9483C3.54635 15.8385 3.56052 15.8137 3.74823 15.8775C3.56052 15.7145 3.70219 15.3887 3.70573 15.3073C3.70927 15.2258 3.67031 15.1266 3.59948 15.077C3.46135 14.9531 3.1674 14.946 2.99031 15.0275C2.73177 15.1408 2.7176 15.4808 2.7849 15.5941L3.50031 16.3166C3.5499 16.4016 3.57115 16.6425 3.26656 16.6531C2.94781 16.6779 2.83448 16.2423 2.77781 16.097C2.70344 16.2564 2.61844 16.692 2.29615 16.6673C1.99156 16.6566 1.9349 16.4193 1.98448 16.3308L2.7176 15.587C2.78844 15.4737 2.77427 15.1337 2.51573 15.0204C2.33865 14.9389 2.04469 14.9495 1.9101 15.07C1.83219 15.1195 1.78969 15.2152 1.79677 15.3002C1.80385 15.3852 1.94198 15.7075 1.75781 15.8668C1.94198 15.8066 1.95969 15.8314 2.12969 15.9377C1.8924 15.6579 1.9101 15.6473 1.94198 15.4773C2.11198 15.5339 2.36698 15.5127 2.36698 15.4383C2.36698 15.3639 2.29615 15.24 2.19344 15.2895C2.09427 15.3391 2.26427 15.3993 2.14385 15.3993C2.02698 15.3993 1.94198 15.3745 1.94198 15.2931C1.94198 15.2116 2.05885 15.1054 2.22885 15.1054C2.39885 15.1054 2.60073 15.1904 2.56531 15.4985C2.5299 15.8066 1.78615 16.1395 1.78615 16.3485C1.78615 16.561 1.83573 16.8125 2.32448 16.8125C2.64323 16.8373 2.68219 16.6495 2.79906 16.5362V16.5398Z" fill="#FFEC2D"/>
<path fill-rule="evenodd" clip-rule="evenodd" d="M2.76033 12.1584C2.8772 12.0451 2.97283 11.7121 3.29158 11.7334C3.78033 11.7334 3.96449 12.0061 3.96449 12.2151C3.96449 12.424 2.97283 14.1276 2.93741 14.4357C2.90199 14.7438 3.10741 14.8288 3.27387 14.8288C3.44387 14.8288 3.56074 14.7332 3.56074 14.6446C3.56074 14.5561 3.47574 14.5384 3.35887 14.5384C3.24199 14.5384 3.40845 14.5986 3.30928 14.6446C3.21012 14.6907 3.13928 14.5738 3.13928 14.4994C3.13928 14.4251 3.39428 14.4003 3.56428 14.4569C3.59616 14.2905 3.61033 14.2799 3.37658 13.9965C3.54658 14.1028 3.56074 14.1311 3.74845 14.0674C3.56074 14.2303 3.69887 14.5526 3.70595 14.634C3.71303 14.7155 3.67053 14.8182 3.59616 14.8678C3.46158 14.9917 3.16408 14.9953 2.98699 14.9174C2.73199 14.8005 2.71783 14.464 2.78512 14.3507L3.74845 12.2753C3.80158 12.1903 3.66699 11.9069 3.36241 11.8963C3.04366 11.8715 2.93387 12.208 2.8772 12.3532L3.31283 12.3178C3.31283 12.3178 3.33053 12.3886 3.31283 12.4311C3.16667 12.4418 3.02123 12.4607 2.8772 12.4878L2.85949 12.7074H3.07199L3.05783 12.8065C3.05783 12.8065 2.8772 12.7924 2.85949 12.8065C2.84178 12.8171 2.82408 13.0261 2.82408 13.0261C2.82408 13.0261 2.78866 13.0403 2.75324 13.0403C2.71783 13.0403 2.68241 13.0261 2.68241 13.0261C2.68241 13.0261 2.66824 12.8171 2.65053 12.8065C2.63283 12.7924 2.4522 12.8065 2.4522 12.8065L2.43449 12.7074H2.65053L2.63283 12.4878C2.63283 12.4878 2.42033 12.4453 2.1972 12.4311C2.18303 12.3886 2.1972 12.3213 2.1972 12.3213L2.63283 12.3532C2.57616 12.208 2.46637 11.8715 2.14762 11.8928C1.84303 11.9069 1.70845 12.1903 1.75803 12.2753L2.72137 14.3507C2.78866 14.4605 2.77449 14.8005 2.51949 14.9174C2.34241 14.9953 2.04491 14.9882 1.91033 14.8678C1.83595 14.8182 1.79345 14.719 1.80053 14.6376C1.80762 14.5561 1.9422 14.2267 1.75803 14.0709C1.94574 14.1311 1.96345 14.1063 2.12991 13.9965C1.89616 14.2799 1.91033 14.2905 1.94574 14.4569C2.1122 14.4003 2.3672 14.4215 2.3672 14.4994C2.3672 14.5703 2.29637 14.6942 2.1972 14.6446C2.09803 14.5951 2.26803 14.5384 2.14762 14.5384C2.03074 14.5384 1.94574 14.5596 1.94574 14.6446C1.94574 14.7296 2.06262 14.8288 2.22908 14.8288C2.39553 14.8288 2.60095 14.7438 2.56908 14.4392C2.53366 14.1311 1.54199 12.4205 1.54199 12.2151C1.54199 12.0026 1.72616 11.7369 2.21491 11.7369C2.53366 11.7121 2.65053 12.0451 2.76387 12.1584H2.76033Z" fill="#FFEC2D"/>
<path fill-rule="evenodd" clip-rule="evenodd" d="M2.76033 11.312C2.8772 11.4254 2.97283 11.7583 3.29158 11.737C3.78033 11.737 3.96449 11.4643 3.96449 11.2554C3.96449 11.0464 2.97283 9.34286 2.93741 9.03473C2.90199 8.72661 3.10741 8.64161 3.27387 8.64161C3.44387 8.64161 3.56074 8.73723 3.56074 8.82577C3.56074 8.91431 3.47574 8.93202 3.35887 8.93202C3.24199 8.93202 3.40845 8.87536 3.30928 8.82577C3.21012 8.77619 3.13928 8.89661 3.13928 8.97098C3.13928 9.04536 3.39428 9.07015 3.56428 9.01348C3.59616 9.17994 3.61033 9.19056 3.37658 9.4739C3.54658 9.36765 3.56074 9.33931 3.74845 9.40306C3.56074 9.24015 3.69887 8.91786 3.70595 8.8364C3.71303 8.75494 3.67053 8.65223 3.59616 8.60265C3.46158 8.48223 3.16408 8.47515 2.98699 8.55306C2.73199 8.66994 2.71783 9.0064 2.78512 9.11973L3.74845 11.1916C3.80158 11.2766 3.66699 11.5599 3.36241 11.5706C3.04366 11.5954 2.93387 11.2589 2.8772 11.1137L3.31283 11.1491C3.31283 11.1491 3.33053 11.0783 3.31283 11.0358C3.16667 11.0251 3.02123 11.0062 2.8772 10.9791L2.85949 10.7595H3.07199L3.05783 10.6604C3.05783 10.6604 2.8772 10.6745 2.85949 10.6604C2.84178 10.6497 2.82408 10.4408 2.82408 10.4408C2.82408 10.4408 2.78866 10.4266 2.75324 10.4266C2.71783 10.4266 2.68241 10.4408 2.68241 10.4408C2.68241 10.4408 2.66824 10.6497 2.65053 10.6604C2.63283 10.6745 2.4522 10.6604 2.4522 10.6604L2.43449 10.7595H2.65053L2.63283 10.9791C2.63283 10.9791 2.42033 11.0216 2.1972 11.0358C2.18303 11.0783 2.1972 11.1456 2.1972 11.1456L2.63283 11.1137C2.57616 11.2589 2.46637 11.5954 2.14762 11.5741C1.84303 11.5599 1.70845 11.2766 1.75803 11.1916L2.72137 9.11973C2.78866 9.0064 2.77449 8.66994 2.51949 8.55306C2.34241 8.47515 2.04491 8.48223 1.91033 8.60265C1.83595 8.65223 1.79345 8.7514 1.80053 8.83286C1.80762 8.91431 1.9422 9.24015 1.75803 9.39952C1.94574 9.33931 1.96345 9.36411 2.12991 9.4739C1.89616 9.19056 1.91033 9.17994 1.94574 9.01348C2.1122 9.07015 2.3672 9.0489 2.3672 8.97098C2.3672 8.90015 2.29637 8.77619 2.1972 8.82577C2.09803 8.87536 2.26803 8.93202 2.14762 8.93202C2.03074 8.93202 1.94574 8.91077 1.94574 8.82577C1.94574 8.74077 2.06262 8.64161 2.22908 8.64161C2.39553 8.64161 2.60095 8.72661 2.56908 9.03119C2.53366 9.33931 1.54199 11.0499 1.54199 11.2554C1.54199 11.4679 1.72616 11.7335 2.21491 11.7335C2.53366 11.7583 2.65053 11.4254 2.76387 11.312H2.76033Z" fill="#FFEC2D"/>
<path fill-rule="evenodd" clip-rule="evenodd" d="M2.76033 5.68769C2.8772 5.57436 2.97283 5.24144 3.29158 5.26269C3.78033 5.26269 3.96449 5.5354 3.96449 5.74436C3.96449 5.95332 2.97283 7.65686 2.93741 7.96852C2.90199 8.27311 3.10741 8.35811 3.27387 8.35811C3.44387 8.35811 3.56074 8.26248 3.56074 8.17748C3.56074 8.09248 3.47574 8.06415 3.35887 8.06415C3.24199 8.06415 3.40845 8.1279 3.30928 8.17748C3.21012 8.22707 3.13928 8.10311 3.13928 8.02873C3.13928 7.9579 3.39428 7.92957 3.56428 7.98623C3.59616 7.81977 3.61033 7.80915 3.37658 7.52582C3.54658 7.63561 3.56074 7.6604 3.74845 7.59665C3.56074 7.75957 3.69887 8.0854 3.70595 8.16332C3.71303 8.24123 3.67053 8.34748 3.59616 8.39707C3.46158 8.52102 3.16408 8.52457 2.98699 8.44665C2.73199 8.32977 2.71783 7.99332 2.78512 7.87998L3.74845 5.80811C3.80158 5.72311 3.66699 5.43977 3.36241 5.42915C3.04366 5.40436 2.93387 5.74082 2.8772 5.88602L3.31283 5.85061C3.31283 5.85061 3.33053 5.92144 3.31283 5.96394C3.08616 5.97811 2.8772 6.02061 2.8772 6.02061L2.85949 6.24019H3.07199L3.05783 6.33936C3.05783 6.33936 2.8772 6.32873 2.85949 6.33936C2.84178 6.34998 2.82408 6.56248 2.82408 6.56248C2.82408 6.56248 2.78866 6.57311 2.75324 6.57311C2.71783 6.57311 2.68241 6.56248 2.68241 6.56248C2.68241 6.56248 2.66824 6.34998 2.65053 6.33936C2.63283 6.32873 2.4522 6.33936 2.4522 6.33936L2.43449 6.24019H2.65053L2.63283 6.02061C2.63283 6.02061 2.42033 5.97811 2.1972 5.96394C2.18303 5.92144 2.1972 5.85415 2.1972 5.85415L2.63283 5.88602C2.57616 5.74082 2.46637 5.40436 2.14762 5.42561C1.84303 5.43977 1.70845 5.72311 1.75803 5.80811L2.72137 7.87998C2.78866 7.99332 2.77449 8.32977 2.51949 8.44665C2.34241 8.52457 2.04491 8.51748 1.91033 8.39707C1.83595 8.34748 1.79345 8.24832 1.80053 8.16686C1.80762 8.0854 1.9422 7.75957 1.75803 7.60019C1.94574 7.6604 1.96345 7.63561 2.12991 7.52582C1.89616 7.80915 1.91033 7.81977 1.94574 7.98623C2.1122 7.92957 2.3672 7.95436 2.3672 8.02873C2.3672 8.09957 2.29637 8.22352 2.1972 8.17394C2.09803 8.1279 2.26803 8.06769 2.14762 8.06769C2.03074 8.06769 1.94574 8.08894 1.94574 8.17394C1.94574 8.25894 2.06262 8.35811 2.22908 8.35811C2.39553 8.35811 2.60095 8.27311 2.56908 7.96852C2.53366 7.6604 1.54199 5.95332 1.54199 5.74436C1.54199 5.5354 1.72616 5.26623 2.21491 5.26623C2.53366 5.24144 2.65053 5.57436 2.76387 5.69123L2.76033 5.68769Z" fill="#FFEC2D"/>
<path fill-rule="evenodd" clip-rule="evenodd" d="M2.76033 4.84132C2.8772 4.95465 2.97283 5.29111 3.29158 5.26632C3.78033 5.26632 3.96449 4.99361 3.96449 4.78465C3.96449 4.5757 2.97283 2.87215 2.93741 2.56403C2.90199 2.2559 3.10741 2.1709 3.27387 2.1709C3.44387 2.1709 3.56074 2.27007 3.56074 2.35507C3.56074 2.44007 3.47574 2.46486 3.35887 2.46486C3.24199 2.46486 3.40845 2.40465 3.30928 2.35507C3.21012 2.30549 3.13928 2.4259 3.13928 2.50028C3.13928 2.57465 3.39428 2.59945 3.56428 2.54278C3.59616 2.70924 3.61033 2.71986 3.37658 3.0032C3.54658 2.89695 3.56074 2.86861 3.74845 2.93236C3.56074 2.77299 3.69887 2.44715 3.70595 2.3657C3.71303 2.28424 3.67053 2.18153 3.59616 2.13195C3.46158 2.01153 3.16408 2.00445 2.98699 2.0859C2.73199 2.19924 2.71783 2.53924 2.78512 2.64903L3.74845 4.72444C3.80158 4.80944 3.66699 5.09278 3.36241 5.10695C3.04366 5.1282 2.93387 4.79528 2.8772 4.64653L3.31283 4.68195C3.31283 4.68195 3.33053 4.61111 3.31283 4.56861C3.16674 4.55899 3.02131 4.54126 2.8772 4.51549L2.85949 4.29236H3.07199L3.05783 4.1932C3.05783 4.1932 2.8772 4.20736 2.85949 4.1932C2.84178 4.18257 2.82408 3.97361 2.82408 3.97361C2.82408 3.97361 2.78866 3.95945 2.75324 3.95945C2.71783 3.95945 2.68241 3.97361 2.68241 3.97361C2.68241 3.97361 2.66824 4.18257 2.65053 4.1932C2.63283 4.20736 2.4522 4.1932 2.4522 4.1932L2.43449 4.29236H2.65053L2.63283 4.51549C2.63283 4.51549 2.42033 4.55445 2.1972 4.56861C2.18303 4.61465 2.1972 4.68195 2.1972 4.68195L2.63283 4.64653C2.57616 4.79528 2.46637 5.1282 2.14762 5.10695C1.84303 5.09278 1.70845 4.80944 1.75803 4.72444L2.72137 2.64903C2.78866 2.53924 2.77449 2.19924 2.51949 2.08236C2.34241 2.00444 2.04491 2.01153 1.91033 2.13195C1.83595 2.18153 1.79345 2.28069 1.80053 2.36215C1.80762 2.44361 1.9422 2.77299 1.75803 2.92882C1.94574 2.86861 1.96345 2.8934 2.12991 3.0032C1.89616 2.71986 1.91033 2.70924 1.94574 2.54278C2.11574 2.59945 2.3672 2.5782 2.3672 2.50028C2.3672 2.42944 2.29637 2.30549 2.1972 2.35507C2.09803 2.40465 2.26803 2.46486 2.14762 2.46486C2.03074 2.46486 1.94574 2.44007 1.94574 2.35507C1.94574 2.27007 2.06262 2.1709 2.22908 2.1709C2.39553 2.1709 2.60449 2.2559 2.56908 2.56049C2.53366 2.86861 1.54199 4.57924 1.54199 4.78465C1.54199 4.99715 1.72616 5.26632 2.21491 5.26632C2.53366 5.29111 2.65053 4.95465 2.76387 4.84132H2.76033Z" fill="#FFEC2D"/>
<path fill-rule="evenodd" clip-rule="evenodd" d="M2.79906 0.46012C2.91594 0.346787 2.87698 0.159079 3.19927 0.18387C3.68802 0.18387 3.70219 0.48137 3.70219 0.690329C3.70219 0.899287 2.96906 1.1897 2.93365 1.49783C2.89823 1.80595 3.10365 1.88741 3.27365 1.88741C3.4401 1.88741 3.55698 1.79179 3.55698 1.70679C3.55698 1.62179 3.47906 1.59345 3.35865 1.59345C3.23823 1.59345 3.41177 1.65366 3.30906 1.6997C3.20635 1.74575 3.13906 1.62887 3.13906 1.55804C3.13906 1.48012 3.39406 1.45533 3.56406 1.512C3.59948 1.34554 3.61365 1.33491 3.37635 1.05158C3.54635 1.16137 3.56052 1.18616 3.74823 1.12241C3.56052 1.28533 3.70219 1.61116 3.70573 1.69262C3.70927 1.77408 3.67031 1.87325 3.59948 1.92283C3.45781 2.05387 3.16385 2.05387 2.98677 1.97595C2.72823 1.86262 2.71406 1.52262 2.78135 1.40929L3.50031 0.683245C3.5499 0.598245 3.57115 0.357412 3.26656 0.346787C2.94781 0.321996 2.83448 0.757621 2.77781 0.902829C2.70344 0.743454 2.61844 0.304287 2.29615 0.329079C1.99156 0.339704 1.9349 0.576995 1.98448 0.665537L2.7176 1.40929C2.78844 1.52262 2.77427 1.86262 2.51573 1.97595C2.33865 2.05741 2.04469 2.05033 1.9101 1.92637C1.83219 1.87679 1.78969 1.78116 1.79677 1.69616C1.80385 1.61116 1.94198 1.28887 1.75781 1.1295C1.94198 1.1897 1.95969 1.16491 2.12615 1.05866C1.8924 1.33845 1.9101 1.34908 1.94198 1.51908C2.11198 1.46241 2.36698 1.48366 2.36698 1.55804C2.36698 1.63241 2.29615 1.75637 2.19344 1.70679C2.09427 1.6572 2.26427 1.597 2.14385 1.597C2.02698 1.597 1.94198 1.62179 1.94198 1.70325C1.94198 1.7847 2.05885 1.89095 2.22885 1.89095C2.39885 1.89095 2.60073 1.80595 2.56531 1.49783C2.5299 1.1897 1.78615 0.856787 1.78615 0.647829C1.78615 0.435329 1.83573 0.18387 2.32448 0.18387C2.64323 0.159079 2.68219 0.346787 2.79906 0.46012Z" fill="#FFEC2D"/>
<path d="M16.3037 7.29273C16.3037 5.60904 14.8635 4.24414 13.0869 4.24414C11.3103 4.24414 9.87012 5.60904 9.87012 7.29273C9.87012 8.97642 11.3103 10.3413 13.0869 10.3413C14.8635 10.3413 16.3037 8.97642 16.3037 7.29273Z" fill="#FFEC2D"/>
<path fill-rule="evenodd" clip-rule="evenodd" d="M12.936 2.42566C12.9058 2.42566 12.7622 3.4387 12.7092 3.6655C12.6563 4.1758 13.3897 4.1569 13.2687 3.6466L12.936 2.42188V2.42566ZM13.1931 12.2462C13.2196 12.2462 13.4388 11.2444 13.5106 11.0214C13.5976 10.5187 12.8642 10.4922 12.9436 11.0063L13.1931 12.2462ZM8.06738 7.27164C8.06738 7.2981 9.12201 7.50978 9.35637 7.57782C9.88557 7.66476 9.92337 6.97302 9.37905 7.04862L8.06738 7.27542V7.27164ZM18.3377 7.3926C18.3377 7.36614 17.2717 7.19226 17.0336 7.13178C16.5006 7.06752 16.4968 7.75926 17.0336 7.66476L18.3377 7.3926ZM9.14847 4.05862C9.12957 4.07752 9.82509 4.86377 9.96495 5.05655C10.3278 5.43455 10.8079 4.90535 10.3278 4.64831L9.14847 4.0624V4.05862ZM17.1281 10.5225C17.147 10.5036 16.3834 9.7778 16.2247 9.60013C15.8278 9.25237 15.4006 9.8156 15.8996 10.0348L17.1281 10.5262V10.5225ZM10.7399 2.96242C10.7172 2.97376 11.0423 3.949 11.0952 4.17958C11.2766 4.65965 11.9343 4.34591 11.5941 3.93388L10.7436 2.96242H10.7399ZM15.3931 11.7472C15.4195 11.7358 15.1663 10.7417 15.1322 10.5111C14.9848 10.0197 14.3082 10.2843 14.6144 10.7228L15.3968 11.7434L15.3931 11.7472ZM16.5384 3.64282C16.5157 3.62392 15.6766 4.27031 15.4724 4.39883C15.068 4.73903 15.6161 5.20019 15.8958 4.75037L16.5384 3.64282ZM9.62097 10.9647C9.63987 10.9836 10.5282 10.3977 10.7399 10.2805C11.167 9.97058 10.6567 9.47161 10.343 9.90254L9.62475 10.9647H9.62097ZM8.29796 5.51771C8.28662 5.54039 9.20517 6.07338 9.40551 6.21324C9.87801 6.45894 10.154 5.81633 9.61341 5.71427L8.29796 5.51771ZM17.8879 9.23725C17.8992 9.21457 17.0185 8.62111 16.8295 8.46991C16.3759 8.19019 16.0546 8.81389 16.5875 8.94997L17.8879 9.23725ZM14.8412 2.7016C14.8147 2.69404 14.2893 3.58612 14.1494 3.7789C14.1497 3.84046 14.1692 3.9004 14.2053 3.95031C14.2413 4.00021 14.2921 4.03758 14.3504 4.05717C14.4088 4.07677 14.4718 4.0776 14.5307 4.05956C14.5895 4.04151 14.6413 4.0055 14.6786 3.95656L14.8412 2.7016ZM11.2917 11.9362C11.3182 11.9475 11.9079 11.0895 12.0591 10.9042C12.335 10.4658 11.666 10.186 11.5412 10.6926L11.2917 11.9362ZM8.36222 9.31663C8.37356 9.33931 9.42063 9.08983 9.66633 9.05203C10.1804 8.90839 9.89313 8.27335 9.43953 8.56819L8.36222 9.31663ZM17.8917 5.43455C17.8841 5.41187 16.8219 5.58953 16.5762 5.61221C16.047 5.72183 16.2927 6.37578 16.7652 6.11117L17.8917 5.43455Z" fill="#FFEC2D"/>
<path fill-rule="evenodd" clip-rule="evenodd" d="M13.9794 2.49011C13.9529 2.48633 13.5976 3.45023 13.4918 3.66191C13.3368 4.15332 14.0588 4.27428 14.0474 3.75264L13.9832 2.48633L13.9794 2.49011ZM12.1461 12.1632C12.1725 12.1707 12.5997 11.2295 12.7206 11.0216C12.9096 10.5453 12.199 10.379 12.1725 10.8969L12.1423 12.1632H12.1461ZM11.7794 2.58461C11.753 2.59217 11.8512 3.61277 11.8512 3.84714C11.9231 4.34988 12.6299 4.176 12.3956 3.70727L11.7794 2.58461ZM14.3498 12.1065C14.3763 12.1027 14.3498 11.0783 14.3687 10.844C14.3347 10.3337 13.6127 10.4622 13.8169 10.946L14.3461 12.1065H14.3498ZM9.95745 3.43133C9.93477 3.44645 10.4375 4.34988 10.532 4.56534C10.8042 5.0076 11.3901 4.5918 10.9781 4.24026L9.95745 3.43133ZM16.1869 11.29C16.2096 11.2749 15.7711 10.3374 15.6955 10.1182C15.4574 9.66081 14.845 10.0388 15.2268 10.413L16.1869 11.29ZM8.62689 4.70142C8.61177 4.7241 9.42447 5.39694 9.59457 5.57083C10.0142 5.88835 10.4035 5.29866 9.88941 5.11344L8.62689 4.70142ZM17.4797 9.98211C17.4948 9.95943 16.735 9.23366 16.5763 9.05222C16.1831 8.70824 15.7522 9.27146 16.2512 9.49071L17.4797 9.98211ZM8.04476 6.28525C8.0372 6.31171 9.03891 6.69349 9.25815 6.80311C9.76467 6.97321 9.92721 6.29659 9.37533 6.28147L8.04476 6.28525ZM18.1525 8.4701C18.1639 8.44742 17.1924 8.00138 16.9807 7.87664C16.4893 7.67252 16.2739 8.3378 16.822 8.39072L18.1525 8.4701ZM8.01074 8.23196C8.01452 8.25464 9.09561 8.23952 9.34131 8.25842C9.87807 8.23196 9.74955 7.54778 9.23547 7.733L8.01074 8.23196ZM18.2244 6.53095C18.2244 6.50449 17.1433 6.44779 16.9014 6.41377C16.3608 6.40621 16.4402 7.09795 16.9656 6.94297L18.2244 6.52717V6.53095ZM8.93685 10.2505C8.95197 10.2732 9.91965 9.81201 10.1465 9.72507C10.6152 9.47937 10.1843 8.91614 9.81003 9.29792L8.93685 10.2505ZM17.3398 4.49352C17.3247 4.47084 16.3306 4.86774 16.0924 4.93956C15.6048 5.15502 15.9941 5.74471 16.3948 5.38938L17.3398 4.49352ZM10.5093 11.5886C10.532 11.6 11.2238 10.8137 11.3976 10.6474C11.7265 10.2429 11.0952 9.89139 10.91 10.3828L10.5093 11.5886ZM15.79 3.12893C15.7711 3.11381 15.0227 3.85092 14.8375 4.0059C14.4821 4.38768 15.0869 4.7808 15.3062 4.30452L15.7862 3.12893H15.79Z" fill="#FFEC2D"/>
<path fill-rule="evenodd" clip-rule="evenodd" d="M8.16883 9.31973C8.22658 9.51467 8.23483 10.6064 9.39801 11.6591C10.5529 12.704 12.5328 12.9379 12.5328 12.9379C12.5328 12.9379 12.5411 13.0861 12.4008 13.0939C12.2606 13.1095 11.5841 12.9769 11.2459 12.8755C10.9159 12.782 10.6189 12.6104 10.5859 12.6182C10.5447 12.6338 10.4787 12.743 10.3797 12.7274C10.2807 12.7118 9.80223 12.2439 9.58775 12.1191C9.15874 11.7686 8.77893 11.3677 8.45756 10.9261C8.22658 10.5752 8.16883 10.3412 8.09459 10.3412C8.02034 10.3412 7.7481 10.5128 7.7481 10.5128C7.7481 10.5128 7.50062 10.1619 7.28613 9.60045C7.06339 9.03901 7.08814 8.7115 7.13764 8.68811C7.19539 8.66471 7.19539 9.10139 7.36038 9.49908C7.52537 9.90457 7.75635 10.0293 7.75635 10.0293C7.75635 10.0293 7.60786 9.81879 7.49237 9.29634C7.37688 8.77388 7.32738 8.26703 7.40987 8.11107C7.49237 7.95511 7.56661 7.90833 7.57486 7.91612C7.59136 7.93172 7.43462 8.15786 7.54187 8.75829C7.64911 9.35872 7.93784 9.86558 8.00384 9.84218C8.06984 9.81879 7.96259 9.69402 7.92135 9.34312C7.8801 8.99222 7.96259 8.77388 8.05334 8.74269C8.09459 8.7115 8.16058 9.13258 8.16883 9.31973ZM7.36038 10.3179C7.13764 10.1229 6.79116 9.44449 6.71692 9.47569C6.63442 9.51467 7.27788 10.4894 7.29438 10.5674C7.31088 10.661 7.45112 10.9261 7.34388 10.8871C7.23664 10.8481 6.46943 10.0839 6.56017 10.2321C6.65092 10.3802 7.22838 11.0508 7.19539 11.0898C7.16239 11.1288 6.71691 10.7155 6.70042 10.7701C6.69217 10.8169 7.13764 11.2224 7.12939 11.2692C7.12114 11.316 6.84066 11.0119 6.84066 11.0742C6.84066 11.1366 7.12939 11.4407 7.12939 11.4875C7.12939 11.5343 6.88191 11.2692 6.9644 11.4095C7.03865 11.5655 7.25313 11.6981 7.24488 11.7448C7.23663 11.7916 7.0634 11.6825 7.0634 11.7059C7.0634 11.7293 7.38513 11.8384 7.45937 11.9242C7.54187 12.01 8.06984 12.587 8.46581 12.8755C8.86179 13.164 10.0002 13.6709 10.0827 13.6709C10.157 13.6709 10.2725 13.5149 10.2477 13.4526C10.223 13.3902 9.10927 13.0315 8.80404 12.7664C8.49056 12.5012 7.73161 11.8618 7.66561 11.8306C7.60786 11.7916 7.43462 11.8072 7.43462 11.7682C7.43462 11.7293 7.65736 11.7916 7.64086 11.7682C7.63261 11.7448 7.33563 11.6201 7.34388 11.5967C7.36038 11.5733 7.55012 11.6435 7.55012 11.6201C7.55012 11.5967 7.20364 11.4173 7.22014 11.3783C7.22839 11.3394 7.47587 11.4875 7.47587 11.4563C7.47587 11.4407 7.14589 11.2224 7.15414 11.1834C7.16239 11.1444 7.40987 11.355 7.40162 11.3082C7.39337 11.2614 7.20364 10.9963 7.20364 10.9651C7.20364 10.9261 7.50062 11.2302 7.53362 11.1678C7.55012 11.1132 7.42637 10.6064 7.43462 10.5986C7.44287 10.5908 7.65736 10.7077 7.69036 10.6376C7.7316 10.5596 7.54187 10.4582 7.36038 10.3179ZM11.1634 14.1544C11.0067 14.1778 10.9324 14.1232 11.0232 13.9984C11.1469 13.9984 11.4769 13.897 11.5924 13.8503C11.7079 13.8035 11.8316 13.7411 11.9306 13.6553C12.0296 13.5539 12.0956 13.7099 12.0379 13.7957C11.9966 13.8503 11.8069 13.9516 11.6666 14.0062C11.4604 14.0686 11.2789 14.1622 11.1634 14.1544ZM12.1946 13.7567C12.0874 13.6475 12.1781 13.5695 12.3348 13.4838C12.5658 13.3668 12.4998 13.203 12.7968 13.0705C12.9288 12.9925 14.7767 12.2907 15.3789 11.9164C15.9811 11.5421 17.6723 10.3334 18.126 9.49908C18.5715 8.67251 18.357 8.61013 18.423 8.57894C18.4807 8.53995 18.5467 8.69591 18.5385 8.88305C18.522 9.0624 18.3735 9.60825 18.423 9.66283C18.4725 9.71742 19.0994 9.23395 19.3634 8.64912C19.6274 8.06428 19.8254 7.45605 19.9491 7.45605C20.0811 7.45605 19.7347 8.45417 19.5119 8.84406C19.2974 9.23395 19.0417 9.4289 19.0994 9.51467C19.1654 9.59265 19.8089 9.0858 20.0316 8.7115C20.2461 8.32941 20.4524 7.9941 20.4936 8.06428C20.428 8.52107 20.2375 8.95378 19.9409 9.31973C19.5944 9.69402 19.1819 9.96695 19.2479 10.0215C19.3057 10.0839 19.7759 10.1463 20.2626 9.83439C20.7576 9.51468 20.8071 9.05461 20.8648 9.078C20.9308 9.10139 20.8071 9.73301 20.3369 10.1229C19.8666 10.5128 19.2479 10.5518 19.2644 10.6376C19.2974 10.7155 20.6091 10.2789 20.5844 10.3802C20.5596 10.4738 18.885 11.0976 18.8685 11.16C18.8685 11.2068 19.1572 11.2224 19.6109 11.121C20.0564 11.0274 20.4854 10.6921 20.5431 10.7701C20.5596 10.8793 20.2214 11.1444 19.7099 11.2692C19.1902 11.3939 18.9344 11.5577 18.9179 11.5967C18.9097 11.6357 19.8419 11.4875 19.8419 11.5343C19.8419 11.5811 18.621 11.8072 18.6127 11.8696C18.5962 11.9242 19.7677 11.6435 19.7512 11.7137C19.7182 11.7682 18.159 12.2049 18.1755 12.2283C18.1837 12.2595 19.4789 11.9632 19.4542 12.01C19.4212 12.0646 17.2763 12.6338 17.2598 12.6728C17.2433 12.704 19.1572 12.2673 19.1407 12.3063C19.1242 12.3453 18.1507 12.5714 18.1507 12.5948C18.1507 12.6182 18.9344 12.4778 18.9179 12.5168C18.9097 12.548 16.9381 13.0237 16.8968 13.0939C16.8556 13.1718 17.9198 12.8989 17.9033 13.0393C17.8868 13.1796 15.6181 13.897 15.6099 13.7645C15.5934 13.6319 16.9876 13.2966 16.9793 13.2576C16.9628 13.2186 16.1791 13.3356 16.1626 13.2654C16.1544 13.1874 16.6823 13.0315 16.6411 13.0003C16.5998 12.9613 16.2039 13.1095 16.2369 13.0237C16.2781 12.9379 17.0288 12.6104 17.0123 12.587C17.0041 12.5636 16.7401 12.665 16.7648 12.587C16.7978 12.5012 18.39 12.0646 18.3652 12.01C18.3405 11.9632 17.631 12.1191 17.565 12.1347C17.5403 12.088 18.555 11.7293 18.5385 11.6669C18.5055 11.6123 17.994 11.8774 17.961 11.8072C17.9445 11.7293 18.8602 11.3939 18.8025 11.3394C18.7447 11.2848 18.3322 11.4797 18.2745 11.4251C18.2167 11.3706 19.1407 10.7701 19.0004 10.7545C18.8602 10.7467 18.687 10.9417 18.6705 10.8169C18.687 10.661 19.3882 10.4036 19.2314 10.2789C18.9839 10.2087 18.1507 10.3334 17.8043 10.5284C17.4578 10.7233 16.3029 11.8072 16.0224 11.9788C15.7419 12.1425 14.7849 12.5246 14.6035 12.6026C14.323 12.6962 14.2735 12.8365 13.9847 12.9769C13.465 13.1095 13.4733 13.2576 13.2258 13.3434C13.135 13.3668 12.2028 13.7879 12.1946 13.7567ZM10.8912 14.3025C10.7344 14.3805 10.5942 14.5677 10.6849 14.6456C10.7344 14.7392 10.8912 14.4351 11.0149 14.4507L11.6749 14.4819C12.0296 14.5053 12.2028 14.4117 12.4008 14.4273C12.5988 14.4429 13.036 14.3259 13.2423 14.3259C13.4485 14.3259 13.4898 14.3493 13.5063 14.2635C13.531 14.1856 12.8628 14.2401 12.5658 14.2323C12.2688 14.2168 11.8976 14.2869 11.6749 14.2869C11.4686 14.2791 11.1139 14.2168 10.8912 14.3025Z" fill="#FFEC2D"/>
<path d="M11.8811 14.2088C11.8811 14.1442 11.8183 14.0918 11.7408 14.0918C11.6634 14.0918 11.6006 14.1442 11.6006 14.2088C11.6006 14.2734 11.6634 14.3257 11.7408 14.3257C11.8183 14.3257 11.8811 14.2734 11.8811 14.2088Z" fill="#FFEC2D"/>
<path fill-rule="evenodd" clip-rule="evenodd" d="M15.1725 13.9834C15.3128 13.96 15.6922 14.0847 15.9562 14.1393C16.4347 14.3187 17.3256 14.2329 17.3256 14.3187C17.3256 14.4044 17.2679 14.5058 17.0617 14.5214C16.8554 14.537 16.3357 14.4434 16.3522 14.4434C16.3687 14.4434 16.7647 14.6228 16.6492 14.6696C16.5337 14.7163 16.1955 14.5682 16.1377 14.6072C16.08 14.6462 16.4512 14.7163 16.3852 14.7397C16.3357 14.7631 16.08 14.7086 15.9975 14.7164C15.915 14.7319 16.0635 14.8177 15.9645 14.8489C15.8655 14.8879 15.7005 14.8021 15.6345 14.8255C15.5603 14.8489 15.783 14.9815 15.684 14.9971C15.585 15.0127 15.354 14.9347 15.222 14.9191C15.09 14.9191 15.3458 15.0439 15.2633 15.0595C15.1808 15.0673 14.9498 14.9581 14.892 14.9581C14.8343 14.9581 14.892 15.114 14.8095 15.114C14.7271 15.114 14.6281 14.9815 14.5786 14.9815C14.5291 14.9815 14.5786 15.1374 14.4961 15.1374C14.4136 15.1374 14.3806 14.9737 14.3146 14.9815C14.2321 14.9971 14.3146 15.192 14.1991 15.1764C14.0918 15.1686 14.0753 14.9737 13.9846 14.9815C13.9021 14.9971 14.0011 15.1764 13.9186 15.1764C13.8361 15.1764 13.8196 14.9971 13.7371 14.9815C13.6546 14.9737 13.6876 15.153 13.6381 15.153C13.5886 15.153 13.5391 14.9815 13.5061 14.9815C13.4814 14.9815 13.5061 15.153 13.4071 15.1374C13.3081 15.1218 13.3081 14.9503 13.2834 14.9581C13.2504 14.9737 13.2504 15.0984 13.1844 15.0984C13.1184 15.0984 13.1101 14.9737 13.0854 14.9893C13.0524 14.9971 12.9534 15.153 12.8874 15.1296C12.8132 15.1062 12.9039 14.9815 12.8709 14.9815C12.8379 14.9815 12.7554 15.0673 12.7059 15.0595C12.6564 15.0517 12.7059 14.9503 12.6894 14.9503C12.6729 14.9503 12.5492 15.0127 12.4914 15.0127C12.4337 15.0127 12.2769 15.0906 12.2357 15.0205C12.1944 14.9425 12.3429 14.9425 12.3759 14.8723C12.4007 14.8021 12.2934 14.5916 12.4089 14.5214C12.5162 14.4434 12.8709 14.6228 13.3989 14.498C14.3558 14.2563 15.0983 13.9756 15.1725 13.9834Z" fill="#FFEC2D"/>
</svg>
