<svg width="24" height="24" viewBox="0 0 24 24" fill="none" xmlns="http://www.w3.org/2000/svg">
<path d="M21.867 12.2297C21.867 11.5499 21.8111 10.8665 21.6918 10.1978H12.1267V14.0486H17.6042C17.3769 15.2905 16.6466 16.3892 15.5772 17.0873V19.5859H18.845C20.7641 17.8442 21.867 15.2722 21.867 12.2297Z" fill="#4285F4"/>
<path d="M12.1266 22.0003C14.8616 22.0003 17.1681 21.1147 18.8486 19.5861L15.5807 17.0875C14.6715 17.6975 13.4978 18.0429 12.1303 18.0429C9.48469 18.0429 7.24152 16.2828 6.43666 13.9165H3.06445V16.4922C4.78596 19.8692 8.29231 22.0003 12.1266 22.0003Z" fill="#34A853"/>
<path d="M6.43305 13.9163C6.00826 12.6743 6.00826 11.3295 6.43305 10.0875V7.51172H3.06457C1.62626 10.3374 1.62626 13.6664 3.06457 16.492L6.43305 13.9163Z" fill="#FBBC04"/>
<path d="M12.1266 5.95756C13.5723 5.93552 14.9696 6.47197 16.0167 7.45674L18.9119 4.60168C17.0787 2.9041 14.6455 1.97079 12.1266 2.00019C8.2923 2.00019 4.78596 4.13136 3.06445 7.51185L6.43293 10.0876C7.23406 7.71761 9.48096 5.95756 12.1266 5.95756Z" fill="#EA4335"/>
</svg>
