<svg width="163" height="19" viewBox="0 0 163 19" fill="none" xmlns="http://www.w3.org/2000/svg">
<path d="M10.332 18.48L2.388 1.344H6.684L11.82 13.848L10.332 18.48ZM10.332 18.48L10.26 15.552L16.356 1.272H18.084L11.724 15.336C11.692 15.432 11.612 15.616 11.484 15.888C11.372 16.144 11.244 16.44 11.1 16.776C10.956 17.112 10.828 17.44 10.716 17.76C10.62 18.064 10.564 18.304 10.548 18.48H10.332ZM15.636 2.952C15.844 2.472 15.82 2.104 15.564 1.848C15.308 1.576 15.028 1.44 14.724 1.44H14.508V1.2H19.644V1.44C19.644 1.44 19.604 1.44 19.524 1.44C19.46 1.44 19.428 1.44 19.428 1.44C19.076 1.44 18.7 1.56 18.3 1.8C17.916 2.024 17.596 2.408 17.34 2.952H15.636ZM7.356 2.952H3.132C2.876 2.408 2.548 2.024 2.148 1.8C1.764 1.56 1.388 1.44 1.02 1.44C1.02 1.44 0.988 1.44 0.924 1.44C0.86 1.44 0.828 1.44 0.828 1.44V1.2H8.46V1.44H8.244C7.94 1.44 7.668 1.576 7.428 1.848C7.204 2.104 7.18 2.472 7.356 2.952ZM25.4169 1.2V18H21.8169V1.2H25.4169ZM21.8889 16.248V18H19.9689V17.76C19.9689 17.76 20.0169 17.76 20.1129 17.76C20.2249 17.76 20.2809 17.76 20.2809 17.76C20.6969 17.76 21.0489 17.616 21.3369 17.328C21.6409 17.024 21.8009 16.664 21.8169 16.248H21.8889ZM21.8889 2.952H21.8169C21.8009 2.536 21.6409 2.184 21.3369 1.896C21.0489 1.592 20.6969 1.44 20.2809 1.44C20.2809 1.44 20.2249 1.44 20.1129 1.44C20.0169 1.44 19.9689 1.44 19.9689 1.44V1.2H21.8889V2.952ZM25.3449 16.248H25.4169C25.4329 16.664 25.5849 17.024 25.8729 17.328C26.1769 17.616 26.5369 17.76 26.9529 17.76C26.9529 17.76 27.0009 17.76 27.0969 17.76C27.1929 17.76 27.2489 17.76 27.2649 17.76V18H25.3449V16.248ZM25.3449 2.952V1.2H27.2649V1.44C27.2489 1.44 27.1929 1.44 27.0969 1.44C27.0009 1.44 26.9529 1.44 26.9529 1.44C26.5369 1.44 26.1769 1.592 25.8729 1.896C25.5849 2.184 25.4329 2.536 25.4169 2.952H25.3449ZM34.4582 1.2H37.3382C38.7142 1.2 39.8262 1.4 40.6742 1.8C41.5382 2.2 42.1782 2.752 42.5942 3.456C43.0262 4.144 43.2582 4.928 43.2902 5.808C43.3222 6.624 43.1862 7.368 42.8822 8.04C42.5782 8.712 42.1622 9.272 41.6342 9.72C41.1062 10.168 40.4982 10.496 39.8102 10.704C39.1382 10.896 38.4342 10.944 37.6982 10.848C36.9782 10.736 36.2742 10.456 35.5862 10.008V9.768C35.5862 9.768 35.6822 9.768 35.8742 9.768C36.0822 9.768 36.3382 9.736 36.6422 9.672C36.9622 9.608 37.2902 9.488 37.6262 9.312C37.9782 9.136 38.3062 8.864 38.6102 8.496C38.9142 8.128 39.1462 7.64 39.3062 7.032C39.3702 6.824 39.4102 6.592 39.4262 6.336C39.4582 6.064 39.4662 5.816 39.4502 5.592C39.4342 4.568 39.1542 3.752 38.6102 3.144C38.0822 2.52 37.3302 2.208 36.3542 2.208H34.6982C34.6982 2.208 34.6742 2.128 34.6262 1.968C34.5942 1.792 34.5542 1.624 34.5062 1.464C34.4742 1.288 34.4582 1.2 34.4582 1.2ZM34.7702 1.2V18H31.1702V1.2H34.7702ZM31.2422 16.248V18H29.3222V17.76C29.3382 17.76 29.3862 17.76 29.4662 17.76C29.5622 17.76 29.6182 17.76 29.6342 17.76C30.0502 17.76 30.4022 17.616 30.6902 17.328C30.9942 17.024 31.1542 16.664 31.1702 16.248H31.2422ZM31.2422 2.952H31.1702C31.1702 2.536 31.0182 2.184 30.7142 1.896C30.4102 1.592 30.0502 1.44 29.6342 1.44C29.6182 1.44 29.5702 1.44 29.4902 1.44C29.4102 1.44 29.3622 1.44 29.3462 1.44L29.3222 1.2H31.2422V2.952ZM34.6982 16.248H34.7702C34.7862 16.664 34.9382 17.024 35.2262 17.328C35.5302 17.616 35.8902 17.76 36.3062 17.76C36.3222 17.76 36.3702 17.76 36.4502 17.76C36.5462 17.76 36.6022 17.76 36.6182 17.76V18H34.6982V16.248ZM59.8082 1.272V18H56.2082V1.272H59.8082ZM65.6882 1.176V2.184H50.3282V1.176H65.6882ZM65.6882 2.112V4.944L65.4482 4.92V4.656C65.4482 3.904 65.2242 3.312 64.7762 2.88C64.3442 2.432 63.7522 2.2 63.0002 2.184V2.112H65.6882ZM65.6882 0.743999V1.44L62.7602 1.176C63.1122 1.176 63.4802 1.152 63.8642 1.104C64.2642 1.056 64.6322 1 64.9682 0.935999C65.3042 0.871999 65.5442 0.807999 65.6882 0.743999ZM56.2802 16.248V18H54.3602V17.76C54.3602 17.76 54.4082 17.76 54.5042 17.76C54.6162 17.76 54.6722 17.76 54.6722 17.76C55.0882 17.76 55.4402 17.616 55.7282 17.328C56.0322 17.024 56.1922 16.664 56.2082 16.248H56.2802ZM59.7362 16.248H59.8082C59.8242 16.664 59.9762 17.024 60.2642 17.328C60.5682 17.616 60.9282 17.76 61.3442 17.76C61.3442 17.76 61.3922 17.76 61.4882 17.76C61.6002 17.76 61.6562 17.76 61.6562 17.76V18H59.7362V16.248ZM52.9922 2.112V2.184C52.2562 2.2 51.6642 2.432 51.2162 2.88C50.7842 3.312 50.5682 3.904 50.5682 4.656V4.92L50.3282 4.944V2.112H52.9922ZM50.3282 0.743999C50.4882 0.807999 50.7282 0.871999 51.0482 0.935999C51.3842 1 51.7522 1.056 52.1522 1.104C52.5522 1.152 52.9202 1.176 53.2562 1.176L50.3282 1.44V0.743999ZM76.3736 0.863999C78.2936 0.863999 79.9576 1.224 81.3656 1.944C82.7896 2.648 83.8856 3.648 84.6536 4.944C85.4376 6.24 85.8296 7.792 85.8296 9.6C85.8296 11.392 85.4376 12.944 84.6536 14.256C83.8856 15.552 82.7896 16.56 81.3656 17.28C79.9576 17.984 78.2936 18.336 76.3736 18.336C74.4536 18.336 72.7816 17.984 71.3576 17.28C69.9496 16.56 68.8616 15.552 68.0936 14.256C67.3256 12.96 66.9416 11.408 66.9416 9.6C66.9416 7.808 67.3256 6.264 68.0936 4.968C68.8616 3.656 69.9496 2.648 71.3576 1.944C72.7816 1.224 74.4536 0.863999 76.3736 0.863999ZM76.3736 17.328C77.5096 17.328 78.4856 17.016 79.3016 16.392C80.1176 15.752 80.7496 14.856 81.1976 13.704C81.6456 12.552 81.8696 11.184 81.8696 9.6C81.8696 8.016 81.6456 6.648 81.1976 5.496C80.7496 4.344 80.1176 3.456 79.3016 2.832C78.4856 2.192 77.5096 1.872 76.3736 1.872C75.2536 1.872 74.2776 2.192 73.4456 2.832C72.6296 3.456 71.9976 4.344 71.5496 5.496C71.1016 6.648 70.8776 8.016 70.8776 9.6C70.8776 11.184 71.1016 12.552 71.5496 13.704C71.9976 14.856 72.6296 15.752 73.4456 16.392C74.2776 17.016 75.2536 17.328 76.3736 17.328ZM92.6758 1.2V11.76C92.6758 12.896 92.8598 13.88 93.2278 14.712C93.6118 15.544 94.1478 16.184 94.8358 16.632C95.5398 17.08 96.3718 17.304 97.3318 17.304C98.3078 17.304 99.1478 17.096 99.8518 16.68C100.572 16.248 101.124 15.64 101.508 14.856C101.892 14.072 102.084 13.144 102.084 12.072V1.2H103.812V11.928C103.812 13.24 103.532 14.376 102.972 15.336C102.428 16.296 101.636 17.04 100.596 17.568C99.5718 18.08 98.3318 18.336 96.8758 18.336C95.1798 18.336 93.7478 18.08 92.5798 17.568C91.4118 17.04 90.5318 16.304 89.9398 15.36C89.3638 14.4 89.0758 13.264 89.0758 11.952V1.2H92.6758ZM89.1478 1.2V2.64H89.0758C89.0758 2.288 88.9478 2 88.6918 1.776C88.4518 1.552 88.1558 1.44 87.8038 1.44C87.8038 1.44 87.7398 1.44 87.6118 1.44C87.4838 1.44 87.4198 1.44 87.4198 1.44V1.2H89.1478ZM94.3318 1.2V1.44C94.3318 1.44 94.2678 1.44 94.1398 1.44C94.0118 1.44 93.9478 1.44 93.9478 1.44C93.5958 1.44 93.2918 1.552 93.0358 1.776C92.7958 2 92.6758 2.288 92.6758 2.64H92.6278V1.2H94.3318ZM102.156 1.2V2.64H102.084C102.084 2.288 101.956 2 101.7 1.776C101.46 1.552 101.164 1.44 100.812 1.44C100.812 1.44 100.748 1.44 100.62 1.44C100.492 1.44 100.428 1.44 100.428 1.44V1.2H102.156ZM105.468 1.2V1.44C105.468 1.44 105.404 1.44 105.276 1.44C105.148 1.44 105.084 1.44 105.084 1.44C104.732 1.44 104.428 1.552 104.172 1.776C103.932 2 103.812 2.288 103.812 2.64H103.764V1.2H105.468ZM112.107 1.2H115.203C115.923 1.2 116.627 1.28 117.315 1.44C118.003 1.6 118.611 1.856 119.139 2.208C119.683 2.56 120.115 3.024 120.435 3.6C120.755 4.176 120.915 4.888 120.915 5.736C120.915 6.408 120.771 7.08 120.483 7.752C120.211 8.408 119.787 8.976 119.211 9.456C118.635 9.92 117.891 10.2 116.979 10.296C117.491 10.456 117.955 10.744 118.371 11.16C118.803 11.576 119.155 11.992 119.427 12.408C119.443 12.44 119.531 12.584 119.691 12.84C119.867 13.096 120.075 13.416 120.315 13.8C120.571 14.168 120.835 14.544 121.107 14.928C121.379 15.312 121.627 15.648 121.851 15.936C122.203 16.368 122.523 16.72 122.811 16.992C123.099 17.248 123.403 17.44 123.723 17.568C124.043 17.68 124.411 17.744 124.827 17.76V18H122.475C121.611 18 120.827 17.928 120.123 17.784C119.419 17.624 118.795 17.36 118.251 16.992C117.707 16.624 117.235 16.128 116.835 15.504C116.707 15.312 116.563 15.072 116.403 14.784C116.259 14.48 116.107 14.16 115.947 13.824C115.787 13.488 115.627 13.168 115.467 12.864C115.323 12.544 115.195 12.256 115.083 12C114.971 11.744 114.891 11.544 114.843 11.4C114.635 10.888 114.387 10.504 114.099 10.248C113.827 9.992 113.531 9.84 113.211 9.792V9.552C113.259 9.552 113.355 9.552 113.499 9.552C113.643 9.552 113.795 9.552 113.955 9.552C114.387 9.552 114.803 9.464 115.203 9.288C115.619 9.112 115.987 8.824 116.307 8.424C116.627 8.024 116.851 7.472 116.979 6.768C117.011 6.624 117.035 6.456 117.051 6.264C117.083 6.072 117.091 5.856 117.075 5.616C117.027 4.464 116.739 3.624 116.211 3.096C115.683 2.552 115.027 2.272 114.243 2.256C114.019 2.24 113.771 2.24 113.499 2.256C113.243 2.256 113.003 2.256 112.779 2.256C112.571 2.256 112.427 2.256 112.347 2.256C112.347 2.24 112.323 2.152 112.275 1.992C112.243 1.816 112.203 1.64 112.155 1.464C112.123 1.288 112.107 1.2 112.107 1.2ZM112.419 1.2V18H108.819V1.2H112.419ZM108.891 16.248V18H106.971V17.76C106.987 17.76 107.035 17.76 107.115 17.76C107.211 17.76 107.267 17.76 107.283 17.76C107.699 17.76 108.051 17.616 108.339 17.328C108.643 17.024 108.803 16.664 108.819 16.248H108.891ZM108.891 2.952H108.819C108.803 2.536 108.643 2.184 108.339 1.896C108.051 1.592 107.699 1.44 107.283 1.44C107.267 1.44 107.211 1.44 107.115 1.44C107.035 1.44 106.987 1.44 106.971 1.44V1.2H108.891V2.952ZM112.347 16.248H112.419C112.419 16.664 112.571 17.024 112.875 17.328C113.179 17.616 113.539 17.76 113.955 17.76C113.987 17.76 114.043 17.76 114.123 17.76C114.203 17.76 114.243 17.76 114.243 17.76V18H112.347V16.248ZM129.995 1.2V18H126.395V1.2H129.995ZM126.467 16.248V18H124.547V17.76C124.547 17.76 124.595 17.76 124.691 17.76C124.803 17.76 124.859 17.76 124.859 17.76C125.275 17.76 125.627 17.616 125.915 17.328C126.219 17.024 126.379 16.664 126.395 16.248H126.467ZM126.467 2.952H126.395C126.379 2.536 126.219 2.184 125.915 1.896C125.627 1.592 125.275 1.44 124.859 1.44C124.859 1.44 124.803 1.44 124.691 1.44C124.595 1.44 124.547 1.44 124.547 1.44V1.2H126.467V2.952ZM129.923 16.248H129.995C130.011 16.664 130.163 17.024 130.451 17.328C130.755 17.616 131.115 17.76 131.531 17.76C131.531 17.76 131.579 17.76 131.675 17.76C131.771 17.76 131.827 17.76 131.843 17.76V18H129.923V16.248ZM129.923 2.952V1.2H131.843V1.44C131.827 1.44 131.771 1.44 131.675 1.44C131.579 1.44 131.531 1.44 131.531 1.44C131.115 1.44 130.755 1.592 130.451 1.896C130.163 2.184 130.011 2.536 129.995 2.952H129.923ZM139.468 0.863999C139.788 0.863999 140.18 0.879999 140.644 0.912C141.124 0.943999 141.612 0.991999 142.108 1.056C142.62 1.104 143.06 1.16 143.428 1.224C143.812 1.272 144.076 1.328 144.22 1.392L143.932 4.632H143.692C143.692 3.8 143.38 3.136 142.756 2.64C142.148 2.128 141.332 1.872 140.308 1.872C139.38 1.872 138.628 2.096 138.052 2.544C137.492 2.992 137.196 3.536 137.164 4.176C137.148 4.656 137.3 5.072 137.62 5.424C137.94 5.776 138.348 6.104 138.844 6.408L143.428 9.384C144.164 9.8 144.716 10.344 145.084 11.016C145.468 11.688 145.636 12.472 145.588 13.368C145.508 14.936 144.908 16.16 143.788 17.04C142.668 17.904 141.148 18.336 139.228 18.336C138.524 18.336 137.836 18.272 137.164 18.144C136.508 18.032 135.924 17.872 135.412 17.664C134.9 17.44 134.492 17.176 134.188 16.872C134.06 16.52 134.004 16.096 134.02 15.6C134.036 15.104 134.108 14.6 134.236 14.088C134.38 13.576 134.556 13.152 134.764 12.816H134.98C134.916 13.632 135.06 14.392 135.412 15.096C135.78 15.784 136.308 16.336 136.996 16.752C137.7 17.152 138.532 17.344 139.492 17.328C140.548 17.312 141.364 17.048 141.94 16.536C142.516 16.008 142.804 15.376 142.804 14.64C142.804 14.144 142.652 13.696 142.348 13.296C142.06 12.896 141.58 12.512 140.908 12.144L136.708 9.36C135.86 8.88 135.244 8.264 134.86 7.512C134.476 6.76 134.324 5.944 134.404 5.064C134.484 4.232 134.732 3.504 135.148 2.88C135.564 2.24 136.132 1.744 136.852 1.392C137.588 1.04 138.46 0.863999 139.468 0.863999ZM144.244 1.104L144.196 1.608H141.364V1.104H144.244ZM156.511 1.272V18H152.911V1.272H156.511ZM162.391 1.176V2.184H147.031V1.176H162.391ZM162.391 2.112V4.944L162.151 4.92V4.656C162.151 3.904 161.927 3.312 161.479 2.88C161.047 2.432 160.455 2.2 159.703 2.184V2.112H162.391ZM162.391 0.743999V1.44L159.463 1.176C159.815 1.176 160.183 1.152 160.567 1.104C160.967 1.056 161.335 1 161.671 0.935999C162.007 0.871999 162.247 0.807999 162.391 0.743999ZM152.983 16.248V18H151.063V17.76C151.063 17.76 151.111 17.76 151.207 17.76C151.319 17.76 151.375 17.76 151.375 17.76C151.791 17.76 152.143 17.616 152.431 17.328C152.735 17.024 152.895 16.664 152.911 16.248H152.983ZM156.439 16.248H156.511C156.527 16.664 156.679 17.024 156.967 17.328C157.271 17.616 157.631 17.76 158.047 17.76C158.047 17.76 158.095 17.76 158.191 17.76C158.303 17.76 158.359 17.76 158.359 17.76V18H156.439V16.248ZM149.695 2.112V2.184C148.959 2.2 148.367 2.432 147.919 2.88C147.487 3.312 147.271 3.904 147.271 4.656V4.92L147.031 4.944V2.112H149.695ZM147.031 0.743999C147.191 0.807999 147.431 0.871999 147.751 0.935999C148.087 1 148.455 1.056 148.855 1.104C149.255 1.152 149.623 1.176 149.959 1.176L147.031 1.44V0.743999Z" fill="#86A545"/>
</svg>
