<svg width="166" height="160" viewBox="0 0 166 160" fill="none" xmlns="http://www.w3.org/2000/svg">
<path fill-rule="evenodd" clip-rule="evenodd" d="M113.01 58.5628H116.67V54.9031H120.33V51.766H129.741V41.8317H132.879V51.766H141.767V54.9031H145.95V58.5628H149.61V133.857H161.113V160.001H5.81885V133.857H20.9817V36.6029L61.7674 22.4857V133.857H64.9046V0L109.873 14.1171V133.857H113.01V58.5628ZM51.8331 102.486V113.989H44.5128V102.486H51.8331ZM38.2383 102.486V113.989H30.918V102.486H38.2383ZM51.8331 87.3228V98.8263H44.5128V87.3228H51.8331ZM38.2383 87.3228V98.8263H30.918V87.3228H38.2383ZM51.8331 71.1143V82.6177H44.5128V71.1143H51.8331ZM38.2383 71.1143V82.6177H30.918V71.1143H38.2383ZM51.8331 55.428V66.9314H44.5128V55.428H51.8331ZM38.2383 55.428V66.9314H30.918V55.428H38.2383ZM51.8331 39.7417V51.2451H44.5128V39.7417H51.8331ZM38.2383 39.7417V51.2451H30.918V39.7417H38.2383ZM100.461 94.6446V108.762H91.5729V94.6446H100.461ZM83.7291 94.6446V108.762H74.8409V94.6446H83.7291ZM100.461 75.8208V89.938H91.5729V75.8208H100.461ZM83.7291 75.8208V89.938H74.8409V75.8208H83.7291ZM100.461 55.9514V70.0686H91.5729V55.9514H100.461ZM83.7291 55.9514V70.0686H74.8409V55.9514H83.7291ZM100.461 37.1277V50.7226H91.5729V37.1277H100.461ZM83.7291 37.1277V50.7226H74.8409V37.1277H83.7291ZM100.461 17.7817V31.8989H91.5729V17.7817H100.461ZM83.7291 17.7817V31.8989H74.8409V17.7817H83.7291ZM142.292 105.102V113.99H134.449V105.102H142.292ZM128.697 105.102V113.99H120.331V105.102H128.697ZM142.292 92.0303V100.919H134.449V92.0303H142.292ZM128.697 92.0303V100.919H120.331V92.0303H128.697ZM142.292 78.9588V87.8471H134.449V78.9588H142.292ZM128.697 78.9588V87.8471H120.331V78.9588H128.697ZM142.292 65.364V74.2523H134.449V65.364H142.292ZM128.697 65.364V74.2523H120.331V65.364H128.697Z" fill="#BFBFBF"/>
<path fill-rule="evenodd" clip-rule="evenodd" d="M130.265 20.3921C138.631 26.1432 151.18 26.1432 159.545 20.3921C166.341 21.9602 168.433 13.0718 161.113 12.5495C161.113 5.75268 149.609 3.13782 144.381 8.36639C144.381 2.61525 136.538 -0.521894 130.264 2.09182C123.989 5.22896 123.989 12.0261 130.264 15.1632C126.08 15.1632 126.08 19.8687 130.264 20.3921H130.265Z" fill="#BFBFBF"/>
<path fill-rule="evenodd" clip-rule="evenodd" d="M4.77468 25.0984C13.1407 31.8953 25.6898 31.8953 34.0547 25.0984C40.8515 26.6665 42.943 15.6867 35.6228 14.6407C35.6228 5.75241 24.1193 2.61498 18.8908 9.41184C18.8908 2.09155 10.5248 -2.09159 4.2502 1.56926C-1.50095 5.22898 -1.50095 14.1184 4.77251 17.7778C0.589367 18.3001 0.589367 24.5747 4.77251 25.0981L4.77468 25.0984Z" fill="#BFBFBF"/>
</svg>
