<svg width="295" height="221" viewBox="0 0 295 221" fill="none" xmlns="http://www.w3.org/2000/svg">
<g clip-path="url(#clip0_1031_4528)">
<path d="M230.955 8.45139C233.313 8.45139 235.224 6.5612 235.224 4.22954C235.224 1.89788 233.313 0.00769043 230.955 0.00769043C228.597 0.00769043 226.686 1.89788 226.686 4.22954C226.686 6.5612 228.597 8.45139 230.955 8.45139Z" fill="white"/>
<path d="M179.714 146.255H170.4V172.742H179.714V146.255Z" fill="white"/>
<path d="M242.475 188.164C241.421 189.206 240.099 189.815 238.728 190.004C238.39 190.049 238.098 189.76 238.143 189.426C238.335 188.071 238.951 186.763 240.005 185.721C241.059 184.678 242.381 184.069 243.752 183.88C244.09 183.835 244.382 184.124 244.337 184.458C244.145 185.814 243.529 187.121 242.475 188.164Z" fill="#FFC06E"/>
<path d="M233.794 188.164C234.848 189.206 236.17 189.815 237.541 190.004C237.879 190.049 238.171 189.76 238.126 189.426C237.934 188.071 237.319 186.763 236.264 185.721C235.21 184.678 233.888 184.069 232.517 183.88C232.179 183.835 231.887 184.124 231.932 184.458C232.12 185.814 232.74 187.121 233.794 188.164Z" fill="#FFA35F"/>
<path d="M242.475 196.607C241.421 197.65 240.099 198.259 238.728 198.448C238.39 198.493 238.098 198.204 238.143 197.87C238.335 196.514 238.951 195.207 240.005 194.164C241.059 193.122 242.381 192.513 243.752 192.323C244.09 192.279 244.382 192.568 244.337 192.901C244.145 194.257 243.529 195.565 242.475 196.607Z" fill="#FFC06E"/>
<path d="M233.794 196.607C234.848 197.65 236.17 198.259 237.541 198.448C237.879 198.493 238.171 198.204 238.126 197.87C237.934 196.514 237.319 195.207 236.264 194.164C235.21 193.122 233.888 192.513 232.517 192.323C232.179 192.279 231.887 192.568 231.932 192.901C232.12 194.257 232.74 195.565 233.794 196.607Z" fill="#FFA35F"/>
<path d="M238.021 202.295H237.861C237.479 202.295 237.166 201.985 237.166 201.607V183.405C237.166 183.026 237.479 182.717 237.861 182.717H238.021C238.404 182.717 238.717 183.026 238.717 183.405V201.607C238.717 201.989 238.404 202.295 238.021 202.295Z" fill="#D36D69"/>
<path d="M225.907 191.546C225.673 191.546 225.44 191.556 225.211 191.577C223.857 188.401 220.684 186.175 216.978 186.175C212.048 186.175 208.05 190.128 208.05 195.004C208.05 199.88 212.048 203.833 216.978 203.833C217.211 203.833 217.445 203.823 217.674 203.802C219.028 206.978 222.201 209.204 225.907 209.204C230.837 209.204 234.835 205.251 234.835 200.375C234.835 195.499 230.837 191.546 225.907 191.546Z" fill="#3F4F6B"/>
<path d="M118.386 193.851C112.175 194.237 80.7531 205.749 80.7531 205.749H60.7466C59.9951 205.749 59.3896 206.352 59.3896 207.091C59.3896 207.835 59.9986 208.433 60.7466 208.433H92.7709V205.746H143.232L155.264 188.473C155.264 188.477 124.597 193.466 118.386 193.851Z" fill="#FFC06E"/>
<path d="M137.019 204.597H125.763V189.629H137.019V195.313V204.597Z" fill="#46294E"/>
<path d="M94.7091 180.033C94.7091 180.033 112.176 181.568 130.808 166.597C149.44 151.626 150.271 134.739 190.225 154.699C230.179 174.659 259.288 114.393 259.288 114.393C259.288 114.393 236.776 85.2222 213.875 79.8477C197.121 75.9149 185.351 56.7807 180.239 46.7921C177.519 41.4761 172.675 37.4917 166.858 35.9433C159.822 34.0715 149.245 33.2079 135.077 37.2405C106.741 45.3023 94.7091 66.7968 94.7091 66.7968C94.7091 66.7968 65.597 60.2697 45.0234 94.4332C24.4497 128.597 68.3144 173.151 68.3144 173.151C68.3144 173.151 80.3496 180.033 94.7091 180.033Z" fill="#E1FAF9"/>
<path d="M67.5385 137.04C67.5385 137.04 80.3461 149.324 105.579 139.728C130.808 130.131 140.901 123.989 157.978 125.142C175.059 126.295 198.736 147.404 204.947 148.942C211.157 150.477 228.238 147.022 228.238 147.022L228.822 151.66C228.822 151.66 211.157 165.447 190.027 154.316C169.244 143.368 139.927 158.47 139.927 158.47C139.927 158.47 121.615 176.049 113.205 177.273C104.796 178.498 97.5691 186.175 68.9685 173.891C40.3679 161.608 67.5385 137.04 67.5385 137.04Z" fill="#C4F4F5"/>
<path d="M130.808 197.595V204.597H137.018V195H133.431C131.984 195 130.808 196.163 130.808 197.595Z" fill="#3F4F6B"/>
<path d="M110.238 190.011H99.3679V204.597H110.238V190.011Z" fill="#46294E"/>
<path d="M110.237 195.052L106.831 195.025C105.498 195.014 104.413 196.077 104.413 197.395V204.6H110.234V195.052" fill="#3F4F6B"/>
<path d="M57.0586 216.88C57.0586 216.88 65.2108 209.204 72.5836 209.204C79.9565 209.204 93.5435 203.829 100.144 200.76C106.741 197.691 154.485 197.306 154.485 197.306L154.095 216.884L57.0586 216.88Z" fill="#B1B369"/>
<path d="M85.1963 216.88C85.1963 216.88 106.744 208.051 114.117 208.051C121.493 208.051 135.853 208.437 140.901 206.131C145.946 203.829 154.165 197.302 157.042 197.302C159.92 197.302 217.754 192.695 227.848 196.15C237.941 199.604 238.717 204.211 246.48 204.593C254.242 204.979 263.32 216.877 263.32 216.877H85.1963" fill="#518774"/>
<path d="M274.955 216.88H209.104L190.584 190.779L168.458 191.546C168.458 191.546 149.05 194.233 158.754 198.84C168.458 203.448 184.373 198.073 184.373 198.073L188.764 203.716C191.728 207.525 188.847 211.509 183.987 211.509L151.987 212.965C150.974 213.009 149.986 213.288 149.099 213.77C148.006 214.365 146.914 214.578 145.167 214.578C142.839 214.578 135.505 216.88 135.505 216.88H37.1215C36.6135 216.88 36.1508 217.242 36.1021 217.741C36.0429 218.315 36.4987 218.8 37.0659 218.8H275.007C275.578 218.8 276.03 218.315 275.971 217.741C275.923 217.242 275.46 216.88 274.955 216.88Z" fill="#3F4F6B"/>
<path d="M67.5384 35.3206H49.6821V37.6224H67.5384V35.3206Z" fill="#FFECCC"/>
<path d="M92.3813 67.5641L87.7224 66.7968V62.1896L92.3813 67.5641Z" fill="#FFA78B"/>
<path d="M82.6771 38.775L89.274 71.0186L70.6419 62.1896L65.2071 34.9351C65.2071 34.9351 64.4312 32.6333 66.3727 33.0152C68.3142 33.4005 80.7356 35.3171 80.7356 35.3171C80.7356 35.3171 81.9012 35.317 82.2874 36.8516C82.6771 38.3897 82.6771 38.775 82.6771 38.775Z" fill="#3F4F6B"/>
<path d="M81.6406 41.2731L88.1087 73.0522L73.965 66.0124L68.4293 38.3519C68.4293 38.3519 67.8413 36.5971 69.3096 36.8896C70.7779 37.182 80.1722 38.6444 80.1722 38.6444C80.1722 38.6444 81.0525 38.6444 81.3483 39.8142C81.6405 40.9807 81.6406 41.2731 81.6406 41.2731Z" fill="white"/>
<path d="M75.301 63.7242C75.301 63.3388 73.3596 58.735 72.5837 57.9677C71.8078 57.2004 68.3144 57.9677 68.3144 57.9677L67.5386 54.8986C67.5386 54.8986 65.2108 59.5058 65.9867 61.4257C66.7626 63.3457 67.9283 66.4149 71.4216 69.4875C74.9149 72.5601 75.301 63.7242 75.301 63.7242Z" fill="#FFC09F"/>
<path d="M75.3009 72.9386L71.0317 69.8695C71.0317 69.8695 70.8647 67.3818 72.9732 64.8803C74.9147 62.5784 78.408 64.113 78.408 64.113L80.3495 65.2657L75.3009 72.9386Z" fill="#FF8167"/>
<path d="M114.507 40.6916C116.221 40.6916 117.61 39.3175 117.61 37.6224C117.61 35.9273 116.221 34.5532 114.507 34.5532C112.793 34.5532 111.403 35.9273 111.403 37.6224C111.403 39.3175 112.793 40.6916 114.507 40.6916Z" fill="#C4F4F5"/>
<path d="M94.709 62.1896C94.709 62.1896 93.1572 62.1896 91.6054 61.4223C90.0536 60.655 86.1706 57.5824 86.1706 57.5824C86.1706 57.5824 85.005 56.8151 84.2291 57.5824C83.4532 58.3496 84.6188 59.8842 84.6188 59.8842L92.3813 68.3279L94.709 62.1896Z" fill="#FFC09F"/>
<path d="M134.691 38.0077V33.4005C134.691 33.4005 135.08 30.3313 131.197 26.8733C127.314 23.4187 121.493 24.5714 119.942 25.7206C118.39 26.8733 126.542 35.7024 126.542 35.7024L134.691 38.0077Z" fill="#D36D69"/>
<path d="M114.507 32.2479V43.3788C114.507 43.3788 124.211 39.157 123.821 37.6224C123.431 36.0878 117.221 31.0952 117.221 31.0952L114.507 32.2479Z" fill="#FFC09F"/>
<path d="M113.341 51.826V43.7642C113.341 43.7642 113.731 42.9969 114.507 42.6115C115.283 42.2262 118 41.0769 118.776 40.3096C119.552 39.5423 121.493 36.8551 121.493 36.8551L127.704 44.5315L113.341 51.826Z" fill="#9F3F4C"/>
<path d="M98.5921 62.5749C98.5921 62.5749 94.7091 61.4222 94.3229 61.8076C93.9332 62.193 91.9952 67.564 91.9952 67.564C91.9952 67.564 91.6055 68.7167 92.7711 69.0986C93.9367 69.484 95.4885 69.8659 95.4885 69.8659L98.5921 62.5749Z" fill="#FF8167"/>
<path d="M104.803 102.877L137.798 107.099V141.262C137.798 141.262 139.739 141.262 139.739 142.797C139.739 144.331 139.739 159.688 139.739 159.688C139.739 159.688 139.739 161.222 137.798 161.222V190.779C137.798 190.779 137.798 191.546 136.632 191.546C135.467 191.546 125.376 191.546 125.376 191.546C125.376 191.546 124.211 191.16 124.211 189.626C124.211 188.091 120.717 136.27 120.717 136.27C120.717 136.27 115.672 148.935 114.896 158.917C114.841 159.633 114.778 160.403 114.705 161.219C113.797 171.765 111.789 189.622 111.789 189.622C111.789 189.622 111.4 191.542 109.462 191.542C107.52 191.542 99.3679 191.542 99.3679 191.542C99.3679 191.542 98.2023 191.157 98.2023 188.855C98.2023 186.553 98.2023 161.219 98.2023 161.219C98.2023 161.219 96.2607 161.219 96.2607 158.15C96.2607 155.08 97.0367 142.03 97.8126 141.259C98.5885 140.488 98.9782 140.106 99.7541 140.106C100.53 140.106 105.965 103.641 105.965 103.641" fill="#0096A9"/>
<path d="M102.472 62.9568C102.472 62.9568 98.5885 61.8042 98.2023 62.5715C97.8126 63.3388 95.4849 69.4806 95.4849 69.4806L102.472 62.9568Z" fill="#FFA35F"/>
<path d="M115.669 29.564H112.951C112.951 29.564 112.562 29.5021 112.562 30.7167C112.562 31.8693 123.042 43.0003 126.535 43.3822C130.028 43.7641 130.418 42.6149 130.418 42.6149C130.418 42.6149 119.548 39.5457 115.279 29.9494L115.669 29.564Z" fill="#46294E"/>
<path d="M120.718 47.2188C120.718 47.2188 122.659 44.1496 129.256 42.6116C135.856 41.077 141.677 42.9969 141.677 42.9969C141.677 42.9969 143.229 43.3823 144.395 45.2988C145.56 47.2153 149.83 55.2805 150.216 55.2805L120.718 47.2188Z" fill="#46AABD"/>
<path d="M124.987 46.4514C124.987 46.4514 118.776 46.066 115.283 49.1387C111.789 52.2078 93.1572 71.0186 92.3813 72.1713L81.9014 65.2622C81.9014 65.2622 79.5737 63.7276 76.4666 68.3313C73.3595 72.9351 76.0768 74.8585 76.0768 74.8585L90.4398 85.2222C90.4398 85.2222 91.2157 85.9895 93.1572 85.9895C95.0987 85.9895 108.682 77.9277 108.682 77.9277C108.682 77.9277 102.082 115.928 102.861 116.313C103.637 116.698 109.848 114.011 111.013 112.473C112.179 110.939 112.565 106.331 112.565 106.331C112.565 106.331 112.955 105.179 113.731 105.179C114.507 105.179 114.507 106.331 114.507 106.331C114.507 106.331 112.955 112.088 114.117 113.24C115.283 114.393 120.328 121.684 138.57 122.07C138.57 122.07 138.96 122.07 138.96 121.684C138.96 121.299 140.901 51.4405 140.901 51.4405L124.987 46.8333V46.4514Z" fill="#FFC06E"/>
<path d="M125.401 46.9985L129.645 54.8951C129.645 54.8951 130.811 59.117 129.645 62.9569C128.48 66.7968 118.776 99.8077 118.776 99.8077C118.776 99.8077 116.834 108.251 124.211 111.324C131.587 114.393 138.96 115.546 138.96 115.546V112.477L133.525 52.9786L128.09 47.6041L125.401 46.9985Z" fill="#FFA35F"/>
<path d="M127.314 46.8368C127.314 46.8368 140.122 46.4514 142.453 47.6041C144.781 48.7567 149.054 51.8259 149.83 54.5132C150.606 57.2004 127.314 46.8368 127.314 46.8368Z" fill="#0096A9"/>
<path d="M68.7039 51.8259L70.6454 59.5023C70.6454 59.5023 71.0351 60.655 70.2557 61.0369C69.4798 61.4223 68.7039 60.6515 68.7039 60.2696C68.7039 59.8877 67.3992 55.2357 67.3992 55.2357L68.7039 51.8259Z" fill="#FFA78B"/>
<path d="M122.962 46.4858C122.962 46.4858 126.539 47.6041 128.48 49.5241C130.422 51.444 129.256 49.9094 129.256 49.9094L138.96 52.9786L144.029 52.2113C144.029 52.2113 129.089 45.7495 122.962 46.4858Z" fill="#46294E"/>
<path d="M142.067 63.3423L135.47 84.455L138.24 85.5009L143.232 68.3349C143.229 68.3314 144.005 64.1096 142.067 63.3423Z" fill="#D36D69"/>
<path d="M131.197 42.2295C131.197 42.2295 131.587 44.9168 134.301 44.9168C137.018 44.9168 139.346 44.5314 140.512 44.9168C141.677 45.3021 142.418 45.3572 143.601 48.2096C144.781 51.0586 147.697 51.3132 147.697 51.3132C147.697 51.3132 144.638 44.7275 142.453 43.0003C140.512 41.4657 132.749 41.8476 132.749 41.8476L131.197 42.2295Z" fill="#4ECCD0"/>
<path d="M133.915 57.9677C133.525 57.2004 129.646 52.9786 128.48 49.524L138.184 52.5932L133.915 57.9677Z" fill="#9F3F4C"/>
<path d="M133.139 57.5823L121.107 99.8042C121.107 99.8042 119.166 106.713 123.825 108.633C128.484 110.553 139.35 113.622 139.35 113.622C139.35 113.622 142.453 115.542 145.95 110.935L151.771 91.7424C151.771 91.7424 153.323 87.9025 148.278 85.986C147.916 85.8483 154.878 62.9534 154.878 62.9534C154.878 62.9534 156.044 57.5789 150.995 54.5097C145.95 51.4405 140.126 51.8224 140.126 51.8224C140.126 51.8224 135.856 51.0586 133.139 57.5823Z" fill="#D36D69"/>
<path d="M136.267 52.8547L141.677 57.9677C141.677 57.9677 143.229 59.8877 142.067 63.3422C140.901 66.7968 135.856 84.4549 135.856 84.4549L126.152 81.7677L132.753 57.9677C132.749 57.9677 134.353 53.1162 136.267 52.8547Z" fill="#E2566E"/>
<path d="M154.485 64.1096L147.885 87.9095L135.463 84.4549L142.45 62.1931C142.45 62.1931 143.226 59.1239 146.333 59.5058C151.308 60.5552 154.381 60.3075 154.485 64.1096Z" fill="#F58E70"/>
<path d="M134.492 75.7118C134.141 76.1316 133.727 76.9057 133.525 78.313L137.408 79.8476C137.408 79.8476 138.184 77.5457 137.798 76.3931C137.523 75.581 136.281 75.3402 135.574 75.2714C135.16 75.2301 134.757 75.3952 134.492 75.7118Z" fill="#FDC7A6"/>
<path d="M136.242 76.3932L135.467 79.0804L137.408 79.8477C137.408 79.8477 137.798 80.2331 138.271 77.188C138.396 76.376 137.638 75.6741 136.824 75.5055L136.622 75.4642C136.545 75.447 136.465 75.4951 136.448 75.5743L136.242 76.3932Z" fill="white"/>
<path d="M129.646 84.0696L130.581 81.2963C130.755 80.7801 131.023 80.2984 131.371 79.8787C131.928 79.2043 132.805 78.3131 133.529 78.3131L137.798 79.4658C137.798 79.4658 139.235 81.7298 137.798 85.9929C137.022 88.2948 129.861 83.2334 129.861 83.2334" fill="#46294E"/>
<path d="M135.077 79.8477C135.077 79.8477 135.077 82.1496 136.629 82.5349C138.181 82.9203 138.41 82.5349 138.41 82.5349C138.41 82.5349 138.57 81.0003 137.794 79.4658L136.107 78.9875C135.592 78.843 135.08 79.2249 135.08 79.7548V79.8477H135.077Z" fill="#3F4F6B"/>
<path d="M127.314 83.3022L121.88 101.342L122.659 106.717L130.808 110.171L135.467 110.939L137.018 106.717L141.288 87.1387L127.314 83.3022Z" fill="#BC4F5C"/>
<path d="M139.35 87.5241L130.035 84.8368C130.035 84.8368 128.094 83.6841 127.318 85.6041C126.542 87.524 122.659 100.957 122.659 100.957C122.659 100.957 121.493 106.331 126.152 107.866C130.811 109.401 133.915 110.168 133.915 110.168L135.467 112.47L125.373 109.782C125.373 109.782 118.386 108.248 121.49 98.2662C124.594 88.2845 126.149 81.7607 126.149 81.7607L141.288 85.9826L139.35 87.5241Z" fill="#9F3F4C"/>
<path d="M133.139 107.484C133.139 107.484 131.973 111.324 133.915 112.091C135.328 112.649 138.793 113.615 140.578 114.101C141.382 114.317 142.241 114.238 142.975 113.849C144.332 113.13 146.364 111.599 147.112 108.637C148.278 104.029 151.771 91.7459 151.771 91.7459C151.771 91.7459 152.342 88.8143 150.31 87.0182C148.278 85.2221 143.233 84.4548 143.233 84.4548C143.233 84.4548 140.515 84.4548 139.35 87.524C138.184 90.5932 133.139 107.484 133.139 107.484Z" fill="#D36D69"/>
<path d="M115.669 73.3206L123.435 92.1313L121.535 98.3867L112.176 75.6259L115.669 73.3206Z" fill="#9F3F4C"/>
<path d="M150.585 93.9411L142.488 91.7872C141.931 91.6393 141.601 91.0715 141.75 90.5176L141.844 90.1769C141.994 89.6264 142.568 89.2995 143.128 89.4475L151.774 91.7493L151.284 93.5489C151.197 93.8448 150.887 94.0203 150.585 93.9411Z" fill="#F58E70"/>
<path d="M144.151 94.0479H143.866C143.518 94.0479 143.233 93.7692 143.233 93.4216V91.6014C143.233 91.2574 143.515 90.9752 143.866 90.9752H144.151C144.499 90.9752 144.785 91.2539 144.785 91.6014V93.4216C144.781 93.7692 144.499 94.0479 144.151 94.0479Z" fill="#FFC06E"/>
<path d="M150.216 65.6028L147.206 64.8321C146.556 64.6635 146.166 64.0063 146.333 63.3628L146.402 63.0945C146.573 62.4511 147.237 62.0657 147.888 62.2308L150.898 63.0016C151.548 63.1702 151.938 63.8274 151.771 64.4708L151.702 64.7392C151.531 65.3826 150.866 65.7714 150.216 65.6028Z" fill="#FFC06E"/>
<path d="M132.791 109.91L144.005 113.206C144.005 113.206 142.453 114.424 141.287 114.218C140.122 114.011 133.911 112.091 133.911 112.091C133.911 112.091 132.833 111.95 132.791 109.91Z" fill="#BC4F5C"/>
<path d="M120.94 37.5088L117.61 33.4005H114.507C114.507 33.4005 117.102 36.6108 119.921 38.9195C120.262 39.1982 120.777 38.9849 120.825 38.5514L120.94 37.5088Z" fill="#FFA78B"/>
<path d="M121.493 37.6223H113.341C113.341 37.6223 112.565 37.6224 112.565 36.8551C112.565 36.0878 112.955 36.0878 112.955 36.0878H121.493V37.6223Z" fill="#3F4F6B"/>
<path d="M105.606 65.2897L102.263 61.9831C101.876 61.6012 101.876 60.9819 102.263 60.5999L109.207 53.7321C109.594 53.3502 110.223 53.3502 110.61 53.7321L114.061 57.1454C114.799 57.8748 114.799 59.0619 114.061 59.7913L108.498 65.2932C107.701 66.0811 106.407 66.0811 105.606 65.2897Z" fill="#FFA35F"/>
<path d="M118.386 25.3388C118.386 25.3388 116.445 26.8734 115.669 28.0261C114.893 29.1787 114.893 29.946 115.279 30.3279C115.669 30.7133 120.679 40.6675 130.275 42.6047C139.872 44.5418 130.275 42.6047 130.275 42.6047L135.849 42.9969V38.7751C135.849 38.7751 135.849 37.6224 134.684 37.2405C133.167 36.7416 123.814 35.3205 119.935 25.7242C119.942 25.7242 119.552 24.5715 118.386 25.3388Z" fill="#FFC06E"/>
<path d="M124.597 29.5641C124.597 29.5641 128.866 34.9386 134.691 35.3205C140.512 35.7059 134.691 35.3205 134.691 35.3205C134.691 35.3205 136.242 27.6441 127.704 24.9809C119.503 22.4244 127.704 24.9809 127.704 24.9809C127.704 24.9809 122.659 25.7242 124.597 29.5641Z" fill="#F58E70"/>
<path d="M108.741 60.9164L105.568 57.7785C105.408 57.6202 105.408 57.3656 105.568 57.2073L106.361 56.4228C106.521 56.2645 106.779 56.2645 106.939 56.4228L110.112 59.5608C110.453 59.898 110.453 60.4416 110.112 60.7788L109.969 60.9199C109.632 61.2536 109.082 61.2536 108.741 60.9164Z" fill="#FFC06E"/>
<path d="M78.408 64.1096C78.408 64.1096 74.525 69.0987 72.1973 66.0295C72.1973 66.0295 74.9147 61.0369 78.408 64.1096Z" fill="#FFA35F"/>
<path d="M102.983 116.492L103.94 116.193C104.458 116.031 104.837 115.604 104.921 115.088L111.247 75.6293L108.853 75.2749L102.468 116.076C102.426 116.354 102.705 116.578 102.983 116.492Z" fill="#FFA35F"/>
<path d="M118.96 69.4806C118.56 69.0401 117.875 68.9954 117.367 69.312L94.7472 83.3744C94.4375 83.5671 94.0687 83.6428 93.7068 83.5912C93.3554 83.543 92.9901 83.4846 92.6804 83.402C92.503 83.3538 92.3359 83.2746 92.1863 83.168L77.9174 72.9936C77.6146 72.7803 77.4198 72.4534 77.3467 72.0955C77.3432 72.0783 77.3641 72.2056 77.4302 72.6357C77.5346 73.2998 77.7051 70.8706 78.4045 69.4874C79.4935 67.3301 82.5797 66.1843 83.0181 66.0467C83.039 66.0398 83.046 66.0157 83.0286 65.9985C82.7885 65.7783 81.442 64.34 79.5701 65.2656C78.0183 66.0329 76.8526 66.8002 75.6871 69.4874C75.0677 70.9119 74.9181 72.0233 75.0573 72.8663C74.9738 73.2207 75.2174 73.7471 75.4992 74.1772C75.6036 74.3665 75.6871 74.4697 75.6871 74.4697L75.701 74.4594C75.8436 74.6452 75.9828 74.7897 76.0767 74.8585L90.4397 85.2221C90.972 85.6075 91.7236 85.9413 92.3812 85.9894C94.274 86.1271 95.0986 85.9894 96.2642 85.2221L107.134 79.0803L118.706 71.3007C119.333 70.9119 119.479 70.0483 118.96 69.4806Z" fill="#FFA35F"/>
<path d="M91.2155 73.7059L92.3812 72.1714L91.2155 71.4041L90.0326 73.09C89.7682 73.4238 89.7159 73.8298 90.0534 74.0913L90.1648 74.167C90.5023 74.4285 90.9511 74.0397 91.2155 73.7059Z" fill="#FFA35F"/>
<path d="M119.166 140.495L116.062 140.109L112.569 149.706L112.148 159.302H114.869C114.865 159.306 115.283 151.626 119.166 140.495Z" fill="#7ACCCB"/>
<path d="M137.794 127.829H135.077L134.865 159.306H137.794V127.829Z" fill="#7ACCCB"/>
<path d="M105.189 120.92L102.471 136.273C102.471 136.273 101.696 140.495 103.637 140.88C105.579 141.266 107.906 141.648 107.906 141.648C107.906 141.648 110.234 142.033 110.234 145.488C110.234 148.942 110.234 159.306 110.234 159.306H112.562C112.562 159.306 112.951 154.317 113.338 150.862C113.619 148.347 115.547 143.802 116.573 141.513C116.942 140.691 117.836 140.237 118.727 140.412L119.159 140.498L120.71 136.277V134.742L121.876 130.902C121.876 130.902 122.652 129.749 123.428 130.135C124.204 130.52 123.818 131.669 123.818 131.669L123.042 134.739L124.207 157C124.207 157 124.207 159.302 125.759 159.302C127.311 159.302 135.853 159.302 135.853 159.302V130.513C135.853 130.513 135.853 127.826 137.794 127.826C139.736 127.826 137.794 127.826 137.794 127.826L137.752 124.027C137.752 124.027 124.597 125.521 112.565 114.775C112.565 114.779 106.354 114.393 105.189 120.92Z" fill="#46AABD"/>
<path d="M112.565 182.72H109.072L109.848 176.96L111.525 161.222L114.709 161.174L112.565 182.72Z" fill="#7ACCCB"/>
<path d="M112.176 161.222L110.234 180.8C110.164 181.571 110.888 182.5 111.64 182.686C111.737 182.71 111.838 182.72 111.939 182.72H112.565L112.176 185.022L101.97 185.084C100.951 185.05 100.144 184.224 100.144 183.216V163.283C100.144 162.148 101.076 161.226 102.224 161.226L112.176 161.222Z" fill="#46AABD"/>
<path d="M137.794 183.102H135.077L134.865 161.222H137.794V183.102Z" fill="#7ACCCB"/>
<path d="M135.466 161.222L135.821 181.182C135.839 182.249 136.719 183.102 137.798 183.102V185.789H128.776C127.516 185.789 126.465 184.829 126.368 183.587L124.76 163.235C124.673 162.151 125.543 161.222 126.643 161.222H135.466Z" fill="#46AABD"/>
<path d="M112.068 187.118L111.789 189.244L102.124 189.571C101.685 189.602 101.309 189.258 101.309 188.821V188.04C101.309 187.644 101.629 187.321 102.03 187.314L112.068 187.118Z" fill="#46AABD"/>
<path d="M137.794 187.334V189.075L128.564 189.234C128.09 189.24 127.701 188.865 127.701 188.394V188.263C127.701 187.747 128.125 187.327 128.647 187.327L137.794 187.334Z" fill="#46AABD"/>
<path d="M96.8837 147.211L96.7236 149.152L104.771 149.654C105.231 149.682 105.645 149.372 105.735 148.921L105.767 148.774C105.871 148.251 105.488 147.752 104.949 147.717L96.8837 147.211Z" fill="#008195"/>
<path d="M187.929 145.845L196.081 177.704L183.66 179.238V145.845H187.929Z" fill="#FFA9AF"/>
<path d="M197.184 66.2807V8.58216C197.184 5.54051 199.675 3.0769 202.751 3.0769H289.433C292.509 3.0769 295 5.54051 295 8.58216V66.2807C295 69.3223 292.509 71.7859 289.433 71.7859H202.751C199.675 71.7859 197.184 69.3223 197.184 66.2807Z" fill="#FFECCC"/>
<path d="M257.402 69.0986H260.453V71.7859H257.402C256.73 71.7859 256.184 71.2457 256.184 70.5816V70.3029C256.184 69.6388 256.73 69.0986 257.402 69.0986Z" fill="#FFC06E"/>
<path d="M62.7473 183.102H5.56702C2.49124 183.102 0 180.639 0 177.597V98.4038C0 95.3622 2.49124 92.8986 5.56702 92.8986H62.7473C65.8231 92.8986 68.3143 95.3622 68.3143 98.4038V177.597C68.3143 180.639 65.8231 183.102 62.7473 183.102Z" fill="#FFECCC"/>
<path d="M68.3143 126.677H52.7893V92.8986H62.7473C65.8231 92.8986 68.3143 95.3622 68.3143 98.4038V126.677Z" fill="#FFC06E"/>
<path d="M61.6932 180.415H6.62139C4.46417 180.415 2.71753 178.688 2.71753 176.554V99.4464C2.71753 97.3131 4.46417 95.5858 6.62139 95.5858H61.6932C63.8504 95.5858 65.597 97.3131 65.597 99.4464V176.554C65.597 178.688 63.8504 180.415 61.6932 180.415Z" fill="white"/>
<path d="M135.856 41.8029C135.856 41.8029 114.048 36.4696 122.04 29.5605C122.04 29.5605 125.227 34.4671 135.157 37.4193C135.568 37.5432 135.856 37.9113 135.856 38.338V41.8029Z" fill="#FFD898"/>
<path d="M21.8018 25.7241H46.8987C48.4366 25.7241 49.6822 26.9559 49.6822 28.4767V45.2333C49.6822 46.7542 48.4366 47.986 46.8987 47.986H21.8018C20.2639 47.986 19.0183 46.7542 19.0183 45.2333V28.4767C19.0183 26.9559 20.2639 25.7241 21.8018 25.7241Z" fill="#FFC06E"/>
<path d="M24.916 25.7241H46.8952C48.4366 25.7241 49.6857 26.9593 49.6857 28.4836V42.5427C49.6857 44.0669 48.4366 45.3022 46.8952 45.3022H24.916C23.3746 45.3022 22.1255 44.0669 22.1255 42.5427V28.4836C22.1255 26.9593 23.3746 25.7241 24.916 25.7241Z" fill="#FFD898"/>
<path d="M49.2959 35.3206H53.2972C53.8748 35.3206 54.341 35.7816 54.341 36.3528V36.5902C54.341 37.1614 53.8748 37.6224 53.2972 37.6224H49.2959V35.3206Z" fill="#FFD898"/>
<path d="M35.3229 64.4915H32.9951V92.8951H35.3229V64.4915Z" fill="#FFECCC"/>
<path d="M32.9915 50.6732V64.6118C32.9915 65.183 33.4577 65.6441 34.0353 65.6441H34.2754C34.853 65.6441 35.3192 65.183 35.3192 64.6118V50.6732H32.9915Z" fill="#FFD898"/>
<path d="M32.9915 47.2188V50.7937C32.9915 51.3649 33.4577 51.826 34.0353 51.826H34.2754C34.853 51.826 35.3192 51.3649 35.3192 50.7937V47.2188H32.9915Z" fill="#FFC06E"/>
<path d="M34.1571 44.1495C38.2309 44.1495 41.5334 40.8836 41.5334 36.855C41.5334 32.8264 38.2309 29.5605 34.1571 29.5605C30.0832 29.5605 26.7808 32.8264 26.7808 36.855C26.7808 40.8836 30.0832 44.1495 34.1571 44.1495Z" fill="white"/>
<path d="M34.1572 42.2296C37.1588 42.2296 39.592 39.8234 39.592 36.8551C39.592 33.8868 37.1588 31.4806 34.1572 31.4806C31.1557 31.4806 28.7224 33.8868 28.7224 36.8551C28.7224 39.8234 31.1557 42.2296 34.1572 42.2296Z" fill="#4EC2BB"/>
<path d="M34.1571 40.3096C36.0864 40.3096 37.6504 38.7629 37.6504 36.8551C37.6504 34.9472 36.0864 33.4005 34.1571 33.4005C32.2278 33.4005 30.6638 34.9472 30.6638 36.8551C30.6638 38.7629 32.2278 40.3096 34.1571 40.3096Z" fill="#78E6E0"/>
<path d="M45.0267 31.8659C46.0989 31.8659 46.9682 31.0063 46.9682 29.9459C46.9682 28.8856 46.0989 28.026 45.0267 28.026C43.9544 28.026 43.0852 28.8856 43.0852 29.9459C43.0852 31.0063 43.9544 31.8659 45.0267 31.8659Z" fill="#FFC06E"/>
<path d="M35.7091 36.4697C36.5661 36.4697 37.2609 35.7826 37.2609 34.9351C37.2609 34.0876 36.5661 33.4005 35.7091 33.4005C34.852 33.4005 34.1572 34.0876 34.1572 34.9351C34.1572 35.7826 34.852 36.4697 35.7091 36.4697Z" fill="white"/>
<path d="M59.8941 97.1204H8.41647C6.33928 97.1204 4.65527 98.7857 4.65527 100.84V122.957C4.65527 125.011 6.33928 126.677 8.41647 126.677H29.4946C32.1355 126.677 34.7659 126.333 37.3128 125.634C40.065 124.881 44.6369 124.375 50.0717 123.989C55.2769 123.621 59.2365 123.177 61.5015 122.297C62.8028 121.791 63.6587 120.549 63.6587 119.165V100.84C63.6587 98.7857 61.9747 97.1204 59.8941 97.1204Z" fill="#C4F4F5"/>
<path d="M50.8478 35.3205C50.2041 35.3205 49.6821 34.8044 49.6821 34.1678V35.3205V37.6224V38.7751C49.6821 38.1385 50.2041 37.6224 50.8478 37.6224H52.0133V35.3205H50.8478Z" fill="#FFD898"/>
<path d="M62.4934 114.011H61.3278H53.1756C53.1756 110.171 48.5167 110.171 48.5167 110.171C45.4131 110.171 44.6337 112.091 44.6337 112.091C44.6337 112.091 44.6337 110.939 41.9163 110.939C39.1989 110.939 38.423 114.008 38.423 114.008H36.4815C35.8378 114.008 35.3159 114.524 35.3159 115.161C35.3159 115.797 35.8378 116.313 36.4815 116.313H61.3244H62.4899C63.1336 116.313 63.6555 116.829 63.6555 117.466V116.313V114.011V112.859C63.659 113.495 63.1371 114.011 62.4934 114.011Z" fill="white"/>
<path d="M32.9915 91.7459C32.9915 92.3825 32.4696 92.8986 31.8259 92.8986H32.9915H35.3192H36.4848C35.8411 92.8986 35.3192 92.3825 35.3192 91.7459V90.5933H32.9915V91.7459Z" fill="#FFECCC"/>
<path d="M35.3227 49.1386C35.3227 48.5021 35.8446 47.986 36.4883 47.986H35.3227H32.9949H31.8293C32.473 47.986 32.9949 48.5021 32.9949 49.1386V50.2913H35.3227V49.1386Z" fill="#FFC06E"/>
<path d="M53.9548 102.109C53.9548 101.473 54.4767 100.957 55.1204 100.957H57.8378H60.1655V103.259V105.946C60.1655 106.582 59.6436 107.099 58.9999 107.099C58.3563 107.099 57.8344 106.582 57.8344 105.946V103.259H55.1169C54.4733 103.262 53.9548 102.746 53.9548 102.109Z" fill="white"/>
<path d="M13.9732 102.109C13.9732 101.473 13.4513 100.957 12.8076 100.957H10.0902H7.76245V103.259V105.946C7.76245 106.582 8.28435 107.099 8.92804 107.099C9.57173 107.099 10.0937 106.582 10.0937 105.946V103.259H12.811C13.4513 103.262 13.9732 102.746 13.9732 102.109Z" fill="white"/>
<path d="M16.4227 111.324H13.4652C12.8876 111.324 12.4214 110.863 12.4214 110.292V110.054C12.4214 109.483 12.8876 109.022 13.4652 109.022H16.4227C17.0003 109.022 17.4665 109.483 17.4665 110.054V110.292C17.4665 110.859 17.0003 111.324 16.4227 111.324Z" fill="white"/>
<path d="M29.4982 105.949C27.8003 105.949 26.8156 106.675 26.252 107.422C25.9005 107.229 25.4448 107.102 24.8394 107.102C22.5116 107.102 22.2542 109.022 22.2542 109.022H20.2257C19.662 109.022 19.1471 109.397 19.0392 109.944C18.8965 110.681 19.4637 111.324 20.1804 111.324H32.2122C32.8558 111.324 33.3777 110.808 33.3777 110.171V109.352C33.3777 109.039 33.3291 108.733 33.2282 108.437C32.922 107.546 32.0173 105.949 29.4982 105.949Z" fill="white"/>
<path d="M49.6821 139.728H52.7892L52.0133 128.211H50.0718L49.6821 139.728Z" fill="#FFC06E"/>
<path d="M49.6822 139.728H47.3545L48.1304 128.211H50.0719L49.6822 139.728Z" fill="#FFD898"/>
<path d="M52.1386 130.066L52.2743 132.089L49.6821 132.051L49.7761 130.066H52.1386Z" fill="#FF6D89"/>
<path d="M48.005 130.066L47.8728 132.065H49.943L50.0092 130.066H48.005Z" fill="#FFA7A5"/>
<path d="M50.1936 125.909H49.9535C49.3759 125.909 48.9097 126.37 48.9097 126.942V128.211H51.2374V126.942C51.2374 126.37 50.7677 125.909 50.1936 125.909Z" fill="#C4F4F5"/>
<path d="M63.6588 161.222H27.5602L19.7942 138.193L63.6588 138.575V161.222Z" fill="#78E6E0"/>
<path d="M186.704 160.338V178.88H191.749L188.781 160.18C188.701 159.677 188.263 159.306 187.748 159.306C187.17 159.306 186.704 159.767 186.704 160.338Z" fill="#FF899C"/>
<path d="M20.1838 138.193V140.113H34.9329H39.5918H39.7867C40.3225 140.113 40.7575 140.543 40.7575 141.073C40.7575 141.603 40.3225 142.033 39.7867 142.033H39.5918H35.1278C34.592 142.033 34.157 142.463 34.157 142.993C34.157 143.523 34.592 143.953 35.1278 143.953H43.4748V142.033H48.9097V140.113V138.193H20.1838Z" fill="#C4F4F5"/>
<path d="M52.6815 138.11L52.7894 139.728H49.6822L49.5779 138.11H52.6815Z" fill="#FF6D89"/>
<path d="M47.4623 138.11L47.3545 139.728H49.6822L49.7379 138.11H47.4623Z" fill="#FFA7A5"/>
<path d="M52.41 134.099L52.5457 136.101H49.6821V134.099H52.41Z" fill="#FF6D89"/>
<path d="M47.7336 134.099L47.5979 136.101H49.8073L49.8734 134.099H47.7336Z" fill="#FFA7A5"/>
<path d="M63.6588 149.324H39.2822C38.9795 149.324 38.6803 149.235 38.4298 149.069C37.9635 148.763 37.7443 148.199 37.88 147.662C37.9914 147.222 38.1897 146.812 38.468 146.454C39.7032 144.848 43.4018 140.357 46.582 139.731C49.7239 139.108 57.9526 135.974 60.9727 134.8C61.6791 134.525 62.4793 134.635 63.0882 135.086C63.4466 135.354 63.6588 135.771 63.6588 136.215V149.324Z" fill="#FFC06E"/>
<path d="M63.6589 149.324H41.3038C41.0255 149.324 40.7541 149.248 40.521 149.104C40.093 148.839 39.8912 148.354 40.0165 147.889C40.1174 147.511 40.3017 147.156 40.5557 146.847C41.69 145.46 45.0824 141.586 47.9947 141.042C50.8756 140.505 58.4224 137.797 61.192 136.786C61.8392 136.548 62.5733 136.641 63.13 137.03C63.4606 137.261 63.6554 137.622 63.6554 138.004L63.6589 149.324Z" fill="#DEA15E"/>
<path d="M47.7859 149.324H63.6589V145.553V145.102C63.2692 145.102 62.3576 145.154 61.8809 145.147C59.7759 145.102 59.0417 145.945 57.0585 146.64C55.2144 147.287 49.9049 147.39 47.7372 147.652C47.2953 147.707 46.9683 148.079 46.9683 148.519C46.9683 148.963 47.3336 149.324 47.7859 149.324Z" fill="#9B9268"/>
<path d="M4.65894 136.273V134.57C4.65894 132.743 6.13417 131.25 7.98173 131.208L19.4881 130.95C20.9564 130.916 22.3968 131.322 23.6285 132.11L26.0154 133.637C27.529 134.608 29.2965 135.12 31.0988 135.12H32.4453C33.2873 135.12 34.0876 135.482 34.6443 136.108L36.4884 138.193L4.65894 138.578V136.273Z" fill="#FFD898"/>
<path d="M4.65894 155.081V175.701C4.65894 177.243 5.92195 178.495 7.4842 178.495H43.475L41.5335 173.506L4.65894 155.081Z" fill="#3F4F6B"/>
<path d="M28.336 173.891C28.9797 173.891 29.5016 173.375 29.5016 172.738C29.5016 172.102 28.9797 171.586 28.336 171.586C27.6923 171.586 27.1704 172.102 27.1704 172.738C27.1704 173.375 27.6923 173.891 28.336 173.891Z" fill="#518774"/>
<path d="M9.70407 119.768C10.2538 119.768 10.7166 120.26 10.7827 120.91L12.411 137.092C12.5119 138.083 11.8613 138.957 11.0227 138.957H8.38188C7.54335 138.957 6.89618 138.083 6.99361 137.092L8.62194 120.91C8.68805 120.26 9.15432 119.768 9.70407 119.768Z" fill="#518774"/>
<path d="M40.6359 155.848H42.8174C43.395 155.848 43.8613 155.387 43.8613 154.816V154.578C43.8613 154.007 43.395 153.546 42.8174 153.546H40.6359C40.0583 153.546 39.592 154.007 39.592 154.578V154.816C39.592 155.387 40.0583 155.848 40.6359 155.848Z" fill="#4EC2BB"/>
<path d="M39.9781 149.324C39.3344 149.324 38.8125 149.84 38.8125 150.477C38.8125 151.113 39.3344 151.629 39.9781 151.629H53.5651H57.8343C58.478 151.629 58.9999 152.146 58.9999 152.782C58.9999 153.419 58.478 153.935 57.8343 153.935H53.5651C52.9214 153.935 52.3995 154.451 52.3995 155.087C52.3995 155.724 52.9214 156.24 53.5651 156.24H63.6588V153.938V151.636V149.334H39.9781V149.324Z" fill="#4EC2BB"/>
<path d="M40.173 161.222H37.0694H36.8746V161.202C36.4327 161.112 36.0987 160.727 36.0987 160.262C36.0987 159.798 36.4327 159.412 36.8746 159.323V159.302H37.0694H39.9817C40.6253 159.302 41.1473 158.786 41.1473 158.15C41.1473 157.513 40.6253 156.997 39.9817 156.997H29.8879V159.299H32.9916L34.1572 161.219L38.0402 170.815L63.6589 171.582V161.219H40.173V161.222Z" fill="#4EC2BB"/>
<path d="M58.5999 167.199L56.7419 159.106C56.6654 158.779 56.1365 158.535 55.5067 158.535C54.8769 158.535 54.3481 158.779 54.2715 159.106L52.4136 167.199C52.2987 167.694 53.0433 168.131 54.0001 168.131H54.3446V171.201H56.6723V168.131H57.0168C57.9701 168.131 58.7147 167.694 58.5999 167.199Z" fill="#518774"/>
<path d="M51.6134 166.48L49.7554 155.476C49.6788 155.032 49.1499 154.698 48.5202 154.698C47.8904 154.698 47.3615 155.032 47.285 155.476L45.427 166.48C45.3122 167.154 46.0568 167.749 47.0136 167.749H47.3581V171.204H49.6858V167.749H50.0302C50.9836 167.749 51.7282 167.154 51.6134 166.48Z" fill="#518774"/>
<path d="M63.6588 171.204V173.981H47.918L44.2507 170.051L63.6588 171.204Z" fill="#E4BE6C"/>
<path d="M63.6589 173.506V175.436C63.6589 177.126 62.2741 178.495 60.5657 178.495H49.5778L47.7441 173.506H63.6589Z" fill="#B1B369"/>
<path d="M4.65894 133.909V143.95L35.7125 167.749L37.2643 166.597L22.9014 141.648L21.7497 139.655C20.4902 137.474 18.4825 135.809 16.0922 134.959L7.52247 131.917C6.12723 131.422 4.65894 132.444 4.65894 133.909Z" fill="#E4BE6C"/>
<path d="M4.65894 137.044V152.011L31.6451 167.749L32.9951 166.703L20.5145 144.066L19.5124 142.257C18.4164 140.278 16.6732 138.768 14.5961 137.997L4.65894 133.971V137.044Z" fill="#B1B369"/>
<path d="M4.65894 137.04L12.1814 139.831C13.3504 140.264 14.3525 141.045 15.0519 142.064L20.7094 150.312C21.0712 150.838 20.9633 151.55 20.4588 151.949C19.8952 152.397 19.0636 152.269 18.6635 151.674L13.2287 143.612C12.7068 142.835 11.9413 142.25 11.0506 141.94L4.65894 139.728V137.04Z" fill="#E4BE6C"/>
<path d="M19.0045 148.966L16.6803 125.28C16.5863 124.323 15.9253 123.608 15.1389 123.608C14.3526 123.608 13.6915 124.327 13.5975 125.28L11.2733 148.966C11.1306 150.418 12.0596 151.698 13.2566 151.698H13.9768V158.92H15.9183V151.698H17.0282C18.2216 151.698 19.1472 150.418 19.0045 148.966Z" fill="#3F4F6B"/>
<path d="M25.7126 142.03H29.4078C29.8879 142.03 30.2776 142.415 30.2776 142.89V143.089C30.2776 143.564 29.8879 143.95 29.4078 143.95H25.7126C25.2325 143.95 24.8428 143.564 24.8428 143.089V142.89C24.8428 142.415 25.2325 142.03 25.7126 142.03Z" fill="#C4F4F5"/>
<path d="M39.2022 170.437C39.8459 170.437 40.3678 169.921 40.3678 169.284C40.3678 168.647 39.8459 168.131 39.2022 168.131C38.5585 168.131 38.0366 168.647 38.0366 169.284C38.0366 169.921 38.5585 170.437 39.2022 170.437Z" fill="#B1B369"/>
<path d="M28.3223 155.989L26.4643 137.216C26.3878 136.459 25.8589 135.891 25.2292 135.891C24.5994 135.891 24.0705 136.462 23.994 137.216L22.136 155.989C22.0212 157.142 22.7657 158.153 23.7226 158.153H24.067V165.062H26.0085V158.153H26.7392C27.696 158.153 28.4371 157.138 28.3223 155.989Z" fill="#3F4F6B"/>
<path d="M4.65894 149.709V155.084L10.8 159.24C11.4855 159.705 11.6629 160.624 11.2036 161.305C10.8105 161.886 10.0033 162.024 9.43961 161.604L8.17311 160.665C7.74863 160.348 7.13973 160.465 6.86486 160.919C6.49604 161.528 6.66304 162.313 7.2441 162.722L9.04644 163.995C10.7583 165.207 12.7137 166.036 14.7805 166.432L31.5337 169.645C35.4446 170.395 38.8787 172.683 41.0499 175.987L42.6991 178.495H52.4031L45.2182 170.34C43.0679 167.897 40.2461 166.122 37.0938 165.234L20.3614 160.507C18.4512 159.966 16.6663 159.065 15.104 157.847L4.65894 149.709Z" fill="#518774"/>
<path d="M15.139 163.527C15.7828 163.527 16.3046 163.011 16.3046 162.375C16.3046 161.738 15.7828 161.222 15.139 161.222C14.4953 161.222 13.9734 161.738 13.9734 162.375C13.9734 163.011 14.4953 163.527 15.139 163.527Z" fill="#3F4F6B"/>
<path d="M162.181 213.574L161.973 209.834C161.865 207.89 162.86 206.045 164.558 205.058L164.76 204.941L164.895 212.043L162.181 213.574Z" fill="#452C50"/>
<path d="M162.181 213.574L164.509 211.654L171.109 218.563L170.72 219.716L169.753 220.263C168.754 220.827 167.484 220.569 166.792 219.657L162.181 213.574Z" fill="#3F4F6B"/>
<path d="M164.512 211.654L170.723 219.716L171.447 219.141C172.23 218.522 172.762 217.641 172.94 216.664L173.792 212.019C174.063 210.549 174.891 209.242 176.106 208.358L185.855 201.287L181.586 195.53L172.658 200.519L166.057 206.276L164.512 211.654Z" fill="#FFC06E"/>
<path d="M164.512 205.13V211.657L165.668 211.086C166.84 210.505 167.529 209.269 167.4 207.979C167.293 206.926 167.748 205.897 168.601 205.257L179.599 197.027C180.695 196.208 182.257 196.432 183.068 197.529L185.862 201.294L187.845 199.855L181.593 192.079L164.512 205.13Z" fill="#FFA35F"/>
<path d="M177.275 207.618L175.702 208.757L173.437 205.512L174.992 204.363L177.275 207.618L175.702 208.757L177.275 207.618Z" fill="#D36D69"/>
<path d="M180.378 205.316L178.809 206.455L176.544 203.21L178.096 202.057L180.378 205.316L178.809 206.455L180.378 205.316Z" fill="#D36D69"/>
<path d="M183.486 203.014L181.913 204.153L179.648 200.908L181.203 199.756L183.486 203.014L181.913 204.153L183.486 203.014Z" fill="#D36D69"/>
<path d="M174.408 205.897C174.944 205.897 175.378 205.468 175.378 204.937C175.378 204.407 174.944 203.977 174.408 203.977C173.872 203.977 173.437 204.407 173.437 204.937C173.437 205.468 173.872 205.897 174.408 205.897Z" fill="white"/>
<path d="M177.515 203.596C178.051 203.596 178.486 203.166 178.486 202.636C178.486 202.105 178.051 201.676 177.515 201.676C176.979 201.676 176.544 202.105 176.544 202.636C176.544 203.166 176.979 203.596 177.515 203.596Z" fill="white"/>
<path d="M180.619 201.29C181.155 201.29 181.589 200.86 181.589 200.33C181.589 199.8 181.155 199.37 180.619 199.37C180.083 199.37 179.648 199.8 179.648 200.33C179.648 200.86 180.083 201.29 180.619 201.29Z" fill="white"/>
<path d="M219.751 220.459L215.993 220.954C214.041 221.212 212.107 220.369 210.979 218.773L210.844 218.58L217.994 217.899L219.751 220.459Z" fill="#452C50"/>
<path d="M219.751 220.459L217.636 218.312L224.094 211.272L225.283 211.564L225.91 212.476C226.557 213.419 226.393 214.689 225.527 215.442L219.751 220.459Z" fill="#3F4F6B"/>
<path d="M217.636 218.308L225.283 211.564L224.65 210.893C223.965 210.167 223.036 209.713 222.037 209.61L217.288 209.125C215.788 208.973 214.403 208.254 213.419 207.126L205.538 198.059L200.061 202.711L205.781 211.127L212.097 217.19L217.636 218.308Z" fill="#FFC06E"/>
<path d="M211.06 218.814L217.639 218.312L216.975 217.218C216.3 216.106 214.998 215.521 213.707 215.748C212.653 215.934 211.582 215.566 210.872 214.775L201.728 204.566C200.816 203.547 200.924 201.992 201.965 201.108L205.545 198.063L203.944 196.218L196.589 202.983L211.06 218.814Z" fill="#FFA35F"/>
<path d="M212.584 206.035L213.854 207.497L210.757 209.982L209.477 208.54L212.584 206.035L213.854 207.497L212.584 206.035Z" fill="#D36D69"/>
<path d="M210.023 203.151L211.293 204.614L208.196 207.095L206.916 205.653L210.023 203.151L211.293 204.614L210.023 203.151Z" fill="#D36D69"/>
<path d="M207.462 200.268L208.732 201.727L205.635 204.211L204.355 202.77L207.462 200.268L208.732 201.727L207.462 200.268Z" fill="#D36D69"/>
<path d="M210.103 210.03C210.639 210.03 211.074 209.6 211.074 209.07C211.074 208.54 210.639 208.11 210.103 208.11C209.567 208.11 209.132 208.54 209.132 209.07C209.132 209.6 209.567 210.03 210.103 210.03Z" fill="white"/>
<path d="M207.542 207.143C208.078 207.143 208.513 206.713 208.513 206.183C208.513 205.653 208.078 205.223 207.542 205.223C207.006 205.223 206.571 205.653 206.571 206.183C206.571 206.713 207.006 207.143 207.542 207.143Z" fill="white"/>
<path d="M204.978 204.259C205.514 204.259 205.949 203.83 205.949 203.299C205.949 202.769 205.514 202.339 204.978 202.339C204.442 202.339 204.007 202.769 204.007 203.299C204.007 203.83 204.442 204.259 204.978 204.259Z" fill="white"/>
<path d="M179.328 149.324V154.313C179.328 154.313 175.834 155.08 171.951 152.779V154.699C171.951 154.699 174.669 157 179.328 156.618V168.606C179.328 170.464 177.804 171.971 175.925 171.971H172.341V175.04H181.655L181.836 147.666L179.328 149.324Z" fill="#FFDDC7"/>
<path d="M183.597 146.637H181.269V173.506H183.597V146.637Z" fill="#FF6D89"/>
<path d="M13.9732 174.659C13.9732 175.295 13.4513 175.811 12.8076 175.811H10.0902H7.76245V173.509V170.822C7.76245 170.186 8.28435 169.669 8.92804 169.669C9.57173 169.669 10.0937 170.186 10.0937 170.822V173.509H12.811C13.4513 173.506 13.9732 174.022 13.9732 174.659Z" fill="white"/>
<path d="M53.9548 174.659C53.9548 175.295 54.4767 175.811 55.1204 175.811H57.8378H60.1655V173.509V170.822C60.1655 170.186 59.6436 169.669 58.9999 169.669C58.3563 169.669 57.8344 170.186 57.8344 170.822V173.509H55.1169C54.4733 173.506 53.9548 174.022 53.9548 174.659Z" fill="white"/>
<path d="M4.65894 133.909V143.95L35.7125 167.749L37.2643 166.597L22.9014 141.648L21.7497 139.655C20.4902 137.474 18.4825 135.809 16.0922 134.959L7.52247 131.917C6.12723 131.422 4.65894 132.444 4.65894 133.909Z" fill="#E4BE6C"/>
<path d="M175.448 119C177.593 119 179.331 117.281 179.331 115.16C179.331 113.04 177.593 111.321 175.448 111.321C173.304 111.321 171.565 113.04 171.565 115.16C171.565 117.281 173.304 119 175.448 119Z" fill="#FFD898"/>
<path d="M171.802 113.846C171.802 113.774 171.955 113.626 171.955 113.626C172.345 113.24 172.974 113.481 173.312 113.815C173.441 113.942 173.531 114.101 173.576 114.276L173.83 115.277C173.875 115.453 173.966 115.611 174.095 115.738L174.335 115.976C174.735 116.372 174.728 117.015 174.317 117.4L173.301 118.357C173.294 118.357 170.789 116.695 171.802 113.846Z" fill="#FF8167"/>
<path d="M159.92 196.538C159.92 196.538 163.023 198.84 166.13 198.458C169.237 198.076 179.717 194.618 179.717 194.618L185.051 201.541C185.542 202.178 186.453 202.319 187.115 201.858L189.811 199.993L194.755 204.339C195.914 205.357 197.668 205.343 198.809 204.301L205.409 198.276C206.216 197.54 206.244 196.284 205.465 195.516L201.457 191.553L206.14 188.36C209.616 185.989 210.176 181.127 207.33 178.044C205.628 176.2 203.036 175.44 200.59 176.069L189.616 178.887L187.045 178.436L174.408 179.985L165.744 183.109L159.92 196.538Z" fill="#46294E"/>
<path d="M171.607 136.184C171.607 136.184 166.906 150.091 178.166 151.244C178.166 151.244 182.825 152.011 181.659 145.869C181.659 145.869 179.331 143.182 179.331 137.808C179.328 132.433 171.607 136.184 171.607 136.184Z" fill="#BC4F5C"/>
<path d="M194.512 169.387L192.894 167.729L217.667 144.097C218.081 143.702 218.742 143.712 219.143 144.125L219.31 144.297C219.71 144.706 219.699 145.36 219.282 145.756L194.512 169.387Z" fill="#FFD898"/>
<path d="M186.704 145.87L183.597 165.829V145.87H186.704Z" fill="#FF899C"/>
<path d="M167.296 131.284C172.731 140.113 178.166 139.728 178.166 139.728H178.58C179.387 139.728 180.156 139.562 180.855 139.267L167.943 130.885C167.519 131.129 167.296 131.284 167.296 131.284Z" fill="#9F3F4C"/>
<path d="M177.386 132.051C181.889 132.051 185.539 128.442 185.539 123.99C185.539 119.537 181.889 115.928 177.386 115.928C172.884 115.928 169.234 119.537 169.234 123.99C169.234 128.442 172.884 132.051 177.386 132.051Z" fill="#FFC06E"/>
<path d="M173.893 180.033L188.642 178.498L192.869 174.641C193.364 174.191 193.524 173.485 193.277 172.869L192.915 171.589L183.211 173.891L174.283 176.578L173.893 180.033Z" fill="#BC4F5C"/>
<path d="M153.65 182.397C152.982 185.043 151.368 189.547 147.558 194.027C146.274 195.537 146.354 197.763 147.728 199.191L150.028 201.579C151.601 203.21 154.238 203.183 155.776 201.517L164.968 191.546C164.968 191.546 169.982 186.326 171.551 181.069C172.752 177.05 161.931 178.567 156.757 179.507C155.233 179.782 154.022 180.914 153.65 182.397Z" fill="#FF899C"/>
<path d="M178.942 137.426C178.942 137.426 179.258 142.773 180.758 146.062C181.033 146.664 181.649 147.046 182.317 147.032C184.209 146.998 188.124 146.651 189.362 144.445C189.401 144.376 189.394 144.29 189.352 144.228C189.001 143.709 188.58 143.237 188.079 142.859C187.223 142.215 185.608 140.368 184.773 135.31C183.601 128.211 184.773 135.31 184.773 135.31L178.942 137.426Z" fill="#46294E"/>
<path d="M172.731 124.757L171.349 127.234C171.21 127.981 170.184 128.105 169.864 127.417C169.297 126.199 168.89 124.237 169.679 121.378C171.182 115.931 169.679 121.378 169.679 121.378C169.679 121.378 170.803 117.325 175.184 116.224C175.379 116.175 175.58 116.169 175.779 116.196L175.942 116.22C176.328 116.275 176.614 116.602 176.614 116.988C176.614 117.28 176.447 117.548 176.179 117.683C176.179 117.679 172.341 119 172.731 124.757Z" fill="#FFA35F"/>
<path d="M185.539 126.677V132.461C185.539 135.626 182.943 138.193 179.742 138.193H179.328C179.328 138.193 173.893 138.579 168.458 129.749C163.023 120.92 168.458 129.749 168.458 129.749C168.458 129.749 175.059 125.142 185.539 126.677Z" fill="#D36D69"/>
<path d="M176.997 131.091C177.48 130.252 178.364 129.718 179.338 129.67L185.535 129.364V127.062H175.055L171.562 134.357C171.562 134.357 173.295 136.149 174.665 136.658L176.997 131.091Z" fill="#BC4F5C"/>
<path d="M168.462 125.524V129.746C170.494 128.49 172.832 127.795 175.229 127.733L185.128 127.482C186.008 127.461 186.708 126.749 186.708 125.879V124.437C186.708 123.553 185.98 122.833 185.086 122.833H179.317C176.51 122.833 173.002 123.312 170.407 124.368L168.462 125.524Z" fill="#FF8167"/>
<path d="M172.707 123.632C172.707 123.632 175.834 122.582 184.982 122.785C185.939 122.806 186.704 123.577 186.704 124.523V125.524C186.704 125.524 183.11 125.201 175.017 125.741C173.775 125.823 172.72 124.863 172.707 123.632Z" fill="#FFA35F"/>
<path d="M172.341 174.273C172.341 174.273 172.341 158.535 172.341 153.928C172.341 149.321 166.906 134.735 166.906 134.735C154.099 137.804 154.485 142.03 154.485 142.03C145.557 146.637 148.274 157 148.274 157L147.885 175.04C147.885 179.187 151.447 182.459 155.626 182.156L172.693 180.914C173.587 180.848 174.276 180.112 174.276 179.228V174.273H172.341Z" fill="#FFA9AF"/>
<path d="M154.485 142.03C154.485 142.03 157.202 140.11 159.92 140.877C160.793 141.125 161.826 141.964 162.828 142.993C165.591 145.832 167.045 149.479 168.462 153.161C170.062 157.331 170.403 172.353 170.403 172.353H170.793H172.345C172.345 172.353 173.896 154.695 168.462 146.637C168.462 146.637 165.744 142.797 163.027 139.728C160.309 136.659 156.371 139.091 156.371 139.091C156.371 139.091 154.485 140.113 154.485 142.03Z" fill="#FF6D89"/>
<path d="M160.981 153.931C161.666 153.931 162.206 154.506 162.157 155.18L161.454 164.694C161.249 167.45 163.326 169.852 166.11 170.082L170.4 170.437L170.441 172.511L157.978 172.357L159.808 154.977C159.875 154.382 160.379 153.931 160.981 153.931Z" fill="#FF899C"/>
<path d="M176.224 127.829C176.224 127.829 171.078 133.648 170.445 145.986C170.414 146.595 169.965 147.108 169.363 147.228C168.806 147.339 168.242 147.094 167.943 146.616C166.872 144.892 164.492 140.543 164.192 135.506C164.189 135.506 166.13 127.444 176.224 127.829Z" fill="#46294E"/>
<path d="M159.92 155.081H159.269C158.319 155.081 157.526 155.8 157.442 156.736L156.145 171.503C156.078 172.26 155.588 172.914 154.875 173.196L154.701 173.265C154.335 173.41 154.099 173.757 154.099 174.146V174.173C154.099 174.59 154.523 174.872 154.913 174.717L155.765 174.38C155.946 174.308 156.138 174.273 156.332 174.273L174.408 174.37V173.695C174.408 172.952 173.799 172.353 173.051 172.353H158.371L159.92 155.081Z" fill="#FFC8C9"/>
<path d="M174.283 174.762V176.578H180.493C180.493 176.578 181.659 175.426 182.435 175.426C183.211 175.426 184.376 174.659 184.376 174.659L186.704 171.589H183.987C183.987 171.589 182.821 171.975 182.435 172.742C182.045 173.509 178.942 174.662 178.552 174.662C178.162 174.662 174.283 174.762 174.283 174.762Z" fill="#D36D69"/>
<path d="M190.256 174.659H185.02C184.425 174.659 184.077 173.994 184.422 173.513L188.245 168.207C188.451 167.921 188.785 167.749 189.143 167.749H194.738C195.11 167.749 195.329 168.166 195.114 168.469L190.883 174.342C190.737 174.538 190.503 174.659 190.256 174.659Z" fill="#46294E"/>
<path d="M190.073 172.441C190.479 171.814 190.502 171.111 190.123 170.871C189.745 170.632 189.108 170.945 188.702 171.573C188.295 172.2 188.273 172.903 188.651 173.143C189.03 173.383 189.666 173.069 190.073 172.441Z" fill="#3F4F6B"/>
<path d="M153.027 184.482L164.154 184.052C165.932 183.983 166.934 186.047 165.769 187.376L153.198 201.682C152.411 202.577 151.019 202.608 150.191 201.751L147.638 199.102C146.235 197.646 146.176 195.379 147.498 193.851C147.498 193.851 150.216 191.931 152.933 184.64" fill="#FFA9AF"/>
<path d="M203.134 190.4C202.42 189.55 202.546 188.291 203.408 187.592L205.34 186.03C205.719 185.724 205.962 185.524 206.227 185.122C206.394 184.864 206.519 184.582 206.617 184.293L206.888 183.487C207.664 181.186 206.039 178.103 203.784 177.731H203.008C201.843 177.731 200.489 178.268 199.372 178.567L190.977 180.804L189.425 178.884L200.399 176.114L200.667 176.038C200.959 175.956 201.258 175.894 201.561 175.87C205.099 175.605 206.884 177.139 207.862 178.443C209.79 181.01 209.783 184.616 207.667 186.942C207.451 187.303 206.662 187.974 206.502 188.095L203.134 190.4Z" fill="#3F4F6B"/>
<path d="M176.52 179.72C177.035 180.818 178.218 181.447 179.425 181.268L186.311 180.26C187.285 180.119 188.266 180.46 188.934 181.175L200.893 194.016C201.199 194.347 201.175 194.863 200.834 195.159L195.949 199.422C195.357 199.938 195.33 200.843 195.886 201.397C196.398 201.903 197.219 201.927 197.762 201.455L202.734 197.117C203.092 196.803 203.645 196.855 203.938 197.227L204.23 197.598C204.665 198.145 205.476 198.211 205.994 197.739C206.485 197.292 206.512 196.532 206.053 196.05L190.657 179.851C189.397 178.526 187.553 177.91 185.74 178.206L176.52 179.72Z" fill="#3F4F6B" stroke="#212326" stroke-width="0.1" stroke-miterlimit="10"/>
<path d="M241.045 71.4005H238.717V80.2296H241.045V71.4005Z" fill="#FFECCC"/>
<path d="M241.045 93.2805H238.717V78.96C238.717 78.3888 239.184 77.9277 239.761 77.9277H240.001C240.579 77.9277 241.045 78.3888 241.045 78.96V93.2805Z" fill="#FFD898"/>
<path d="M239.879 153.931C256.815 153.931 270.543 140.355 270.543 123.608C270.543 106.86 256.815 93.2839 239.879 93.2839C222.944 93.2839 209.216 106.86 209.216 123.608C209.216 140.355 222.944 153.931 239.879 153.931Z" fill="#FFD898"/>
<path d="M239.88 152.011C255.743 152.011 268.602 139.295 268.602 123.608C268.602 107.921 255.743 95.204 239.88 95.204C224.017 95.204 211.157 107.921 211.157 123.608C211.157 139.295 224.017 152.011 239.88 152.011Z" fill="white"/>
<path d="M255.276 107.284C256.546 106.414 256.612 104.566 255.391 103.634C250.996 100.272 245.481 98.2731 239.497 98.2731C232.99 98.2731 227.044 100.637 222.483 104.542C221.821 105.106 222.166 106.18 223.032 106.283C224.946 106.514 227.59 108.262 231.348 109.789C236.376 111.837 241.57 111.84 245.46 111.936C247.378 111.981 249.256 111.407 250.833 110.33L255.276 107.284Z" fill="#C4F4F5"/>
<path d="M262.687 112.054C264.628 115.79 265.655 120.067 265.481 124.595C264.98 137.656 254.295 148.312 241.09 148.911C226.39 149.579 214.261 137.994 214.261 123.604C214.261 119.575 215.211 115.766 216.905 112.384C216.905 112.384 220.085 111.321 223.189 113.626C226.292 115.928 230.175 121.302 232.503 121.302C237.548 121.302 244.535 125.91 246.476 130.131C248.418 134.353 252.297 119.382 252.297 119.382C252.297 119.382 252.84 118.233 253.613 116.86C255.046 114.314 257.315 112.329 260.046 111.238C261.006 110.739 262.193 111.104 262.687 112.054Z" fill="#FFD898"/>
<path d="M263.15 112.996C264.656 116.224 265.498 119.819 265.498 123.604C265.498 128.893 263.86 133.806 261.055 137.87L255.018 143.182L244.539 123.99C244.539 123.99 244.928 119.768 250.749 119.382C256.57 118.997 263.15 112.996 263.15 112.996Z" fill="#DEA15E"/>
<path d="M256.688 131.284H254.903C254.002 131.284 253.327 130.173 253.491 128.972L254.381 122.51C254.51 121.588 255.102 120.917 255.794 120.917C256.487 120.917 257.078 121.585 257.207 122.51L258.098 128.972C258.265 130.173 257.586 131.284 256.688 131.284Z" fill="#9B9268"/>
<path d="M249.197 137.04H261.577C261.577 137.04 259.291 140.88 256.184 143.182C253.077 145.484 249.197 137.04 249.197 137.04Z" fill="#518774"/>
<path d="M238.328 118.615H241.435L238.328 122.837H235.224L238.328 118.615Z" fill="#BC4F5C"/>
<path d="M243.373 127.062H253.856L256.96 130.899H246.48L243.373 127.062Z" fill="#BC4F5C"/>
<path d="M238.3 128.205L237.26 121.743C237.11 120.821 236.418 120.15 235.614 120.15C234.81 120.15 234.114 120.817 233.968 121.743L232.928 128.205C232.733 129.405 233.526 130.517 234.573 130.517H234.448V132.819H236.776V130.517H236.651C237.701 130.517 238.491 129.405 238.3 128.205Z" fill="#518774"/>
<path d="M244.538 134.099L238.328 133.971V122.837L241.435 118.615L244.538 122.837V134.099Z" fill="white"/>
<path d="M231.021 123.222H231.665C233.202 123.222 234.448 124.454 234.448 125.975V132.819H228.237V125.975C228.237 124.454 229.483 123.222 231.021 123.222Z" fill="white"/>
<path d="M241.529 130.517H241.731C242.211 130.517 242.6 130.902 242.6 131.377V134.739H240.659V131.377C240.659 130.902 241.045 130.517 241.529 130.517Z" fill="#7ACCCB"/>
<path d="M248.651 127.062C248.651 127.062 248.421 125.909 247.256 125.142C246.09 124.375 244.928 125.527 244.928 125.527H246.094C246.094 125.527 245.704 123.993 244.542 123.993V127.062H248.651Z" fill="#9B9268"/>
<path d="M231.435 129.364H231.637C232.117 129.364 232.507 129.749 232.507 130.224V133.586H230.565V130.224C230.565 129.749 230.955 129.364 231.435 129.364Z" fill="#7ACCCB"/>
<path d="M256.96 130.899H246.48V137.04H256.96V130.899Z" fill="white"/>
<path d="M249.677 132.819H249.879C250.359 132.819 250.749 133.204 250.749 133.679V137.04H248.808V133.679C248.808 133.204 249.197 132.819 249.677 132.819Z" fill="#7ACCCB"/>
<path d="M221.244 127.444H219.313C218.339 127.444 217.604 126.498 217.782 125.476L218.749 119.971C218.888 119.186 219.529 118.615 220.28 118.615C221.028 118.615 221.672 119.186 221.811 119.971L222.778 125.476C222.956 126.498 222.218 127.444 221.244 127.444Z" fill="#9B9268"/>
<path d="M214.431 120.673C214.32 121.636 214.261 122.613 214.261 123.604C214.261 137.594 225.729 148.939 239.879 148.939C246.069 148.939 251.748 146.768 256.173 143.155C256.173 143.155 250.359 136.273 246.476 134.739C242.593 133.204 236.772 132.819 236.772 132.819C236.772 132.819 224.741 130.517 222.799 126.291C220.861 122.07 214.431 120.673 214.431 120.673Z" fill="#B1B369"/>
<path d="M214.431 126.047C214.32 127.011 214.261 122.613 214.261 123.608C214.261 137.598 225.729 148.942 239.879 148.942C246.069 148.942 248.032 148.557 252.687 145.488C252.687 145.488 250.359 141.648 246.476 140.113C242.593 138.579 236.772 138.193 236.772 138.193C236.772 138.193 224.741 135.891 222.799 131.666C220.861 127.444 214.431 126.047 214.431 126.047Z" fill="#518774"/>
<path d="M220.426 140.089C220.426 140.089 223.579 138.193 227.072 139.342C230.565 140.495 230.955 143.564 230.955 143.564L227.851 142.797C227.851 142.797 230.955 140.11 233.286 140.877C235.617 141.644 236.115 147.762 231.595 147.583C227.075 147.404 231.595 147.583 231.595 147.583C231.595 147.583 224.65 145.439 220.426 140.089Z" fill="#3F4F6B"/>
<path d="M239.493 141.648C240.137 141.648 240.659 141.132 240.659 140.495C240.659 139.858 240.137 139.342 239.493 139.342C238.85 139.342 238.328 139.858 238.328 140.495C238.328 141.132 238.85 141.648 239.493 141.648Z" fill="#B1B369"/>
<path d="M244.928 145.488C245.572 145.488 246.094 144.972 246.094 144.335C246.094 143.698 245.572 143.182 244.928 143.182C244.284 143.182 243.762 143.698 243.762 144.335C243.762 144.972 244.284 145.488 244.928 145.488Z" fill="#3F4F6B"/>
<path d="M221.251 135.506C221.895 135.506 222.417 134.99 222.417 134.353C222.417 133.717 221.895 133.2 221.251 133.2C220.607 133.2 220.085 133.717 220.085 134.353C220.085 134.99 220.607 135.506 221.251 135.506Z" fill="#3F4F6B"/>
<path d="M253.947 132.819H254.149C254.629 132.819 255.018 133.204 255.018 133.679V137.04H253.077V133.679C253.077 133.204 253.467 132.819 253.947 132.819Z" fill="#7ACCCB"/>
<path d="M231.536 127.444C232.072 127.444 232.507 127.014 232.507 126.484C232.507 125.954 232.072 125.524 231.536 125.524C231 125.524 230.565 125.954 230.565 126.484C230.565 127.014 231 127.444 231.536 127.444Z" fill="#7ACCCB"/>
<path d="M241.626 124.375C242.162 124.375 242.597 123.945 242.597 123.415C242.597 122.885 242.162 122.455 241.626 122.455C241.09 122.455 240.656 122.885 240.656 123.415C240.656 123.945 241.09 124.375 241.626 124.375Z" fill="#7ACCCB"/>
<path d="M241.626 128.597C242.162 128.597 242.597 128.167 242.597 127.637C242.597 127.107 242.162 126.677 241.626 126.677C241.09 126.677 240.656 127.107 240.656 127.637C240.656 128.167 241.09 128.597 241.626 128.597Z" fill="#7ACCCB"/>
<path d="M228.238 126.291H222.027C222.027 124.595 223.419 123.222 225.131 123.222H231.341C229.626 123.222 228.238 124.598 228.238 126.291Z" fill="#BC4F5C"/>
<path d="M245.558 113.24H233.432C232.28 113.24 231.344 112.315 231.344 111.176V107.243C231.344 106.104 232.28 105.179 233.432 105.179H245.558C246.71 105.179 247.645 106.104 247.645 107.243V111.176C247.645 112.318 246.71 113.24 245.558 113.24Z" fill="#FF6D89"/>
<path d="M260.839 130.899H258.512V137.04H260.839V130.899Z" fill="#518774"/>
<path d="M259.677 132.819C262.035 132.819 263.947 130.928 263.947 128.597C263.947 126.265 262.035 124.375 259.677 124.375C257.32 124.375 255.408 126.265 255.408 128.597C255.408 130.928 257.32 132.819 259.677 132.819Z" fill="#518774"/>
<path d="M244.058 108.251H239.977C239.497 108.251 239.107 108.637 239.107 109.112V109.311C239.107 109.786 239.497 110.171 239.977 110.171H244.058C244.538 110.171 244.928 109.786 244.928 109.311V109.112C244.928 108.637 244.538 108.251 244.058 108.251Z" fill="#FFDCD8"/>
<path d="M235.416 110.171C235.952 110.171 236.386 109.741 236.386 109.211C236.386 108.681 235.952 108.251 235.416 108.251C234.879 108.251 234.445 108.681 234.445 109.211C234.445 109.741 234.879 110.171 235.416 110.171Z" fill="#518774"/>
<path d="M290.341 8.06616H202.619V67.1788H290.341V8.06616Z" fill="white"/>
<path d="M254.632 6.14612V8.06608H250.206C249.58 8.06608 248.999 8.39295 248.675 8.92283L228.182 42.7148C227.545 43.7539 227.778 45.1027 228.735 45.87L231.901 48.4161C232.722 49.0768 233.881 49.1422 234.775 48.5813L247.005 40.9118C248.286 40.1101 249.959 40.2821 251.041 41.3281L263.692 53.5498C265.015 54.8263 266.987 55.1807 268.682 54.4478L279.799 49.6204C280.981 49.1077 282.37 49.4243 283.201 50.4049L288.302 56.7773C288.716 57.2968 289.562 57.0044 289.562 56.3437L289.548 6.14612H254.632Z" fill="#E4BE6C"/>
<path d="M252.691 8.06616L231.821 42.505C231.15 43.5991 232.371 44.8653 233.509 44.2598L245.391 37.915C247.485 36.7967 250.039 36.955 251.974 38.3244L262.652 45.8666C264.232 46.9814 266.187 47.4425 268.104 47.15L285.299 44.535L291.12 51.8295V8.06616H252.691Z" fill="#B1B369"/>
<path d="M292.283 56.815H295V54.1794C295 53.5153 294.454 52.9751 293.782 52.9751H293.501C292.829 52.9751 292.283 53.5153 292.283 54.1794V56.815Z" fill="#FFC06E"/>
<path d="M292.283 56.1716V64.7461C292.283 67.1236 290.331 69.0539 287.926 69.0539H258.373V71.7859H288.789C292.22 71.7859 295 69.0367 295 65.6441V56.1716H292.283Z" fill="#FFC06E"/>
<path d="M246.866 8.06616L235.68 26.8356C234.685 28.5079 232.82 29.4816 230.864 29.3508L230.767 29.344C229.146 29.2373 227.545 29.7672 226.313 30.8201L217.469 38.3864C215.092 40.4199 212.354 41.9992 209.397 43.0417L204.811 44.6623C203.93 44.972 202.615 44.3045 202.615 43.3824V8.06616H246.866Z" fill="#E4BE6C"/>
<path d="M222.803 6.91687V18.2611C222.803 20.0504 221.334 21.5024 219.525 21.5024C218.005 21.5024 216.658 22.4623 216.178 23.8903L215.472 25.9891C214.477 28.9448 212.055 31.2088 209.014 32.0277L201.067 34.1713V12.3567C201.067 9.35294 203.53 6.91687 206.568 6.91687H222.803Z" fill="#518774"/>
<path d="M262.395 6.91687L254.361 20.6663C253.446 22.2318 254.587 24.1896 256.417 24.1896H260.262C262.972 24.1896 265.425 25.7758 266.511 28.2291L268.95 33.7412C269.684 35.3997 271.34 36.4732 273.174 36.4732H281.333C283.615 36.4732 285.794 37.4091 287.349 39.0572L290.345 42.2296V6.91687H262.395Z" fill="#518774"/>
<path d="M231.717 32.3683L224.229 44.4007C223.634 45.3573 223.839 46.6028 224.713 47.3219L230.816 52.3524C231.825 53.185 233.262 53.2848 234.379 52.6001L247.451 44.5969C248.244 44.1117 249.27 44.2424 249.911 44.91L263.341 58.8417C264.169 59.7019 265.453 59.9565 266.552 59.4782L279.162 54.004C280.056 53.6152 281.1 53.7941 281.81 54.4547L287.815 60.0219C288.921 61.0472 289.551 62.4821 289.551 63.9822V67.1856H202.619L202.817 49.6032C202.824 48.9013 203.276 48.2785 203.944 48.0411L212.312 45.1061C214.111 44.4764 215.767 43.4992 217.183 42.233L225.029 35.2242C226.379 34.0164 227.924 33.0393 229.598 32.3304L231.118 31.687C231.55 31.5047 231.96 31.9761 231.717 32.3683Z" fill="#C4F4F5"/>
<path d="M287.926 5.80896H204.456C202.048 5.80896 200.1 7.73923 200.1 10.1168V64.7427C200.1 67.1203 202.052 69.0506 204.456 69.0506H258.373H287.926C290.331 69.0506 292.283 67.1203 292.283 64.7427V56.1683V10.1168C292.283 7.73923 290.331 5.80896 287.926 5.80896ZM289.551 63.9135C289.551 65.5031 288.247 66.7934 286.639 66.7934H258.373H205.743C204.136 66.7934 202.831 65.5031 202.831 63.9135V10.9495C202.831 9.35985 204.136 8.06956 205.743 8.06956H286.639C288.247 8.06956 289.551 9.35985 289.551 10.9495V56.1717V63.9135Z" fill="white"/>
<path d="M253.199 54.5132H247.134C246.557 54.5132 246.09 54.0521 246.09 53.481V53.2435C246.09 52.6724 246.557 52.2113 247.134 52.2113H253.199C253.776 52.2113 254.243 52.6724 254.243 53.2435V53.481C254.243 54.0521 253.776 54.5132 253.199 54.5132Z" fill="white"/>
<path d="M217.1 63.7241H211.036C210.458 63.7241 209.992 63.2631 209.992 62.6919V62.4545C209.992 61.8833 210.458 61.4222 211.036 61.4222H217.1C217.678 61.4222 218.144 61.8833 218.144 62.4545V62.6919C218.144 63.2631 217.678 63.7241 217.1 63.7241Z" fill="white"/>
<path d="M283.086 61.0369H277.022C276.444 61.0369 275.978 60.5758 275.978 60.0046V59.7672C275.978 59.1961 276.444 58.735 277.022 58.735H283.086C283.664 58.735 284.13 59.1961 284.13 59.7672V60.0046C284.13 60.5758 283.664 61.0369 283.086 61.0369Z" fill="white"/>
<path d="M234.956 59.5023H231.999C231.421 59.5023 230.955 59.0413 230.955 58.4701V58.2327C230.955 57.6615 231.421 57.2004 231.999 57.2004H234.956C235.534 57.2004 236 57.6615 236 58.2327V58.4701C236 59.0413 235.53 59.5023 234.956 59.5023Z" fill="white"/>
<path d="M261.737 64.1096H256.838C256.26 64.1096 255.794 63.6486 255.794 63.0774V62.84C255.794 62.2688 256.26 61.8077 256.838 61.8077H261.737C262.315 61.8077 262.781 62.2688 262.781 62.84V63.0774C262.781 63.6486 262.315 64.1096 261.737 64.1096Z" fill="white"/>
<path d="M227.969 59.5023H227.729C227.152 59.5023 226.686 59.0413 226.686 58.4701V58.2327C226.686 57.6615 227.152 57.2004 227.729 57.2004H227.969C228.547 57.2004 229.013 57.6615 229.013 58.2327V58.4701C229.013 59.0413 228.544 59.5023 227.969 59.5023Z" fill="white"/>
<path d="M212.831 53.3606H207.542C206.965 53.3606 206.498 52.8995 206.498 52.3284V52.091C206.498 51.5198 206.965 51.0587 207.542 51.0587H212.831C213.408 51.0587 213.875 51.5198 213.875 52.091V52.3284C213.875 52.8995 213.408 53.3606 212.831 53.3606Z" fill="white"/>
<path d="M282.161 24.5647L281.121 18.1029C280.971 17.1807 280.279 16.5098 279.475 16.5098C278.668 16.5098 277.975 17.1773 277.829 18.1029L276.789 24.5647C276.594 25.7655 277.387 26.8769 278.435 26.8769H278.309V28.5628C278.309 28.9035 278.588 29.1787 278.932 29.1787H280.014C280.359 29.1787 280.637 28.9035 280.637 28.5628V26.8769H280.512C281.563 26.8769 282.352 25.7655 282.161 24.5647Z" fill="#3F4F6B"/>
<path d="M251.883 34.5463L250.843 28.0845C250.693 27.1624 250.001 26.4915 249.197 26.4915C248.394 26.4915 247.698 27.159 247.552 28.0845L246.511 34.5463C246.316 35.7472 247.11 36.8585 248.157 36.8585H248.032V38.5617C248.032 38.892 248.303 39.1604 248.637 39.1604H249.751C250.085 39.1604 250.356 38.892 250.356 38.5617V36.8585H250.231C251.285 36.8551 252.078 35.7472 251.883 34.5463Z" fill="#3F4F6B"/>
<path d="M212.292 21.1102L211.251 14.6484C211.102 13.7263 210.409 13.0553 209.606 13.0553C208.798 13.0553 208.106 13.7228 207.96 14.6484L206.919 21.1102C206.725 22.311 207.518 23.4224 208.565 23.4224H208.44V25.2322C208.44 25.5041 208.663 25.7277 208.941 25.7277H210.27C210.545 25.7277 210.771 25.5075 210.771 25.2322V23.4224H210.646C211.693 23.4224 212.486 22.311 212.292 21.1102Z" fill="#3F4F6B"/>
<path d="M265.693 49.5241C266.229 49.5241 266.664 49.0943 266.664 48.5641C266.664 48.0339 266.229 47.6041 265.693 47.6041C265.157 47.6041 264.722 48.0339 264.722 48.5641C264.722 49.0943 265.157 49.5241 265.693 49.5241Z" fill="#B1B369"/>
<path d="M284.711 32.2514C285.248 32.2514 285.682 31.8216 285.682 31.2914C285.682 30.7612 285.248 30.3314 284.711 30.3314C284.175 30.3314 283.741 30.7612 283.741 31.2914C283.741 31.8216 284.175 32.2514 284.711 32.2514Z" fill="#B1B369"/>
<path d="M267.635 19.2004C268.171 19.2004 268.606 18.7706 268.606 18.2404C268.606 17.7102 268.171 17.2804 267.635 17.2804C267.099 17.2804 266.664 17.7102 266.664 18.2404C266.664 18.7706 267.099 19.2004 267.635 19.2004Z" fill="#B1B369"/>
<path d="M272.68 24.5714C273.216 24.5714 273.651 24.1416 273.651 23.6115C273.651 23.0813 273.216 22.6515 272.68 22.6515C272.144 22.6515 271.709 23.0813 271.709 23.6115C271.709 24.1416 272.144 24.5714 272.68 24.5714Z" fill="#3F4F6B"/>
<path d="M241.24 36.4732C241.776 36.4732 242.211 36.0434 242.211 35.5132C242.211 34.983 241.776 34.5532 241.24 34.5532C240.704 34.5532 240.269 34.983 240.269 35.5132C240.269 36.0434 240.704 36.4732 241.24 36.4732Z" fill="#E4BE6C"/>
<path d="M278.115 45.6842C278.651 45.6842 279.085 45.2544 279.085 44.7243C279.085 44.1941 278.651 43.7643 278.115 43.7643C277.578 43.7643 277.144 44.1941 277.144 44.7243C277.144 45.2544 277.578 45.6842 278.115 45.6842Z" fill="#E4BE6C"/>
<path d="M222.218 25.3422C222.754 25.3422 223.189 24.9124 223.189 24.3822C223.189 23.852 222.754 23.4222 222.218 23.4222C221.682 23.4222 221.247 23.852 221.247 24.3822C221.247 24.9124 221.682 25.3422 222.218 25.3422Z" fill="#E4BE6C"/>
<path d="M205.917 28.4114C206.453 28.4114 206.888 27.9816 206.888 27.4514C206.888 26.9212 206.453 26.4915 205.917 26.4915C205.381 26.4915 204.947 26.9212 204.947 27.4514C204.947 27.9816 205.381 28.4114 205.917 28.4114Z" fill="#B1B369"/>
<path d="M273.264 40.0929H266.664V44.5315H273.264V40.0929Z" fill="white"/>
<path d="M266.664 40.0929L269.963 37.2405L273.261 40.0929" fill="#BC4F5C"/>
<path d="M279.085 31.4806H273.651V36.8551H279.085V31.4806Z" fill="#E4BE6C"/>
<path d="M273.651 31.4805L276.368 28.026L279.085 31.4805" fill="#BC4F5C"/>
<path d="M269.861 41.8442H270.063C270.543 41.8442 270.933 42.2296 270.933 42.7044V44.5315H268.991V42.7044C268.991 42.2296 269.381 41.8442 269.861 41.8442Z" fill="#7ACCCB"/>
<path d="M48.5723 95.5858H52.7893V92.8986H48.5723C47.9008 92.8986 47.3545 93.4388 47.3545 94.1028V94.3815C47.3545 95.0456 47.9008 95.5858 48.5723 95.5858Z" fill="#FFC06E"/>
<path d="M66.8147 132.819H67.0966C67.7681 132.819 68.3143 132.278 68.3143 131.614V126.677H65.5969V131.614C65.5969 132.278 66.1432 132.819 66.8147 132.819Z" fill="#FFC06E"/>
<path d="M183.597 132.437C184.241 132.437 184.763 131.92 184.763 131.284C184.763 130.647 184.241 130.131 183.597 130.131C182.953 130.131 182.431 130.647 182.431 131.284C182.431 131.92 182.953 132.437 183.597 132.437Z" fill="#46294E"/>
<path d="M178.552 132.437C179.196 132.437 179.717 131.92 179.717 131.284C179.717 130.647 179.196 130.131 178.552 130.131C177.908 130.131 177.386 130.647 177.386 131.284C177.386 131.92 177.908 132.437 178.552 132.437Z" fill="#46294E"/>
<path d="M80.1687 190.121C79.4102 190.872 78.4604 191.312 77.4722 191.446C77.2287 191.481 77.0199 191.271 77.0512 191.03C77.1869 190.056 77.6323 189.113 78.3908 188.363C79.1493 187.613 80.0992 187.173 81.0873 187.039C81.3309 187.004 81.5397 187.214 81.5083 187.455C81.3726 188.432 80.9272 189.371 80.1687 190.121Z" fill="#FFC06E"/>
<path d="M74.7025 190.121C75.461 190.872 76.4109 191.312 77.3991 191.446C77.6426 191.481 77.8514 191.271 77.8201 191.03C77.6844 190.056 77.239 189.113 76.4805 188.363C75.722 187.613 74.7721 187.173 73.784 187.039C73.5404 187.004 73.3317 187.214 73.363 187.455C73.5022 188.432 73.944 189.371 74.7025 190.121Z" fill="#FFA35F"/>
<path d="M81.7762 200.829C80.7219 201.872 79.3998 202.481 78.0289 202.67C77.6914 202.715 77.3991 202.426 77.4443 202.092C77.6357 200.736 78.2515 199.429 79.3058 198.386C80.3601 197.344 81.6822 196.735 83.0531 196.545C83.3906 196.501 83.6829 196.79 83.6377 197.123C83.4498 198.479 82.8304 199.787 81.7762 200.829Z" fill="#FFC06E"/>
<path d="M73.0951 200.829C74.1494 201.872 75.4715 202.481 76.8424 202.67C77.1799 202.715 77.4722 202.426 77.4269 202.092C77.2356 200.736 76.6197 199.429 75.5655 198.386C74.5112 197.344 73.189 196.735 71.8182 196.545C71.4807 196.501 71.1884 196.79 71.2336 197.123C71.425 198.479 72.0409 199.787 73.0951 200.829Z" fill="#FFA35F"/>
<path d="M77.3225 206.517H77.1624C76.7797 206.517 76.4666 206.207 76.4666 205.829V196.841C76.4666 196.463 76.7797 196.153 77.1624 196.153H77.3225C77.7052 196.153 78.0183 196.463 78.0183 196.841V205.829C78.0183 206.211 77.7087 206.517 77.3225 206.517Z" fill="#D36D69"/>
<path d="M218.144 204.215C218.788 204.215 219.31 203.699 219.31 203.062C219.31 202.425 218.788 201.909 218.144 201.909C217.5 201.909 216.978 202.425 216.978 203.062C216.978 203.699 217.5 204.215 218.144 204.215Z" fill="#FFC06E"/>
<path d="M228.238 207.669C228.881 207.669 229.403 207.153 229.403 206.517C229.403 205.88 228.881 205.364 228.238 205.364C227.594 205.364 227.072 205.88 227.072 206.517C227.072 207.153 227.594 207.669 228.238 207.669Z" fill="#B1B369"/>
<path d="M121.104 204.982C121.747 204.982 122.269 204.466 122.269 203.83C122.269 203.193 121.747 202.677 121.104 202.677C120.46 202.677 119.938 203.193 119.938 203.83C119.938 204.466 120.46 204.982 121.104 204.982Z" fill="#FFC06E"/>
<path d="M156.04 216.884C156.684 216.884 157.206 216.368 157.206 215.731C157.206 215.095 156.684 214.578 156.04 214.578C155.396 214.578 154.875 215.095 154.875 215.731C154.875 216.368 155.396 216.884 156.04 216.884Z" fill="#518774"/>
<path d="M92.3814 212.662C93.0252 212.662 93.547 212.146 93.547 211.509C93.547 210.873 93.0252 210.357 92.3814 210.357C91.7377 210.357 91.2158 210.873 91.2158 211.509C91.2158 212.146 91.7377 212.662 92.3814 212.662Z" fill="#518774"/>
<path d="M89.5699 180.917C88.8114 181.667 87.8615 182.108 86.8733 182.242C86.6298 182.276 86.421 182.067 86.4523 181.826C86.588 180.852 87.0334 179.909 87.7919 179.159C88.5504 178.409 89.5003 177.969 90.4884 177.834C90.732 177.8 90.9407 178.01 90.9094 178.251C90.7702 179.228 90.3284 180.167 89.5699 180.917Z" fill="#B1B369"/>
<path d="M259.716 195.823C260.338 196.686 260.62 197.684 260.596 198.668C260.589 198.909 260.345 199.081 260.112 199.009C259.162 198.717 258.296 198.128 257.673 197.268C257.05 196.404 256.769 195.407 256.793 194.422C256.8 194.182 257.043 194.01 257.277 194.082C258.226 194.374 259.093 194.959 259.716 195.823Z" fill="#FFC06E"/>
<path d="M81.4176 167.484C80.6591 168.235 79.7092 168.675 78.721 168.809C78.4775 168.844 78.2687 168.634 78.3 168.393C78.4357 167.419 78.8811 166.476 79.6396 165.726C80.3981 164.976 81.348 164.536 82.3361 164.402C82.5797 164.367 82.7884 164.577 82.7571 164.818C82.6214 165.792 82.1761 166.734 81.4176 167.484Z" fill="#FFC06E"/>
<path d="M209.602 168.94C208.909 168.128 208.548 167.154 208.495 166.17C208.482 165.929 208.711 165.737 208.948 165.792C209.919 166.008 210.83 166.525 211.519 167.337C212.208 168.149 212.573 169.122 212.625 170.106C212.639 170.347 212.41 170.54 212.173 170.485C211.202 170.268 210.294 169.752 209.602 168.94Z" fill="#CDCE9F"/>
<path d="M192.208 211.406C192.967 210.656 193.917 210.216 194.905 210.081C195.148 210.047 195.357 210.257 195.326 210.498C195.19 211.471 194.745 212.414 193.986 213.164C193.228 213.914 192.278 214.355 191.29 214.489C191.046 214.523 190.838 214.314 190.869 214.073C191.005 213.095 191.45 212.156 192.208 211.406Z" fill="#518774"/>
<path d="M152.616 207.184C153.375 206.434 154.325 205.994 155.313 205.86C155.556 205.825 155.765 206.035 155.734 206.276C155.598 207.25 155.153 208.193 154.394 208.943C153.636 209.693 152.686 210.133 151.698 210.267C151.454 210.302 151.245 210.092 151.277 209.851C151.413 208.874 151.858 207.934 152.616 207.184Z" fill="#FFC06E"/>
<path d="M107.037 209.871C107.795 210.622 108.24 211.561 108.376 212.538C108.411 212.779 108.199 212.985 107.955 212.954C106.97 212.82 106.017 212.38 105.259 211.63C104.5 210.88 104.055 209.94 103.919 208.963C103.884 208.722 104.097 208.516 104.34 208.547C105.328 208.681 106.278 209.121 107.037 209.871Z" fill="#FFC06E"/>
<path d="M240.868 180.143C240.109 180.893 239.159 181.334 238.171 181.468C237.928 181.502 237.719 181.292 237.75 181.052C237.886 180.078 238.331 179.135 239.09 178.385C239.848 177.635 240.798 177.194 241.786 177.06C242.03 177.026 242.239 177.236 242.207 177.477C242.068 178.454 241.626 179.393 240.868 180.143Z" fill="#FFC06E"/>
<path d="M235.402 180.143C236.16 180.893 237.11 181.334 238.098 181.468C238.342 181.502 238.551 181.292 238.519 181.052C238.384 180.078 237.938 179.135 237.18 178.385C236.421 177.635 235.471 177.194 234.483 177.06C234.24 177.026 234.031 177.236 234.062 177.477C234.198 178.454 234.643 179.393 235.402 180.143Z" fill="#FFA35F"/>
<path d="M170.086 84.1315C171.255 83.8838 172.414 84.5134 172.553 85.7556C172.686 86.9013 173.983 88.0953 175.17 87.242C176.144 86.5401 177.115 86.3646 178.315 86.337C179.241 86.3164 181.113 86.0755 181.683 86.9839C182.856 88.866 185.869 87.1388 184.686 85.2463C182.623 81.9432 176.308 82.1806 173.413 84.2657C174.286 84.7612 175.159 85.2566 176.029 85.7521C175.626 82.2287 172.713 80.0576 169.157 80.8111C166.972 81.2791 167.898 84.596 170.086 84.1315Z" fill="#78E6E0"/>
<g opacity="0.3">
<g opacity="0.3">
<path opacity="0.3" d="M110.366 2.8257C111.184 3.45193 112.002 4.07816 112.819 4.70438C113.4 5.14824 114.03 5.82264 114.778 5.99812C115.45 6.15639 115.982 5.89834 116.563 5.59555C117.496 5.1104 118.285 4.79729 119.357 4.73536C121.584 4.60805 121.598 1.16382 119.357 1.29457C117.569 1.3978 116.368 2.02744 114.778 2.67775C115.224 2.73625 115.672 2.79474 116.118 2.84979C114.956 2.29238 113.846 1.1707 112.83 0.389644C111.076 -0.945381 108.599 1.47003 110.366 2.8257Z" fill="#78E6E0"/>
</g>
</g>
<g opacity="0.63">
<g opacity="0.63">
<path opacity="0.63" d="M102.051 11.1043C102.277 10.6192 103.933 11.5276 104.316 11.5448C105.098 11.5792 106.577 10.602 107.183 11.4071C108.501 13.1654 111.525 11.4519 110.185 9.66954C109.545 8.81623 108.814 8.11432 107.753 7.81153C107.106 7.62573 106.455 7.63261 105.798 7.71863C105.401 7.7668 105.012 7.85281 104.629 7.97324C105.067 8.24506 105.126 8.27947 104.803 8.07646C102.99 7.28164 100.015 7.26787 99.0409 9.36331C98.1153 11.3658 101.115 13.1172 102.051 11.1043Z" fill="#78E6E0"/>
</g>
</g>
<path d="M88.6688 20.1123C90.1023 20.5837 91.6645 21.0516 92.5483 22.3591C93.2198 23.3535 94.9386 23.5909 95.551 22.3591C96.0694 21.32 98.1049 20.7007 99.1696 20.6043C101.379 20.4013 101.403 16.9605 99.1696 17.1635C96.8662 17.3734 93.6478 18.4091 92.5448 20.625C93.5469 20.625 94.5489 20.625 95.5475 20.625C94.1105 18.4951 91.9777 17.5833 89.5908 16.7988C87.4649 16.0935 86.5498 19.4173 88.6688 20.1123Z" fill="#78E6E0"/>
</g>
<defs>
<clipPath id="clip0_1031_4528">
<rect width="295" height="221" fill="white"/>
</clipPath>
</defs>
</svg>
