<svg width="280" height="240" viewBox="0 0 280 240" fill="none" xmlns="http://www.w3.org/2000/svg">
<g clip-path="url(#clip0_1031_4844)">
<path d="M274.113 120.917C251.233 64.4274 169.991 18.3722 154.338 16.8545C138.685 15.3367 90.4827 11.7653 77.2387 19.9661C66.6984 26.4935 45.7684 33.8334 37.147 39.6729C34.7038 41.3289 29.4474 49.9446 27.8951 52.465C19.2154 66.5502 -6.44673 117.774 1.50994 173.773L5.86862 197.441L6.3484 198.237H6.22157C6.22157 198.237 12.0777 228.004 57.9433 233.38C144.826 243.566 136.756 224.737 163.35 204.311C164.889 203.129 167.359 202.168 170.495 201.386L241.855 201.113C244.695 201.103 247.478 200.321 249.907 198.838C261.558 191.723 292.956 167.449 274.113 120.917Z" fill="#E1FAF9"/>
<path d="M213.969 189.524C198.316 175.249 199.518 161.886 199.518 161.886C199.518 152.828 206.797 145.485 215.774 145.485C224.752 145.485 232.03 152.828 232.03 161.886C232.03 161.886 231.427 176.466 217.58 189.524C217.58 189.524 216.977 190.437 215.774 190.437C214.572 190.437 213.969 189.524 213.969 189.524Z" fill="#F99746"/>
<path d="M215.774 171.605C221.261 171.605 225.708 167.118 225.708 161.582C225.708 156.047 221.261 151.559 215.774 151.559C210.288 151.559 205.841 156.047 205.841 161.582C205.841 167.118 210.288 171.605 215.774 171.605Z" fill="white"/>
<path d="M215.85 199.125C219.175 199.125 221.87 198.717 221.87 198.213C221.87 197.708 219.175 197.3 215.85 197.3C212.525 197.3 209.829 197.708 209.829 198.213C209.829 198.717 212.525 199.125 215.85 199.125Z" fill="#9AB3ED"/>
<path d="M268.819 124.091C267.4 124.596 265.954 125.017 264.498 125.391C263.771 125.591 263.038 125.757 262.308 125.934C261.578 126.12 260.842 126.265 260.105 126.418C257.158 127.023 254.191 127.531 251.209 127.932L248.972 128.222L246.727 128.464C245.98 128.54 245.233 128.627 244.483 128.696L242.235 128.869L239.987 129.042L237.736 129.159L235.481 129.266C234.73 129.301 233.977 129.311 233.226 129.325L230.972 129.363L229.844 129.38L228.717 129.367L224.207 129.301L219.701 129.128C218.197 129.083 216.706 128.969 215.212 128.986C212.231 129.004 209.223 129.346 206.382 130.269C204.963 130.725 203.589 131.324 202.311 132.088C201.036 132.859 199.868 133.789 198.833 134.857C197.802 135.925 196.914 137.128 196.164 138.411C195.413 139.694 194.79 141.052 194.241 142.446C193.152 145.236 192.425 148.161 191.531 151.068C191.082 152.524 190.592 153.983 189.903 155.387C189.218 156.776 188.289 158.152 186.936 159.089C186.264 159.553 185.503 159.888 184.719 160.092C183.934 160.293 183.132 160.365 182.344 160.358L181.206 160.32C180.836 160.31 180.463 160.289 180.093 160.289C179.349 160.272 178.609 160.282 177.869 160.299C176.389 160.348 174.915 160.479 173.476 160.752C172.033 161.019 170.625 161.423 169.278 162.014C168.603 162.305 167.945 162.637 167.27 162.979C166.599 163.318 165.903 163.663 165.153 163.912C164.406 164.165 163.607 164.31 162.819 164.324C162.031 164.341 161.253 164.244 160.496 164.099C160.115 164.03 159.745 163.933 159.375 163.836C159.012 163.753 158.676 163.646 158.313 163.601C157.6 163.48 156.874 163.439 156.144 163.487C155.417 163.529 154.691 163.639 153.975 163.809C153.259 163.985 152.556 164.213 151.867 164.483C149.109 165.579 146.57 167.259 144.325 169.247L144.253 169.174C145.319 168.096 146.491 167.135 147.728 166.263C148.969 165.399 150.274 164.607 151.679 164.013C152.378 163.712 153.098 163.453 153.834 163.245C154.574 163.045 155.332 162.903 156.099 162.834C156.867 162.761 157.648 162.775 158.419 162.882C158.803 162.92 159.194 163.024 159.56 163.096C159.92 163.176 160.276 163.262 160.636 163.321C161.356 163.446 162.079 163.522 162.788 163.491C163.501 163.463 164.193 163.321 164.865 163.083C165.536 162.847 166.187 162.509 166.849 162.156C167.51 161.807 168.185 161.447 168.888 161.129C170.286 160.486 171.769 160.016 173.277 159.726C174.785 159.428 176.306 159.28 177.824 159.217C178.585 159.193 179.342 159.176 180.103 159.186C180.483 159.183 180.86 159.2 181.241 159.214L182.354 159.252C183.776 159.276 185.181 158.968 186.315 158.18C187.46 157.409 188.317 156.216 188.975 154.916C189.636 153.613 190.133 152.199 190.595 150.771C191.058 149.34 191.476 147.888 191.935 146.439C192.398 144.994 192.895 143.549 193.484 142.138C194.646 139.317 196.256 136.62 198.456 134.48C200.649 132.337 203.394 130.839 206.276 129.944C209.171 129.056 212.19 128.689 215.199 128.589C216.706 128.533 218.214 128.578 219.711 128.582L224.207 128.613L228.703 128.544C230.201 128.527 231.698 128.454 233.195 128.412C233.942 128.381 234.693 128.381 235.44 128.34L237.684 128.226L239.929 128.122L242.17 127.966L244.411 127.811L246.648 127.61L248.886 127.406L251.117 127.154C252.607 127.005 254.088 126.791 255.575 126.604C256.318 126.504 257.055 126.38 257.795 126.269L258.906 126.096L260.012 125.899C262.963 125.387 265.906 124.803 268.791 123.987L268.819 124.091Z" fill="white"/>
<path d="M186.411 67.6323L178.283 79.6535L170.31 91.4499C169.823 92.0411 169.261 92.2486 168.651 92.1898C166.739 92.0066 164.371 89.2234 162.524 87.6814L162.336 87.5258C159.903 85.4964 159.56 81.8247 161.572 79.3734L173.76 64.5069L177.375 60.0988C179.387 57.6441 183.026 57.2984 185.455 59.3278L185.644 59.4834C188.08 61.5059 188.423 65.1776 186.411 67.6323Z" fill="#FFB27D"/>
<path d="M178.283 79.65L170.31 91.4464C169.823 92.0376 169.261 92.2451 168.651 92.1863L173.764 64.5034C173.774 64.6555 174.641 77.0777 178.283 79.65Z" fill="#EFA26F"/>
<path d="M128.803 169.382C124.718 174.983 120.61 179.584 117.104 181.503C113.671 183.38 110.765 186.298 108.363 189.531C105.598 188.231 102.445 186.703 99.3645 185.192C95.6123 183.353 95.4683 177.977 99.1417 175.985C99.1759 175.964 99.2137 175.947 99.2479 175.926C102.692 173.938 106.221 166.917 106.221 166.917L128.803 169.382Z" fill="#EFA26F"/>
<path d="M98.1103 142.38C98.1103 142.38 96.3114 126.549 94.6563 123.465C92.9978 120.377 91.5963 114.196 94.1457 109.601C96.6986 105.006 97.5792 96.1692 97.5792 96.1692C98.5695 106.258 95.5917 113.746 97.6785 115.731C97.7574 115.803 97.9013 115.769 98.1034 115.637L98.1103 142.38Z" fill="#EFA26F"/>
<path d="M121.549 195.27C121.549 195.27 121.192 213.072 120.168 237.045H53.9753C69.1074 204.491 82.2588 177.092 82.2588 177.092C82.2588 177.092 119.948 178.253 121.549 195.27Z" fill="#F99746"/>
<path d="M75.8169 190.596C75.8169 190.596 88.7524 203.094 97.4698 207.921L104.073 203.194V210.164C104.073 210.164 117.056 212.481 121.151 210.164V191.156L84.6816 172.711L75.8169 190.596Z" fill="#ED7D2B"/>
<path d="M163.559 129.73C163.559 129.73 153.457 150.121 143.195 164.196C139.11 169.797 139.576 176.459 136.067 178.378C132.634 180.255 125.157 181.113 122.751 184.345C116.525 192.715 113.65 203.195 113.65 203.195L87.4089 163.138C87.4089 163.138 88.3033 123.984 91.4558 117.432C96.0475 107.886 98.2646 88.6012 100.029 84.7635C101.338 81.9147 105.077 67.2037 105.433 66.1216C105.587 65.6548 106.831 64.9426 108.449 64.9426C109.744 64.9426 111.944 66.208 112.499 68.8045C115.305 81.932 111.927 90.5926 111.964 90.9764C112.955 101.065 109.977 108.553 112.064 110.538C112.142 110.611 112.286 110.576 112.489 110.445C116.107 108.101 138.558 75.0726 141.324 74.3604C144.254 73.6136 163.559 129.73 163.559 129.73Z" fill="#FFB27D"/>
<path d="M123.906 208.657C118.883 209.698 108.055 205.715 108.055 205.715L109.802 188.695L97.5655 202.832C91.3393 200.494 81.6008 194.392 75.8132 190.596C72.9314 188.705 71.0295 187.388 71.0295 187.388C79.1952 174.132 87.4089 161.734 87.4089 161.734C89.8178 166.599 95.5266 170.824 101.712 174.205C111.988 179.823 123.591 183.104 123.591 183.104C123.587 193.217 123.906 208.657 123.906 208.657Z" fill="#AFC5E0"/>
<path d="M123.906 208.657C118.883 209.698 108.055 205.715 108.055 205.715L109.802 188.695L97.5656 202.832C91.3393 200.494 81.6008 194.392 75.8132 190.596C90.6403 188.964 101.712 174.201 101.712 174.201C111.988 179.82 123.591 183.101 123.591 183.101C123.587 193.217 123.906 208.657 123.906 208.657Z" fill="#CBE1FD"/>
<path d="M89.4308 193.196C89.441 192.062 90.3628 191.149 91.4867 191.16C92.6107 191.17 93.5153 192.1 93.505 193.234C93.4947 194.368 92.5729 195.281 91.449 195.27C90.3251 195.26 89.4205 194.333 89.4308 193.196Z" fill="#F99746"/>
<path d="M59.1565 101.912C43.5036 87.6365 44.7064 74.2739 44.7064 74.2739C44.7064 65.2157 51.9846 57.8723 60.9624 57.8723C69.9402 57.8723 77.2183 65.2157 77.2183 74.2739C77.2183 74.2739 76.6153 88.8535 62.7682 101.912C62.7682 101.912 62.1651 102.825 60.9624 102.825C59.7562 102.821 59.1565 101.912 59.1565 101.912Z" fill="#F99746"/>
<path d="M60.9624 83.9925C66.4487 83.9925 70.8962 79.5052 70.8962 73.9697C70.8962 68.4343 66.4487 63.9469 60.9624 63.9469C55.4761 63.9469 51.0286 68.4343 51.0286 73.9697C51.0286 79.5052 55.4761 83.9925 60.9624 83.9925Z" fill="white"/>
<path d="M60.9623 106.164C64.2874 106.164 66.9829 105.756 66.9829 105.252C66.9829 104.748 64.2874 104.339 60.9623 104.339C57.6372 104.339 54.9417 104.748 54.9417 105.252C54.9417 105.756 57.6372 106.164 60.9623 106.164Z" fill="#9AB3ED"/>
<path d="M167.661 178.506H120.843C116.731 178.506 113.4 175.142 113.4 170.996V60.2786C113.4 56.1298 116.734 52.7693 120.843 52.7693H167.661C171.773 52.7693 175.104 56.1333 175.104 60.2786V170.993C175.104 175.142 171.769 178.506 167.661 178.506Z" fill="#3F4F6B"/>
<path d="M165.379 176.034H123.121C119.414 176.034 116.405 173.002 116.405 169.257V61.9313C116.405 58.1904 119.41 55.1549 123.121 55.1549H165.379C169.086 55.1549 172.095 58.187 172.095 61.9313V169.257C172.091 172.998 169.086 176.034 165.379 176.034Z" fill="white"/>
<path d="M163.062 172.127H125.136C124.471 172.127 123.934 171.584 123.934 170.913C123.934 170.243 124.471 169.7 125.136 169.7H163.062C163.727 169.7 164.265 170.243 164.265 170.913C164.265 171.581 163.727 172.127 163.062 172.127Z" fill="#3F4F6B"/>
<path d="M119.582 64.3379C119.547 64.3379 119.517 64.3241 119.493 64.2999C119.469 64.2757 119.455 64.2411 119.455 64.2065V62.6231L119.266 62.7026C119.236 62.7164 119.208 62.7199 119.184 62.7199C119.147 62.7199 119.116 62.7095 119.092 62.6853C119.068 62.6611 119.054 62.63 119.054 62.5919C119.054 62.5643 119.061 62.5401 119.075 62.5159C119.088 62.4917 119.109 62.4778 119.14 62.4675L119.541 62.3223C119.551 62.3188 119.558 62.3154 119.568 62.3154C119.578 62.3154 119.585 62.3119 119.592 62.3119C119.633 62.3119 119.664 62.3257 119.685 62.3499C119.705 62.3741 119.719 62.4087 119.719 62.4467V64.2065C119.719 64.2446 119.705 64.2757 119.681 64.2999C119.65 64.3241 119.619 64.3379 119.582 64.3379Z" fill="#46294E"/>
<path d="M120.716 64.3376C120.586 64.3376 120.473 64.2961 120.384 64.2166C120.295 64.1371 120.222 64.0195 120.174 63.8674C120.127 63.7153 120.103 63.532 120.103 63.3211C120.103 63.1068 120.127 62.927 120.174 62.7749C120.222 62.6228 120.291 62.5087 120.384 62.4257C120.476 62.3427 120.586 62.3047 120.716 62.3047C120.846 62.3047 120.959 62.3462 121.048 62.4291C121.137 62.5121 121.209 62.6297 121.257 62.7783C121.305 62.9305 121.329 63.1102 121.329 63.3211C121.329 63.532 121.305 63.7118 121.257 63.8639C121.209 64.0161 121.141 64.1336 121.048 64.2131C120.956 64.2926 120.846 64.3376 120.716 64.3376ZM120.716 64.0679C120.795 64.0679 120.86 64.0368 120.911 63.9711C120.963 63.9054 121 63.819 121.028 63.7049C121.055 63.5908 121.065 63.4663 121.065 63.3246C121.065 63.1828 121.052 63.0549 121.028 62.9443C121 62.8302 120.963 62.7438 120.911 62.6781C120.86 62.6124 120.795 62.5778 120.716 62.5778C120.637 62.5778 120.572 62.6089 120.521 62.6746C120.469 62.7403 120.432 62.8267 120.404 62.9408C120.377 63.0549 120.366 63.1828 120.366 63.3246C120.366 63.4698 120.38 63.5977 120.404 63.7084C120.432 63.8225 120.469 63.9089 120.521 63.9746C120.572 64.0333 120.637 64.0679 120.716 64.0679Z" fill="#46294E"/>
<path d="M121.696 63.2763C121.648 63.2763 121.607 63.259 121.573 63.2244C121.538 63.1898 121.521 63.1484 121.521 63.1C121.521 63.0481 121.538 63.0066 121.573 62.972C121.607 62.9375 121.648 62.9202 121.696 62.9202C121.744 62.9202 121.788 62.9375 121.823 62.972C121.857 63.0066 121.874 63.0516 121.874 63.1C121.874 63.1484 121.857 63.1898 121.823 63.2244C121.788 63.259 121.744 63.2763 121.696 63.2763ZM121.723 64.3792C121.675 64.3792 121.634 64.3619 121.6 64.3273C121.566 64.2927 121.549 64.2512 121.549 64.2028C121.549 64.151 121.566 64.1095 121.6 64.0749C121.634 64.0404 121.675 64.0231 121.723 64.0231C121.775 64.0231 121.816 64.0404 121.85 64.0749C121.884 64.1095 121.902 64.1544 121.902 64.2028C121.902 64.2512 121.884 64.2927 121.85 64.3273C121.816 64.3619 121.775 64.3792 121.723 64.3792Z" fill="#46294E"/>
<path d="M122.258 64.3377C122.22 64.3377 122.189 64.3239 122.165 64.2996C122.141 64.272 122.128 64.2409 122.128 64.2063C122.128 64.1683 122.141 64.1372 122.165 64.113L122.895 63.2521C122.947 63.1899 122.988 63.1345 123.015 63.0792C123.043 63.0239 123.056 62.9755 123.056 62.9271C123.056 62.851 123.043 62.7853 123.019 62.73C122.991 62.6747 122.957 62.6332 122.909 62.6021C122.861 62.571 122.803 62.5572 122.738 62.5572C122.672 62.5572 122.614 62.5745 122.563 62.609C122.511 62.6436 122.47 62.6885 122.44 62.7438C122.409 62.7992 122.395 62.8614 122.395 62.9306C122.395 62.9651 122.381 62.9963 122.357 63.0205C122.333 63.0447 122.302 63.0585 122.265 63.0585C122.23 63.0585 122.196 63.0447 122.172 63.0205C122.148 62.9963 122.135 62.9651 122.135 62.9306C122.135 62.813 122.162 62.7058 122.213 62.6159C122.268 62.5226 122.34 62.45 122.429 62.3981C122.522 62.3428 122.625 62.3186 122.741 62.3186C122.858 62.3186 122.96 62.3428 123.046 62.3947C123.132 62.4465 123.197 62.5157 123.245 62.609C123.293 62.7024 123.317 62.8095 123.317 62.9375C123.317 62.9928 123.306 63.0481 123.283 63.1069C123.259 63.1657 123.231 63.2175 123.193 63.2694C123.156 63.3212 123.121 63.3696 123.087 63.4111L122.498 64.0853H123.217C123.255 64.0853 123.286 64.0991 123.313 64.1268C123.341 64.1544 123.351 64.1856 123.351 64.2201C123.351 64.2582 123.337 64.2893 123.313 64.3135C123.289 64.3377 123.255 64.3515 123.217 64.3515H122.258V64.3377Z" fill="#46294E"/>
<path d="M124.276 64.3376C124.146 64.3376 124.033 64.3099 123.933 64.2546C123.834 64.1993 123.755 64.1267 123.7 64.0299C123.646 63.9331 123.615 63.8294 123.615 63.7118C123.615 63.6703 123.625 63.6392 123.649 63.615C123.673 63.5908 123.701 63.577 123.731 63.577C123.766 63.577 123.793 63.5908 123.817 63.615C123.838 63.6392 123.851 63.6738 123.851 63.7118C123.851 63.7844 123.868 63.8466 123.906 63.9089C123.944 63.9676 123.992 64.0161 124.053 64.0506C124.115 64.0852 124.184 64.1025 124.262 64.1025C124.376 64.1025 124.468 64.0714 124.536 64.0092C124.605 63.9469 124.639 63.857 124.639 63.7429C124.639 63.6703 124.622 63.6046 124.591 63.5459C124.561 63.4871 124.519 63.4422 124.465 63.4076C124.41 63.373 124.352 63.3557 124.283 63.3557C124.245 63.3557 124.214 63.3419 124.19 63.3177C124.166 63.2935 124.153 63.2589 124.153 63.2209C124.153 63.1828 124.166 63.1517 124.19 63.1275C124.214 63.1033 124.245 63.0895 124.283 63.0895C124.331 63.0895 124.379 63.0757 124.424 63.0515C124.468 63.0273 124.506 62.9927 124.533 62.9512C124.561 62.9097 124.578 62.8613 124.578 62.806C124.578 62.7299 124.55 62.6642 124.496 62.6124C124.441 62.5605 124.369 62.5329 124.283 62.5329C124.218 62.5329 124.16 62.5467 124.105 62.5709C124.05 62.5985 124.009 62.6331 123.975 62.6746C123.944 62.7196 123.927 62.768 123.927 62.8198C123.927 62.8613 123.916 62.8924 123.892 62.9201C123.872 62.9477 123.841 62.9616 123.807 62.9616C123.776 62.9616 123.745 62.9477 123.725 62.9235C123.701 62.8993 123.69 62.8682 123.69 62.8302C123.69 62.7299 123.714 62.64 123.765 62.5605C123.817 62.481 123.889 62.4188 123.978 62.3738C124.067 62.3289 124.166 62.3047 124.276 62.3047C124.379 62.3047 124.468 62.3254 124.55 62.3704C124.632 62.4153 124.694 62.4741 124.742 62.5501C124.79 62.6262 124.814 62.7092 124.814 62.806C124.814 62.8751 124.8 62.9339 124.77 62.9858C124.739 63.0376 124.701 63.0826 124.656 63.1206C124.612 63.1586 124.561 63.1898 124.509 63.214C124.598 63.2451 124.674 63.2866 124.732 63.3384C124.79 63.3903 124.831 63.4525 124.855 63.5217C124.883 63.5908 124.896 63.6669 124.896 63.7464C124.896 63.8605 124.869 63.9607 124.811 64.0506C124.752 64.1405 124.677 64.2097 124.585 64.2615C124.495 64.3099 124.389 64.3376 124.276 64.3376Z" fill="#46294E"/>
<path d="M141.451 69.2471C141.784 69.2471 142.054 68.9747 142.054 68.6386C142.054 68.3026 141.784 68.0302 141.451 68.0302C141.118 68.0302 140.847 68.3026 140.847 68.6386C140.847 68.9747 141.118 69.2471 141.451 69.2471Z" fill="#46294E"/>
<path d="M143.424 69.2471C143.757 69.2471 144.027 68.9747 144.027 68.6386C144.027 68.3026 143.757 68.0302 143.424 68.0302C143.091 68.0302 142.821 68.3026 142.821 68.6386C142.821 68.9747 143.091 69.2471 143.424 69.2471Z" fill="#46294E"/>
<path d="M145.395 69.2471C145.728 69.2471 145.998 68.9747 145.998 68.6386C145.998 68.3026 145.728 68.0302 145.395 68.0302C145.062 68.0302 144.792 68.3026 144.792 68.6386C144.792 68.9747 145.062 69.2471 145.395 69.2471Z" fill="#46294E"/>
<path d="M159.807 64.1061H159.735C159.649 64.1061 159.577 64.0369 159.577 63.9471V63.6532C159.577 63.5667 159.646 63.4941 159.735 63.4941H159.807C159.893 63.4941 159.965 63.5633 159.965 63.6532V63.9471C159.965 64.0369 159.893 64.1061 159.807 64.1061Z" fill="#46294E"/>
<path d="M160.52 64.1059H160.448C160.362 64.1059 160.29 64.0368 160.29 63.9469V63.3765C160.29 63.29 160.359 63.2174 160.448 63.2174H160.52C160.606 63.2174 160.677 63.2866 160.677 63.3765V63.9469C160.674 64.0368 160.606 64.1059 160.52 64.1059Z" fill="#46294E"/>
<path d="M161.233 64.1059H161.161C161.075 64.1059 161.003 64.0368 161.003 63.9469V63.0445C161.003 62.9581 161.072 62.8855 161.161 62.8855H161.233C161.318 62.8855 161.39 62.9546 161.39 63.0445V63.9469C161.387 64.0368 161.318 64.1059 161.233 64.1059Z" fill="#46294E"/>
<path d="M161.942 64.106H161.87C161.784 64.106 161.712 64.0369 161.712 63.947V62.7162C161.712 62.6297 161.781 62.5571 161.87 62.5571H161.942C162.027 62.5571 162.099 62.6263 162.099 62.7162V63.947C162.099 64.0369 162.031 64.106 161.942 64.106Z" fill="#46294E"/>
<path d="M168.552 64.2167H166.767C166.397 64.2167 166.098 63.9159 166.098 63.5425V63.2349C166.098 62.8615 166.397 62.5607 166.767 62.5607H168.552C168.922 62.5607 169.22 62.8615 169.22 63.2349V63.5425C169.22 63.9159 168.919 64.2167 168.552 64.2167Z" fill="#46294E"/>
<path d="M169.508 63.6393H169.467V63.1968H169.508C169.607 63.1968 169.686 63.2763 169.686 63.3766V63.4595C169.686 63.5563 169.604 63.6393 169.508 63.6393Z" fill="#46294E"/>
<path d="M163.607 63.8018L164.046 64.2997L164.484 63.8571C164.484 63.8571 164.32 63.6359 164.046 63.6359C163.768 63.6393 163.607 63.8018 163.607 63.8018Z" fill="#46294E"/>
<path d="M163.333 63.5287C163.333 63.5287 163.662 63.2798 164.046 63.2798C164.43 63.2798 164.759 63.5287 164.759 63.5287" fill="#46294E"/>
<path d="M162.922 63.0999C162.922 63.0999 163.439 62.7092 164.046 62.7092C164.652 62.7092 165.17 63.0999 165.17 63.0999" fill="#46294E"/>
<path d="M158.282 58.844H130.218C128.327 58.844 126.792 57.2951 126.792 55.3867V55.2H161.709V55.3867C161.709 57.2951 160.174 58.844 158.282 58.844Z" fill="#3F4F6B"/>
<path d="M141.838 112.975C141.838 112.104 141.838 111.233 141.838 110.358L141.834 110.361H142.482C142.835 110.361 143.123 110.071 143.123 109.715V109.698C143.123 109.342 142.835 109.051 142.482 109.051H141.834L141.838 109.055C141.838 108.833 141.838 108.615 141.838 108.394C141.838 108.038 142.122 107.748 142.479 107.748H143.791C144.144 107.748 144.432 107.457 144.432 107.101V107.094C144.432 106.738 144.72 106.448 145.073 106.448H145.083C145.436 106.448 145.724 106.738 145.724 107.094C145.724 107.45 146.011 107.741 146.364 107.741H146.378C146.731 107.741 147.019 107.45 147.019 107.094V105.134L147.015 105.137C147.07 105.137 147.125 105.134 147.18 105.134C148.208 105.134 149.236 105.134 150.261 105.134C150.614 105.134 150.901 105.424 150.901 105.78V105.787C150.901 106.143 151.189 106.434 151.542 106.434H151.546C151.899 106.434 152.186 106.143 152.186 105.787V105.78C152.186 105.424 151.899 105.134 151.546 105.134H151.539C151.186 105.134 150.898 104.844 150.898 104.487V104.467C150.898 104.111 150.61 103.82 150.257 103.82H148.945C148.592 103.82 148.304 103.53 148.304 103.174V101.867C148.304 101.511 148.016 101.22 147.663 101.22H145.059C144.706 101.22 144.418 101.511 144.418 101.867V101.877C144.418 102.233 144.13 102.524 143.777 102.524H142.482C142.129 102.524 141.841 102.814 141.841 103.17V104.491C141.841 104.847 142.129 105.137 142.482 105.137C142.835 105.137 143.123 105.428 143.123 105.784V105.794C143.123 106.15 142.835 106.441 142.482 106.441H142.475C142.122 106.441 141.834 106.731 141.834 107.087V107.101C141.834 107.457 141.547 107.748 141.194 107.748H141.18C140.827 107.748 140.539 107.457 140.539 107.101V107.087C140.539 106.731 140.251 106.441 139.898 106.441H137.298C136.945 106.441 136.657 106.15 136.657 105.794V105.784C136.657 105.428 136.945 105.137 137.298 105.137H139.891C140.244 105.137 140.532 104.847 140.532 104.491V95.3289C140.532 94.9728 140.82 94.6824 141.173 94.6824H141.831L141.828 94.679C141.828 95.9374 141.828 97.1959 141.831 98.4509C141.831 98.4959 141.831 98.5373 141.831 98.5892H142.486C142.838 98.5892 143.126 98.2988 143.126 97.9427V96.6358C143.126 96.2797 143.414 95.9893 143.767 95.9893H143.777C144.13 95.9893 144.418 96.2797 144.418 96.6358V97.9531C144.418 98.3092 144.706 98.5996 145.059 98.5996H145.72L145.717 98.5961V99.2565C145.717 99.6126 146.005 99.903 146.358 99.903H151.549C151.902 99.903 152.19 100.193 152.19 100.55V100.56C152.19 100.916 152.478 101.206 152.831 101.206H152.848C153.201 101.206 153.488 101.497 153.488 101.853V102.52L153.492 102.517H152.844C152.491 102.517 152.203 102.807 152.203 103.163V103.181C152.203 103.537 152.491 103.827 152.844 103.827H153.492L153.488 103.824V105.794C153.488 106.15 153.776 106.441 154.129 106.441H154.787L154.784 106.437V108.401C154.784 108.757 154.496 109.048 154.143 109.048H154.139C153.787 109.048 153.499 109.338 153.499 109.694V111.022C153.499 111.378 153.787 111.668 154.139 111.668H154.787L154.784 111.665V112.325C154.784 112.681 155.072 112.972 155.424 112.972H156.73C157.083 112.972 157.371 113.262 157.371 113.618V113.629C157.371 113.985 157.083 114.275 156.73 114.275H154.136C153.783 114.275 153.495 114.566 153.495 114.922V116.242C153.495 116.598 153.207 116.889 152.854 116.889H152.844C152.491 116.889 152.203 116.598 152.203 116.242V116.232C152.203 115.876 151.916 115.585 151.563 115.585H149.606L149.61 115.589V114.929C149.61 114.572 149.322 114.282 148.969 114.282H148.958C148.605 114.282 148.318 113.992 148.318 113.636V113.625C148.318 113.269 148.605 112.979 148.958 112.979H150.254C150.607 112.979 150.895 112.688 150.895 112.332V112.318C150.895 111.962 150.607 111.672 150.254 111.672H145.073C144.72 111.672 144.432 111.962 144.432 112.318V112.325C144.432 112.681 144.144 112.972 143.791 112.972L141.838 112.975ZM149.603 108.411V108.405C149.603 108.048 149.315 107.758 148.962 107.758H148.958C148.605 107.758 148.318 108.048 148.318 108.405V108.411C148.318 108.768 148.605 109.058 148.958 109.058H148.965C149.318 109.058 149.606 109.348 149.606 109.705V109.711C149.606 110.068 149.894 110.358 150.247 110.358H151.546C151.899 110.358 152.186 110.068 152.186 109.711V109.708C152.186 109.352 151.899 109.061 151.546 109.061H150.243C149.89 109.058 149.603 108.768 149.603 108.411ZM146.371 109.061C146.018 109.061 145.73 109.352 145.73 109.708C145.73 110.064 146.018 110.355 146.371 110.355C146.724 110.355 147.012 110.064 147.012 109.708C147.012 109.352 146.724 109.061 146.371 109.061ZM150.25 102.517C150.603 102.517 150.891 102.226 150.891 101.87C150.891 101.514 150.603 101.224 150.25 101.224C149.897 101.224 149.61 101.514 149.61 101.87C149.61 102.226 149.897 102.517 150.25 102.517Z" fill="#3F4F6B"/>
<path d="M130.187 96.5321V91.5294C130.187 90.3884 131.102 89.4653 132.233 89.4653H137.191C138.322 89.4653 139.237 90.3884 139.237 91.5294V96.5321C139.237 97.673 138.322 98.5961 137.191 98.5961H132.233C131.102 98.5961 130.187 97.673 130.187 96.5321ZM131.486 92.8362V95.2252C131.486 96.3662 132.401 97.2893 133.531 97.2893H135.899C137.03 97.2893 137.945 96.3662 137.945 95.2252V92.8362C137.945 91.6953 137.03 90.7722 135.899 90.7722H133.531C132.401 90.7722 131.486 91.6953 131.486 92.8362Z" fill="#3F4F6B"/>
<path d="M155.363 98.5996H150.319C149.212 98.5996 148.314 97.6938 148.314 96.5771V91.4879C148.314 90.3711 149.212 89.4653 150.319 89.4653H155.363C156.47 89.4653 157.367 90.3711 157.367 91.4879V96.5771C157.364 97.6938 156.47 98.5996 155.363 98.5996ZM154.071 90.7722H151.618C150.511 90.7722 149.613 91.678 149.613 92.7947V95.2702C149.613 96.3869 150.511 97.2927 151.618 97.2927H154.071C155.178 97.2927 156.076 96.3869 156.076 95.2702V92.7947C156.076 91.678 155.178 90.7722 154.071 90.7722Z" fill="#3F4F6B"/>
<path d="M132.226 107.755H137.205C138.329 107.755 139.237 108.674 139.237 109.805V114.828C139.237 115.962 138.326 116.882 137.202 116.882H132.223C131.099 116.882 130.187 115.962 130.187 114.828V109.805C130.191 108.674 131.102 107.755 132.226 107.755ZM135.91 109.062H133.521C132.397 109.062 131.486 109.981 131.486 111.115V113.525C131.486 114.659 132.397 115.579 133.521 115.579H135.91C137.034 115.579 137.945 114.659 137.945 113.525V111.115C137.949 109.981 137.034 109.062 135.91 109.062Z" fill="#3F4F6B"/>
<path d="M141.838 94.6859V92.7187C141.838 92.3626 141.55 92.0722 141.197 92.0722H141.187C140.834 92.0722 140.546 91.7818 140.546 91.4257V90.1084C140.546 89.7523 140.834 89.4619 141.187 89.4619H146.368C146.721 89.4619 147.008 89.7523 147.008 90.1084V91.4188C147.008 91.7749 146.721 92.0653 146.368 92.0653C146.015 92.0653 145.727 92.3557 145.727 92.7118V92.7291C145.727 93.0852 146.015 93.3756 146.368 93.3756H146.371C146.724 93.3756 147.012 93.666 147.012 94.0221V95.3394C147.012 95.6955 146.724 95.9859 146.371 95.9859H146.361C146.008 95.9859 145.72 95.6955 145.72 95.3394V95.3325C145.72 94.9764 145.432 94.6859 145.079 94.6859H145.066C144.713 94.6859 144.425 94.3955 144.425 94.0394V94.029C144.425 93.6729 144.137 93.3825 143.784 93.3825H143.77C143.417 93.3825 143.13 93.6729 143.13 94.029V94.036C143.13 94.3921 142.842 94.6825 142.489 94.6825C142.273 94.6825 142.054 94.6825 141.838 94.6859ZM143.777 92.0653C144.134 92.0653 144.418 91.7749 144.418 91.4188V91.4153C144.418 91.0592 144.13 90.7688 143.777 90.7688C143.424 90.7688 143.136 91.0592 143.136 91.4153V91.4188C143.136 91.7749 143.421 92.0653 143.777 92.0653Z" fill="#3F4F6B"/>
<path d="M136.657 101.217V101.877C136.657 102.233 136.944 102.524 137.297 102.524H138.603C138.956 102.524 139.244 102.814 139.244 103.17V103.184C139.244 103.54 138.956 103.831 138.603 103.831H136.006C135.653 103.831 135.365 104.121 135.365 104.477V105.798C135.365 106.154 135.077 106.444 134.724 106.444H130.831C130.478 106.444 130.19 106.154 130.19 105.798V104.488C130.19 104.131 130.478 103.841 130.831 103.841H130.835C131.188 103.841 131.475 104.131 131.475 104.488C131.475 104.844 131.76 105.134 132.116 105.134H133.432C133.785 105.134 134.073 104.844 134.073 104.488V101.22L134.069 101.224C134.93 101.217 135.793 101.22 136.657 101.217Z" fill="#3F4F6B"/>
<path d="M141.834 112.972V113.632C141.834 113.988 142.122 114.279 142.475 114.279H142.489C142.842 114.279 143.13 114.569 143.13 114.925V114.939C143.13 115.295 143.418 115.586 143.771 115.586H143.781C144.134 115.586 144.422 115.876 144.422 116.232V116.246C144.422 116.602 144.134 116.892 143.781 116.892C142.914 116.889 142.044 116.889 141.194 116.889C140.841 116.889 140.553 116.602 140.553 116.246C140.553 115.375 140.553 114.503 140.553 113.629C140.553 113.273 140.841 112.982 141.194 112.982L141.834 112.972Z" fill="#3F4F6B"/>
<path d="M134.07 101.217H132.127C131.77 101.217 131.482 101.507 131.482 101.867C131.482 102.226 131.195 102.517 130.838 102.517C130.482 102.517 130.194 102.226 130.194 101.867V100.57C130.194 100.211 130.482 99.9204 130.838 99.9204H133.422C133.778 99.9204 134.066 100.211 134.066 100.57L134.07 101.217Z" fill="#3F4F6B"/>
<path d="M157.364 103.824C156.932 103.824 156.511 103.824 156.079 103.824C156.079 102.956 156.079 102.095 156.079 101.22C155.647 101.22 155.219 101.22 154.787 101.22C154.787 100.778 154.787 100.349 154.787 99.9169C155.647 99.9169 156.5 99.9169 157.364 99.9169C157.364 101.217 157.364 102.517 157.364 103.824Z" fill="#3F4F6B"/>
<path d="M136.657 101.22V100.567C136.657 100.207 136.945 99.9169 137.301 99.9169H138.596C138.953 99.9169 139.24 100.207 139.24 100.567C139.24 100.926 138.953 101.217 138.596 101.217L136.657 101.22Z" fill="#3F4F6B"/>
<path d="M154.784 106.444V105.573C154.784 105.335 154.976 105.141 155.212 105.141H155.644C155.88 105.141 156.072 105.335 156.072 105.573V106.009C156.072 106.247 155.88 106.441 155.644 106.441L154.784 106.444Z" fill="#3F4F6B"/>
<path d="M156.552 107.755H156.901C157.158 107.755 157.367 107.966 157.367 108.225V108.577C157.367 108.837 157.158 109.048 156.901 109.048H156.552C156.295 109.048 156.086 108.837 156.086 108.577V108.225C156.086 107.966 156.295 107.755 156.552 107.755Z" fill="#3F4F6B"/>
<path d="M145.72 98.6065V97.8044C145.72 97.5278 145.943 97.3065 146.214 97.3065H146.512C146.786 97.3065 147.005 97.5312 147.005 97.8044V98.1052C147.005 98.3817 146.782 98.603 146.512 98.603L145.72 98.6065Z" fill="#3F4F6B"/>
<path d="M141.838 110.362H141.046C140.772 110.362 140.549 110.137 140.549 109.86V109.563C140.549 109.286 140.772 109.062 141.046 109.062H141.838L141.834 109.058C141.834 109.49 141.834 109.926 141.838 110.362Z" fill="#3F4F6B"/>
<path d="M154.784 111.668V110.998C154.784 110.648 155.065 110.368 155.407 110.368H155.445C155.791 110.368 156.069 110.652 156.069 110.998V111.036C156.069 111.385 155.788 111.665 155.445 111.665L154.784 111.668Z" fill="#3F4F6B"/>
<path d="M153.488 102.524H154.269C154.55 102.524 154.777 102.752 154.777 103.035V103.312C154.777 103.595 154.55 103.824 154.269 103.824H153.488L153.492 103.827C153.492 103.395 153.492 102.959 153.488 102.524Z" fill="#3F4F6B"/>
<path d="M146.443 115.582H146.289C145.977 115.582 145.724 115.326 145.724 115.012V114.856C145.724 114.541 145.977 114.286 146.289 114.286H146.443C146.755 114.286 147.009 114.541 147.009 114.856V115.012C147.009 115.326 146.755 115.582 146.443 115.582Z" fill="#3F4F6B"/>
<path d="M149.603 115.586V116.26C149.603 116.605 149.325 116.886 148.982 116.886H148.941C148.599 116.886 148.321 116.605 148.321 116.26V116.218C148.321 115.873 148.599 115.592 148.945 115.592C149.161 115.589 149.383 115.589 149.603 115.586Z" fill="#3F4F6B"/>
<path d="M156.809 116.889H156.641C156.333 116.889 156.082 116.637 156.082 116.325V116.156C156.082 115.845 156.333 115.593 156.641 115.593H156.809C157.117 115.593 157.367 115.845 157.367 116.156V116.325C157.364 116.637 157.117 116.889 156.809 116.889Z" fill="#3F4F6B"/>
<path d="M147.015 105.134H146.166C145.922 105.134 145.727 104.937 145.727 104.691V104.28C145.727 104.035 145.922 103.838 146.166 103.838H146.573C146.817 103.838 147.012 104.035 147.012 104.28L147.015 105.134C147.015 105.137 147.015 105.134 147.015 105.134Z" fill="#3F4F6B"/>
<path d="M135.276 95.986H134.152C133.395 95.986 132.778 95.3636 132.778 94.5996V93.469C132.778 92.7015 133.395 92.0826 134.152 92.0826H135.276C136.033 92.0826 136.65 92.7049 136.65 93.469V94.5996C136.65 95.3671 136.033 95.986 135.276 95.986Z" fill="#3F4F6B"/>
<path d="M150.905 94.5891V93.4759C150.905 92.7049 151.525 92.0791 152.289 92.0791H153.393C154.157 92.0791 154.777 92.7049 154.777 93.4759V94.5891C154.777 95.3601 154.157 95.9859 153.393 95.9859H152.289C151.525 95.9824 150.905 95.3601 150.905 94.5891Z" fill="#3F4F6B"/>
<path d="M132.778 112.937V111.703C132.778 110.967 133.371 110.368 134.1 110.368H135.324C136.054 110.368 136.647 110.967 136.647 111.703V112.937C136.647 113.674 136.054 114.272 135.324 114.272H134.1C133.371 114.272 132.778 113.674 132.778 112.937Z" fill="#3F4F6B"/>
<path d="M133.946 86.3712H131.383C129.67 86.3712 128.279 87.7749 128.279 89.5036V92.6809" stroke="#3F4F6B" stroke-width="3" stroke-miterlimit="10"/>
<path d="M154.561 86.3713H157.138C158.844 86.3713 160.229 87.7681 160.229 89.4899V92.681" stroke="#3F4F6B" stroke-width="3" stroke-miterlimit="10"/>
<path d="M133.946 119.596H131.383C129.67 119.596 128.279 118.193 128.279 116.464V113.287" stroke="#3F4F6B" stroke-width="3" stroke-miterlimit="10"/>
<path d="M154.561 119.596H157.138C158.844 119.596 160.229 118.2 160.229 116.478V113.287" stroke="#3F4F6B" stroke-width="3" stroke-miterlimit="10"/>
<path d="M209.887 108.332L229.06 114.656L217.577 103.361L216.408 106.12L211.474 106.144L209.887 108.332Z" fill="#9EC3F6"/>
<path d="M229.06 114.656L214.181 103.233L198.282 99.5679L229.06 114.656Z" fill="white"/>
<path d="M217.577 103.361L229.06 114.656L221.405 98.8314L217.577 103.361Z" fill="white"/>
<path d="M32.4013 120.291L14.48 122.87L26.3704 114.69L26.9769 117.311L31.3356 118.109L32.4013 120.291Z" fill="#9EC3F6"/>
<path d="M14.48 122.87L29.3927 115.112L44.0108 114.369L14.48 122.87Z" fill="white"/>
<path d="M26.3702 114.69L14.4797 122.87L23.6837 110.085L26.3702 114.69Z" fill="white"/>
<path d="M182.365 113.369L181.152 113.833L173.003 116.958C172.811 117.031 172.619 117.093 172.424 117.141C169.727 117.85 166.856 116.398 165.841 113.712L165.721 113.397C164.639 110.517 166.085 107.267 168.939 106.171L176.536 103.26L177.088 103.049L178.301 102.586C181.155 101.493 184.376 102.952 185.459 105.832L185.579 106.147C186.665 109.024 185.219 112.273 182.365 113.369Z" fill="#FFB27D"/>
<path d="M175.748 113.556C174.387 114.075 171.927 114.998 170.608 115.191C170.234 115.247 169.549 115.043 168.908 114.334C168.524 113.909 168.154 113.307 167.884 112.47C167.757 112.076 167.651 111.686 167.606 111.281C167.555 110.808 167.568 110.334 167.651 109.867C167.726 109.445 168.01 109.062 168.429 108.858C168.429 108.858 168.432 108.858 168.435 108.854C169.837 108.18 171.722 107.357 173.377 106.897C174.521 106.579 175.679 107.087 176.039 108.097L176.21 108.567L177.084 110.984C177.447 111.986 176.858 113.134 175.748 113.556Z" fill="#FFD3B6"/>
<path d="M175.748 113.556C174.387 114.075 171.927 114.998 170.608 115.191C170.234 115.247 169.549 115.043 168.908 114.334C168.84 114.171 168.778 114.002 168.716 113.822C168.589 113.428 168.483 113.037 168.439 112.633C168.387 112.159 168.401 111.686 168.483 111.219C168.559 110.797 168.843 110.413 169.261 110.209C169.261 110.209 169.264 110.209 169.268 110.206C170.669 109.532 172.554 108.709 174.209 108.249C174.943 108.045 175.679 108.18 176.21 108.571L177.084 110.987C177.447 111.986 176.858 113.134 175.748 113.556Z" fill="#FFC197"/>
<path d="M178.667 124.582L172.383 126.307C170.474 126.832 168.487 125.685 167.966 123.759L167.774 123.04C167.253 121.114 168.391 119.109 170.3 118.583L176.584 116.858C178.493 116.332 180.48 117.48 181.001 119.406L181.196 120.125C181.714 122.051 180.576 124.056 178.667 124.582Z" fill="#FFB27D"/>
<path d="M175.268 124.271C174.113 124.582 172.027 125.131 170.933 125.19C170.536 125.214 169.738 124.872 169.22 123.818C169.093 123.562 168.984 123.265 168.898 122.922C168.823 122.611 168.764 122.303 168.758 121.989C168.751 121.619 168.795 121.259 168.898 120.903C168.987 120.582 169.251 120.305 169.607 120.177C169.611 120.177 169.611 120.177 169.614 120.174C170.81 119.748 172.421 119.237 173.812 118.991C174.771 118.822 175.683 119.289 175.909 120.087L176.07 120.658L176.553 122.373C176.779 123.175 176.21 124.018 175.268 124.271Z" fill="#FFD3B6"/>
<path d="M175.268 124.27C174.113 124.582 172.026 125.131 170.933 125.19C170.536 125.214 169.737 124.872 169.22 123.818C169.152 123.527 169.1 123.237 169.093 122.943C169.086 122.576 169.131 122.213 169.234 121.857C169.326 121.539 169.587 121.259 169.943 121.131C169.946 121.131 169.946 121.131 169.95 121.128C171.146 120.703 172.756 120.191 174.148 119.949C174.942 119.807 175.707 120.104 176.073 120.661L176.556 122.376C176.779 123.175 176.21 124.018 175.268 124.27Z" fill="#FFC197"/>
<path d="M182.166 100.871C182.121 100.889 182.077 100.902 182.029 100.916L173.791 103.049C170.169 103.99 166.424 102.012 165.468 98.6551L164.978 96.9368C164.059 93.7146 166.033 90.3437 169.402 89.2512L172.122 88.5459L177.643 87.118C181.265 86.1776 185.01 88.1552 185.966 91.5123L186.456 93.2305C187.357 96.4113 185.449 99.7303 182.166 100.871Z" fill="#FFB27D"/>
<path d="M178.389 98.5513L174.387 100.37C174.38 100.37 174.373 100.373 174.363 100.377C174.202 100.422 174.041 100.453 173.88 100.477C173.811 100.487 173.743 100.494 173.678 100.501C173.65 100.505 173.62 100.505 173.592 100.501C173.15 100.487 172.849 100.014 173.041 99.592C173.417 98.7622 173.52 97.7976 173.267 96.8538L173.171 96.5011C173.171 96.4977 173.171 96.4942 173.167 96.4908L172.859 95.3429C172.612 94.4302 172.091 93.6627 171.409 93.1095C171.327 93.0403 171.242 92.9781 171.156 92.9193C170.364 92.3662 170.566 91.1146 171.492 90.8553C171.502 90.8518 171.509 90.8519 171.516 90.8484L175.909 90.1777C176.995 89.8803 178.04 90.7239 178.338 91.8199L178.691 93.1268L179.441 95.9099C179.733 97.0128 179.476 98.254 178.389 98.5513Z" fill="#FFD3B6"/>
<path d="M178.39 98.5513L174.387 100.37C174.38 100.37 174.374 100.373 174.363 100.377C174.271 100.394 173.976 100.446 173.592 100.505C173.15 100.491 172.849 100.017 173.041 99.5954C173.418 98.7657 173.52 97.8011 173.267 96.8572L173.171 96.5046C173.171 96.5011 173.171 96.4976 173.167 96.4942L172.859 95.3464C172.612 94.4336 172.091 93.6661 171.409 93.1129C171.55 92.9055 171.762 92.7395 172.04 92.66C172.047 92.6566 172.057 92.6565 172.064 92.6531L176.457 91.9824C177.372 91.73 178.256 92.2901 178.691 93.1267L179.441 95.9099C179.733 97.0128 179.476 98.254 178.39 98.5513Z" fill="#FFC197"/>
<path d="M161.256 133.087H126.305C125.832 133.087 125.448 132.699 125.448 132.222C125.448 131.745 125.832 131.358 126.305 131.358H161.256C161.729 131.358 162.113 131.745 162.113 132.222C162.113 132.699 161.729 133.087 161.256 133.087Z" fill="#64B3FF"/>
<path d="M161.257 137.581H126.305C125.832 137.581 125.448 137.194 125.448 136.717C125.448 136.24 125.832 135.853 126.305 135.853H161.257C161.73 135.853 162.113 136.24 162.113 136.717C162.113 137.194 161.73 137.581 161.257 137.581Z" fill="#64B3FF"/>
<path d="M149.263 142.076H126.305C125.832 142.076 125.448 141.688 125.448 141.211C125.448 140.734 125.832 140.347 126.305 140.347H149.263C149.736 140.347 150.12 140.734 150.12 141.211C150.12 141.688 149.736 142.076 149.263 142.076Z" fill="#64B3FF"/>
<path d="M141.725 146.57H126.305C125.832 146.57 125.448 146.183 125.448 145.706C125.448 145.229 125.832 144.842 126.305 144.842H141.725C142.198 144.842 142.581 145.229 142.581 145.706C142.581 146.183 142.198 146.57 141.725 146.57Z" fill="#FD6767"/>
<path d="M53.9958 237.004C53.9958 237.004 87.7551 243.725 120.168 237.035L53.9958 237.004Z" fill="#F99746"/>
<path d="M92.8573 0H75.1415C75.0935 1.40022 73.9662 2.52385 72.5784 2.54459V28.5852C73.9353 28.606 75.0388 29.6743 75.1381 31.0261H92.8607C94.831 31.0261 96.4313 29.4081 96.4313 27.4098V3.61638C96.4278 1.6215 94.8276 0 92.8573 0Z" fill="#7E7E7E"/>
<path d="M18.3483 31.0297H71.5264C72.3111 31.0297 72.945 30.39 72.945 29.5983V1.43488C72.945 0.643152 72.3111 0.00354004 71.5264 0.00354004H18.3483C17.5636 0.00354004 16.9297 0.643152 16.9297 1.43488V29.5983C16.9297 30.39 17.5636 31.0297 18.3483 31.0297Z" fill="#7E7E7E"/>
<path d="M79.0274 5.46596H92.5832C93.0835 5.46596 93.4878 5.05799 93.4878 4.55322C93.4878 4.04845 93.0835 3.6405 92.5832 3.6405H79.0274C78.5271 3.6405 78.1228 4.04845 78.1228 4.55322C78.1228 5.05799 78.5271 5.46596 79.0274 5.46596Z" fill="white"/>
<path d="M92.0452 27.5722H92.1343C92.4188 27.5722 92.6483 27.3406 92.6483 27.0536V20.4847C92.6483 20.1977 92.4188 19.9661 92.1343 19.9661H92.0452C91.7608 19.9661 91.5312 20.1977 91.5312 20.4847V27.0536C91.5312 27.3406 91.7608 27.5722 92.0452 27.5722Z" fill="white"/>
<path d="M90.6505 27.5722H90.7396C91.024 27.5722 91.2536 27.3406 91.2536 27.0536V20.4847C91.2536 20.1977 91.024 19.9661 90.7396 19.9661H90.6505C90.3661 19.9661 90.1365 20.1977 90.1365 20.4847V27.0536C90.1365 27.3406 90.3661 27.5722 90.6505 27.5722Z" fill="white"/>
<path d="M89.2525 27.5722H89.3416C89.626 27.5722 89.8556 27.3406 89.8556 27.0536V20.4847C89.8556 20.1977 89.626 19.9661 89.3416 19.9661H89.2525C88.9681 19.9661 88.7385 20.1977 88.7385 20.4847V27.0536C88.7385 27.3406 88.9681 27.5722 89.2525 27.5722Z" fill="white"/>
<path d="M87.8543 27.5722H87.9434C88.2278 27.5722 88.4574 27.3406 88.4574 27.0536V20.4847C88.4574 20.1977 88.2278 19.9661 87.9434 19.9661H87.8543C87.5699 19.9661 87.3403 20.1977 87.3403 20.4847V27.0536C87.3403 27.3406 87.5733 27.5722 87.8543 27.5722Z" fill="white"/>
<path d="M86.4598 27.5722H86.5489C86.8333 27.5722 87.0629 27.3406 87.0629 27.0536V20.4847C87.0629 20.1977 86.8333 19.9661 86.5489 19.9661H86.4598C86.1754 19.9661 85.9458 20.1977 85.9458 20.4847V27.0536C85.9458 27.3406 86.1754 27.5722 86.4598 27.5722Z" fill="white"/>
<path d="M85.0618 27.5722H85.1509C85.4354 27.5722 85.6649 27.3406 85.6649 27.0536V20.4847C85.6649 20.1977 85.4354 19.9661 85.1509 19.9661H85.0618C84.7774 19.9661 84.5479 20.1977 84.5479 20.4847V27.0536C84.5479 27.3406 84.7774 27.5722 85.0618 27.5722Z" fill="white"/>
<path d="M83.6668 27.5722H83.7559C84.0403 27.5722 84.2699 27.3406 84.2699 27.0536V20.4847C84.2699 20.1977 84.0403 19.9661 83.7559 19.9661H83.6668C83.3824 19.9661 83.1528 20.1977 83.1528 20.4847V27.0536C83.1528 27.3406 83.3824 27.5722 83.6668 27.5722Z" fill="white"/>
<path d="M82.2689 27.5722H82.358C82.6424 27.5722 82.872 27.3406 82.872 27.0536V20.4847C82.872 20.1977 82.6424 19.9661 82.358 19.9661H82.2689C81.9845 19.9661 81.7549 20.1977 81.7549 20.4847V27.0536C81.7549 27.3406 81.9845 27.5722 82.2689 27.5722Z" fill="white"/>
<path d="M80.8743 27.5722H80.9634C81.2479 27.5722 81.4774 27.3406 81.4774 27.0536V20.4847C81.4774 20.1977 81.2479 19.9661 80.9634 19.9661H80.8743C80.5899 19.9661 80.3604 20.1977 80.3604 20.4847V27.0536C80.3604 27.3406 80.5899 27.5722 80.8743 27.5722Z" fill="white"/>
<path d="M20.3908 28.2637H69.9983C70.7761 28.2637 71.4032 27.6275 71.4032 26.8462V3.54372C71.4032 2.7589 70.7727 2.12622 69.9983 2.12622H20.3908C19.6129 2.12622 18.9858 2.76236 18.9858 3.54372V26.8427C18.9858 27.6275 19.6164 28.2637 20.3908 28.2637Z" fill="white"/>
<path d="M75.0219 5.46609H75.3406C75.4331 5.46609 75.5085 5.39003 75.5085 5.29668V4.72275C75.5085 4.6294 75.4331 4.55334 75.3406 4.55334H75.0219C74.9294 4.55334 74.854 4.6294 74.854 4.72275V5.29668C74.8574 5.39349 74.9294 5.46609 75.0219 5.46609Z" fill="white"/>
<path d="M75.0217 3.94824H75.3403C75.4328 3.94824 75.5082 3.87218 75.5082 3.77884V3.20493C75.5082 3.11158 75.4328 3.03552 75.3403 3.03552H75.0217C74.9291 3.03552 74.8538 3.11158 74.8538 3.20493V3.77884C74.8572 3.87218 74.9291 3.94824 75.0217 3.94824Z" fill="white"/>
<path d="M75.0219 6.98733H75.3406C75.4331 6.98733 75.5085 6.91125 75.5085 6.8179V6.24399C75.5085 6.15064 75.4331 6.07458 75.3406 6.07458H75.0219C74.9294 6.07458 74.854 6.15064 74.854 6.24399V6.8179C74.8574 6.91125 74.9294 6.98733 75.0219 6.98733Z" fill="white"/>
<path d="M75.0219 8.50513H75.3406C75.4331 8.50513 75.5085 8.42907 75.5085 8.33572V7.76181C75.5085 7.66847 75.4331 7.59241 75.3406 7.59241H75.0219C74.9294 7.59241 74.854 7.66847 74.854 7.76181V8.33572C74.8574 8.42907 74.9294 8.50513 75.0219 8.50513Z" fill="white"/>
<path d="M75.0219 10.0228H75.3406C75.4331 10.0228 75.5085 9.94679 75.5085 9.85344V9.27953C75.5085 9.18619 75.4331 9.11011 75.3406 9.11011H75.0219C74.9294 9.11011 74.854 9.18619 74.854 9.27953V9.85344C74.8574 9.94679 74.9294 10.0228 75.0219 10.0228Z" fill="white"/>
<path d="M75.0219 11.5407H75.3406C75.4331 11.5407 75.5085 11.4646 75.5085 11.3713V10.7973C75.5085 10.704 75.4331 10.6279 75.3406 10.6279H75.0219C74.9294 10.6279 74.854 10.704 74.854 10.7973V11.3713C74.8574 11.4646 74.9294 11.5407 75.0219 11.5407Z" fill="white"/>
<path d="M75.0219 13.0619H75.3406C75.4331 13.0619 75.5085 12.9858 75.5085 12.8925V12.3186C75.5085 12.2252 75.4331 12.1492 75.3406 12.1492H75.0219C74.9294 12.1492 74.854 12.2252 74.854 12.3186V12.8925C74.8574 12.9858 74.9294 13.0619 75.0219 13.0619Z" fill="white"/>
<path d="M75.0219 14.5796H75.3406C75.4331 14.5796 75.5085 14.5035 75.5085 14.4102V13.8363C75.5085 13.7429 75.4331 13.6669 75.3406 13.6669H75.0219C74.9294 13.6669 74.854 13.7429 74.854 13.8363V14.4102C74.8574 14.5035 74.9294 14.5796 75.0219 14.5796Z" fill="white"/>
<path d="M75.0219 16.0974H75.3406C75.4331 16.0974 75.5085 16.0214 75.5085 15.928V15.3541C75.5085 15.2608 75.4331 15.1847 75.3406 15.1847H75.0219C74.9294 15.1847 74.854 15.2608 74.854 15.3541V15.928C74.8574 16.0214 74.9294 16.0974 75.0219 16.0974Z" fill="white"/>
<path d="M75.0219 17.6153H75.3406C75.4331 17.6153 75.5085 17.5392 75.5085 17.4459V16.8719C75.5085 16.7786 75.4331 16.7025 75.3406 16.7025H75.0219C74.9294 16.7025 74.854 16.7786 74.854 16.8719V17.4459C74.8574 17.5392 74.9294 17.6153 75.0219 17.6153Z" fill="white"/>
<path d="M75.0219 19.133H75.3406C75.4331 19.133 75.5085 19.0569 75.5085 18.9635V18.3896C75.5085 18.2963 75.4331 18.2202 75.3406 18.2202H75.0219C74.9294 18.2202 74.854 18.2963 74.854 18.3896V18.9635C74.8574 19.0603 74.9294 19.133 75.0219 19.133Z" fill="white"/>
<path d="M75.0219 20.6542H75.3406C75.4331 20.6542 75.5085 20.5781 75.5085 20.4848V19.9109C75.5085 19.8175 75.4331 19.7415 75.3406 19.7415H75.0219C74.9294 19.7415 74.854 19.8175 74.854 19.9109V20.4848C74.8574 20.5781 74.9294 20.6542 75.0219 20.6542Z" fill="white"/>
<path d="M75.0219 22.172H75.3406C75.4331 22.172 75.5085 22.096 75.5085 22.0026V21.4287C75.5085 21.3353 75.4331 21.2593 75.3406 21.2593H75.0219C74.9294 21.2593 74.854 21.3353 74.854 21.4287V22.0026C74.8574 22.096 74.9294 22.172 75.0219 22.172Z" fill="white"/>
<path d="M75.0219 23.6897H75.3406C75.4331 23.6897 75.5085 23.6137 75.5085 23.5203V22.9464C75.5085 22.853 75.4331 22.777 75.3406 22.777H75.0219C74.9294 22.777 74.854 22.853 74.854 22.9464V23.5203C74.8574 23.6137 74.9294 23.6897 75.0219 23.6897Z" fill="white"/>
<path d="M75.0219 25.2075H75.3406C75.4331 25.2075 75.5085 25.1315 75.5085 25.0381V24.4642C75.5085 24.3709 75.4331 24.2948 75.3406 24.2948H75.0219C74.9294 24.2948 74.854 24.3709 74.854 24.4642V25.0381C74.8574 25.1315 74.9294 25.2075 75.0219 25.2075Z" fill="white"/>
<path d="M75.0219 26.9362H75.3406C75.4331 26.9362 75.5085 26.8601 75.5085 26.7668V26.1928C75.5085 26.0995 75.4331 26.0234 75.3406 26.0234H75.0219C74.9294 26.0234 74.854 26.0995 74.854 26.1928V26.7668C74.8574 26.8601 74.9294 26.9362 75.0219 26.9362Z" fill="white"/>
<path d="M54.9346 6.98723H23.3135C22.8132 6.98723 22.4089 6.57926 22.4089 6.07448C22.4089 5.56971 22.8132 5.16174 23.3135 5.16174H54.9346C55.4349 5.16174 55.8393 5.56971 55.8393 6.07448C55.8393 6.57926 55.4349 6.98723 54.9346 6.98723Z" fill="#7E7E7E"/>
<path d="M40.7792 12.149H23.317C22.8167 12.149 22.4124 11.741 22.4124 11.2362C22.4124 10.7315 22.8167 10.3235 23.317 10.3235H40.7792C41.2795 10.3235 41.6838 10.7315 41.6838 11.2362C41.6804 11.741 41.2761 12.149 40.7792 12.149Z" fill="#7E7E7E"/>
<path d="M37.8288 26.3345H23.3135C22.8132 26.3345 22.4089 25.9265 22.4089 25.4218C22.4089 24.917 22.8132 24.509 23.3135 24.509H37.8288C38.3291 24.509 38.7334 24.917 38.7334 25.4218C38.7334 25.9265 38.3291 26.3345 37.8288 26.3345Z" fill="#7E7E7E"/>
<path d="M63.8748 26.5351C66.335 26.5351 68.3294 24.5228 68.3294 22.0406C68.3294 19.5583 66.335 17.546 63.8748 17.546C61.4146 17.546 59.4202 19.5583 59.4202 22.0406C59.4202 24.5228 61.4146 26.5351 63.8748 26.5351Z" fill="#7E7E7E"/>
<path d="M85.6919 16.2667C85.6953 15.9659 85.6987 15.6616 85.7021 15.3608L85.9454 15.3643C86.0791 15.3643 86.1888 15.2675 86.1888 15.143V15.1361C86.1888 15.0117 86.0825 14.9114 85.9489 14.9079L85.7056 14.9045C85.7056 14.8284 85.7056 14.7524 85.7056 14.6763C85.7056 14.5518 85.8152 14.4516 85.9489 14.455L86.4424 14.4585C86.576 14.4585 86.6856 14.3617 86.6856 14.2372V14.2337C86.6856 14.1093 86.7953 14.009 86.9289 14.0125H86.9323C87.066 14.0125 87.1722 14.1162 87.1722 14.2407C87.1722 14.3651 87.2784 14.4654 87.412 14.4688H87.4189C87.5525 14.4688 87.6622 14.372 87.6622 14.2476L87.669 13.5665C87.6896 13.5665 87.7102 13.5665 87.7308 13.5665C88.118 13.5699 88.5052 13.5734 88.8924 13.5769C89.026 13.5769 89.1322 13.6806 89.1322 13.805V13.8085C89.1322 13.933 89.2384 14.0332 89.3721 14.0367H89.3755C89.5091 14.0367 89.6188 13.9399 89.6188 13.8154V13.812C89.6188 13.6875 89.5126 13.5872 89.3789 13.5838H89.3755C89.2419 13.5838 89.1356 13.4801 89.1356 13.3556V13.3487C89.1356 13.2242 89.0294 13.1239 88.8958 13.1205L88.4024 13.117C88.2687 13.117 88.1625 13.0133 88.1625 12.8889L88.1659 12.4359C88.1659 12.3115 88.0597 12.2112 87.926 12.2077L86.9426 12.1974C86.809 12.1974 86.6994 12.2942 86.6994 12.4186V12.4221C86.6994 12.5466 86.5896 12.6468 86.456 12.6434L85.966 12.6399C85.8324 12.6399 85.7227 12.7367 85.7227 12.8612L85.7193 13.321C85.7193 13.4455 85.8255 13.5457 85.9591 13.5492C86.0928 13.5492 86.199 13.6529 86.199 13.7774V13.7808C86.199 13.9053 86.0894 14.0056 85.9557 14.0021H85.9523C85.8186 14.0021 85.709 14.0989 85.709 14.2234V14.2268C85.709 14.3513 85.5994 14.4516 85.4657 14.4481H85.4623C85.3287 14.4481 85.2224 14.3444 85.2224 14.2199V14.213C85.2224 14.0885 85.1162 13.9883 84.9826 13.9848L84.0025 13.9744C83.8689 13.9744 83.7627 13.8707 83.7627 13.7463V13.7428C83.7627 13.6183 83.8723 13.5181 84.006 13.5215L84.986 13.5319C85.1197 13.5319 85.2293 13.4351 85.2293 13.3106L85.2601 10.1333C85.2601 10.0089 85.3698 9.90862 85.5035 9.91207L85.7536 9.91553C85.7502 10.3512 85.7467 10.7868 85.7433 11.2259C85.7433 11.2397 85.7433 11.257 85.7433 11.2743L85.99 11.2777C86.1237 11.2777 86.2333 11.1809 86.2333 11.0565L86.2367 10.6035C86.2367 10.4791 86.3464 10.3788 86.48 10.3823H86.4834C86.6171 10.3823 86.7233 10.486 86.7233 10.6105L86.7198 11.0668C86.7198 11.1913 86.8261 11.2916 86.9598 11.295L87.2099 11.2985L87.2065 11.5267C87.2065 11.6511 87.3127 11.7514 87.4463 11.7548L89.4029 11.7756C89.5366 11.7756 89.6428 11.8793 89.6428 12.0038V12.0072C89.6428 12.1317 89.749 12.232 89.8826 12.2354H89.8895C90.0231 12.2354 90.1294 12.3391 90.1294 12.4636L90.126 12.6952L89.8826 12.6918C89.749 12.6918 89.6394 12.7886 89.6394 12.913V12.92C89.6394 13.0444 89.7456 13.1447 89.8792 13.1482L90.1226 13.1516L90.1157 13.8362C90.1157 13.9606 90.2219 14.0609 90.3556 14.0643L90.6023 14.0678L90.5954 14.7489C90.5954 14.8733 90.4858 14.9736 90.3521 14.9702H90.3487C90.2151 14.9702 90.1054 15.067 90.1054 15.1914L90.102 15.6513C90.102 15.7757 90.2082 15.876 90.3418 15.8794L90.5851 15.8829L90.5817 16.1111C90.5817 16.2355 90.6879 16.3358 90.8215 16.3393L91.315 16.3427C91.4487 16.3427 91.5549 16.4464 91.5549 16.5709V16.5744C91.5549 16.6988 91.4452 16.7991 91.3116 16.7956L90.3315 16.7853C90.1979 16.7853 90.0883 16.8821 90.0883 17.0065L90.0848 17.4629C90.0848 17.5874 89.9752 17.6876 89.8416 17.6842H89.8381C89.7045 17.6842 89.5983 17.5804 89.5983 17.456V17.4525C89.5983 17.3281 89.4921 17.2278 89.3584 17.2243L88.6217 17.2174L88.6251 16.9892C88.6251 16.8648 88.5189 16.7645 88.3852 16.7611H88.3818C88.2482 16.7611 88.142 16.6573 88.142 16.5329V16.5294C88.142 16.405 88.2516 16.3047 88.3852 16.3081L88.8752 16.3116C89.0089 16.3116 89.1185 16.2148 89.1185 16.0903V16.0869C89.1185 15.9624 89.0123 15.8622 88.8786 15.8587L86.9255 15.838C86.7918 15.838 86.6822 15.9348 86.6822 16.0592V16.0627C86.6822 16.1872 86.5726 16.2874 86.4389 16.2839L85.6919 16.2667ZM88.6422 14.7005C88.6422 14.5726 88.5326 14.4723 88.4024 14.4723H88.399C88.2653 14.4723 88.1591 14.5726 88.1591 14.697V14.7005C88.1591 14.825 88.2687 14.9252 88.399 14.9252H88.4024C88.536 14.9252 88.6422 15.0255 88.6422 15.1499V15.1534C88.6422 15.2779 88.7519 15.3781 88.8821 15.3781H89.3721C89.5057 15.3781 89.612 15.2779 89.612 15.1534C89.612 15.0289 89.5023 14.9287 89.3721 14.9287H88.8821C88.7519 14.9252 88.6422 14.825 88.6422 14.7005ZM87.4223 14.9287C87.2887 14.9287 87.179 15.0289 87.179 15.1534C87.179 15.2779 87.2887 15.3781 87.4223 15.3781C87.556 15.3781 87.6622 15.2779 87.6622 15.1534C87.6656 15.0289 87.556 14.9287 87.4223 14.9287ZM88.8855 12.6572C89.0191 12.6572 89.1254 12.5569 89.1254 12.4325C89.1254 12.308 89.0157 12.2077 88.8855 12.2077C88.7519 12.2077 88.6422 12.308 88.6422 12.4325C88.6457 12.5569 88.7519 12.6572 88.8855 12.6572Z" fill="white"/>
<path d="M81.3198 10.5794V8.84384C81.3198 8.44971 81.6659 8.12817 82.0908 8.12817H83.9618C84.3867 8.12817 84.7328 8.44971 84.7328 8.84384V10.5794C84.7328 10.9735 84.3867 11.2951 83.9618 11.2951H82.0908C81.6659 11.2985 81.3198 10.977 81.3198 10.5794ZM81.8099 9.29675V10.1265C81.8099 10.5206 82.156 10.8422 82.5809 10.8422H83.4752C83.9001 10.8422 84.2462 10.5206 84.2462 10.1265V9.29675C84.2462 8.90262 83.9001 8.58108 83.4752 8.58108H82.5809C82.156 8.58108 81.8099 8.90262 81.8099 9.29675Z" fill="white"/>
<path d="M90.8148 11.2984H88.913C88.495 11.2984 88.1592 10.9838 88.1592 10.5966V8.82988C88.1592 8.44266 88.4984 8.12805 88.913 8.12805H90.8148C91.2329 8.12805 91.5687 8.44266 91.5687 8.82988V10.5966C91.5687 10.9838 91.2329 11.2984 90.8148 11.2984ZM90.3282 8.58442H89.403C88.985 8.58442 88.6492 8.89903 88.6492 9.28625V10.1437C88.6492 10.5309 88.9884 10.8455 89.403 10.8455H90.3282C90.7462 10.8455 91.082 10.5309 91.082 10.1437V9.28625C91.082 8.89557 90.7462 8.58442 90.3282 8.58442Z" fill="white"/>
<path d="M82.0906 14.4723H83.9684C84.3933 14.4723 84.7359 14.7904 84.7359 15.1845V16.927C84.7359 17.3211 84.3933 17.6392 83.9684 17.6392H82.0906C81.6657 17.6392 81.323 17.3211 81.323 16.927V15.1845C81.323 14.7938 81.6657 14.4723 82.0906 14.4723ZM83.4784 14.9287H82.5772C82.1523 14.9287 81.8096 15.2467 81.8096 15.6409V16.4775C81.8096 16.8717 82.1523 17.1897 82.5772 17.1897H83.4784C83.9033 17.1897 84.2459 16.8717 84.2459 16.4775V15.6409C84.2459 15.2467 83.9033 14.9287 83.4784 14.9287Z" fill="white"/>
<path d="M85.716 9.93969V9.25861C85.716 9.13414 85.6064 9.03387 85.4762 9.03387H85.4728C85.3391 9.03387 85.2329 8.9336 85.2329 8.80914V8.35277C85.2329 8.2283 85.3425 8.12805 85.4728 8.12805H87.4259C87.5596 8.12805 87.6658 8.2283 87.6658 8.35277V8.80568C87.6658 8.93014 87.5561 9.03041 87.4259 9.03041C87.2923 9.03041 87.1861 9.13068 87.1861 9.25515V9.26205C87.1861 9.38651 87.2957 9.48678 87.4259 9.48678C87.5596 9.48678 87.6658 9.58705 87.6658 9.71152V10.1679C87.6658 10.2923 87.5561 10.3926 87.4259 10.3926H87.4225C87.2889 10.3926 87.1826 10.2923 87.1826 10.1679V10.1644C87.1826 10.04 87.073 9.93969 86.9428 9.93969H86.9394C86.8057 9.93969 86.6995 9.83942 86.6995 9.71496V9.71152C86.6995 9.58705 86.5898 9.48678 86.4596 9.48678H86.4562C86.3225 9.48678 86.2163 9.58705 86.2163 9.71152V9.71496C86.2163 9.83942 86.1067 9.93969 85.9765 9.93969C85.8805 9.93969 85.7948 9.93969 85.716 9.93969ZM86.446 9.03041C86.5796 9.03041 86.6892 8.93014 86.6892 8.80568C86.6892 8.68121 86.5795 8.58096 86.4493 8.58096C86.3157 8.58096 86.2095 8.68121 86.2095 8.80568C86.2026 8.93014 86.3123 9.03041 86.446 9.03041Z" fill="white"/>
<path d="M83.7594 12.2043V12.4325C83.7594 12.557 83.869 12.6573 83.9992 12.6573H84.4926C84.6263 12.6573 84.7326 12.7575 84.7326 12.882V12.8855C84.7326 13.0099 84.6229 13.1102 84.4926 13.1102H83.5127C83.379 13.1102 83.2728 13.2104 83.2728 13.3349V13.7947C83.2728 13.9192 83.1665 14.0194 83.0329 14.0194H81.5629C81.4293 14.0194 81.323 13.9192 81.323 13.7947V13.3418C81.323 13.2174 81.4293 13.1171 81.5629 13.1171C81.6966 13.1171 81.8028 13.2174 81.8028 13.3418C81.8028 13.4663 81.909 13.5665 82.0426 13.5665H82.5395C82.6731 13.5665 82.7793 13.4663 82.7793 13.3418V12.2078C83.1083 12.2078 83.4338 12.2078 83.7594 12.2043Z" fill="white"/>
<path d="M85.7127 16.2841V16.5123C85.7127 16.6367 85.8223 16.737 85.9525 16.737H85.9559C86.0896 16.737 86.1958 16.8372 86.1958 16.9617V16.9652C86.1958 17.0896 86.3055 17.1899 86.4357 17.1899H86.4391C86.5728 17.1899 86.679 17.2901 86.679 17.4146V17.4181C86.679 17.5425 86.5694 17.6428 86.4357 17.6428C86.1102 17.6428 85.7812 17.6428 85.4591 17.6428C85.3254 17.6428 85.2192 17.5425 85.2192 17.4181C85.2192 17.1173 85.2192 16.813 85.2192 16.5088C85.2192 16.3843 85.3289 16.2841 85.4591 16.2841H85.7127Z" fill="white"/>
<path d="M82.7862 12.2043H82.0529C81.9193 12.2043 81.8096 12.3046 81.8096 12.4291C81.8096 12.5535 81.6999 12.6538 81.5663 12.6538C81.4326 12.6538 81.323 12.5535 81.323 12.4291V11.9796C81.323 11.8552 81.4326 11.7549 81.5663 11.7549H82.5395C82.6731 11.7549 82.7828 11.8552 82.7828 11.9796L82.7862 12.2043Z" fill="white"/>
<path d="M91.5689 13.1102C91.4078 13.1102 91.2467 13.1102 91.0857 13.1102C91.0857 12.8094 91.0857 12.5086 91.0857 12.2078C90.9212 12.2078 90.7602 12.2078 90.5991 12.2078C90.5991 12.0557 90.5991 11.907 90.5991 11.7549C90.9212 11.7549 91.2468 11.7549 91.5689 11.7549C91.5689 12.2043 91.5689 12.6572 91.5689 13.1102Z" fill="white"/>
<path d="M83.7627 12.2078V11.983C83.7627 11.8586 83.8723 11.7583 84.006 11.7583H84.496C84.6296 11.7583 84.7392 11.8586 84.7392 11.983C84.7392 12.1075 84.6296 12.2078 84.496 12.2078H83.7627Z" fill="white"/>
<path d="M90.5991 14.0194V13.7186C90.5991 13.6356 90.6711 13.5699 90.7602 13.5699H90.9246C91.0137 13.5699 91.0857 13.6356 91.0857 13.7186V13.8707C91.0857 13.9537 91.0137 14.0194 90.9246 14.0194H90.5991Z" fill="white"/>
<path d="M91.2636 14.4758H91.3939C91.4898 14.4758 91.5686 14.5484 91.5686 14.6383V14.7628C91.5686 14.8527 91.4898 14.9253 91.3939 14.9253H91.2636C91.1677 14.9253 91.0889 14.8527 91.0889 14.7628V14.6383C91.0889 14.5484 91.1643 14.4758 91.2636 14.4758Z" fill="white"/>
<path d="M87.1792 11.302V11.0254C87.1792 10.9286 87.2615 10.8525 87.3643 10.8525H87.4773C87.5801 10.8525 87.6623 10.9286 87.6623 11.0254V11.1291C87.6623 11.2259 87.5801 11.302 87.4773 11.302H87.1792Z" fill="white"/>
<path d="M85.716 15.3782H85.418C85.3152 15.3782 85.2295 15.2986 85.2295 15.2053V15.1016C85.2295 15.0048 85.3152 14.9287 85.418 14.9287H85.716C85.7126 15.0774 85.7126 15.2295 85.716 15.3782Z" fill="white"/>
<path d="M90.5991 15.8346V15.6029C90.5991 15.4819 90.7053 15.3851 90.8355 15.3851H90.8493C90.9795 15.3851 91.0857 15.4819 91.0857 15.6029V15.6168C91.0857 15.7378 90.9795 15.8346 90.8493 15.8346H90.5991Z" fill="white"/>
<path d="M90.1091 12.6608H90.4038C90.51 12.6608 90.5957 12.7403 90.5957 12.8371V12.9339C90.5957 13.0307 90.51 13.1102 90.4038 13.1102H90.1091C90.1091 12.9616 90.1091 12.8094 90.1091 12.6608Z" fill="white"/>
<path d="M87.4499 17.1898H87.3916C87.2751 17.1898 87.1792 17.0999 87.1792 16.9928V16.9374C87.1792 16.8268 87.2751 16.7404 87.3916 16.7404H87.4499C87.5664 16.7404 87.6623 16.8302 87.6623 16.9374V16.9928C87.6658 17.1034 87.5698 17.1898 87.4499 17.1898Z" fill="white"/>
<path d="M88.6423 17.1898V17.4249C88.6423 17.5459 88.5361 17.6428 88.4093 17.6428H88.3922C88.262 17.6428 88.1592 17.5459 88.1592 17.4249V17.4111C88.1592 17.2901 88.2654 17.1933 88.3922 17.1933C88.4778 17.1933 88.5601 17.1933 88.6423 17.1898Z" fill="white"/>
<path d="M91.3596 17.6428H91.2979C91.1814 17.6428 91.0889 17.5563 91.0889 17.4492V17.3904C91.0889 17.2832 91.1814 17.1968 91.2979 17.1968H91.3596C91.4761 17.1968 91.5686 17.2832 91.5686 17.3904V17.4492C91.5721 17.5563 91.4761 17.6428 91.3596 17.6428Z" fill="white"/>
<path d="M87.6694 13.5665H87.3473C87.2548 13.5665 87.1829 13.4973 87.1829 13.4143V13.2726C87.1829 13.1862 87.2582 13.1205 87.3473 13.1205H87.5015C87.594 13.1205 87.666 13.1896 87.666 13.2726L87.6694 13.5665C87.666 13.5665 87.6694 13.5665 87.6694 13.5665Z" fill="white"/>
<path d="M83.2387 10.3927H82.8138C82.526 10.3927 82.2964 10.1784 82.2964 9.91217V9.51805C82.2964 9.25184 82.5294 9.03748 82.8138 9.03748H83.2387C83.5266 9.03748 83.7561 9.25184 83.7561 9.51805V9.91217C83.7596 10.1749 83.5266 10.3927 83.2387 10.3927Z" fill="white"/>
<path d="M89.1323 9.90519V9.51797C89.1323 9.25176 89.3653 9.03394 89.6532 9.03394H90.0678C90.3556 9.03394 90.5886 9.25176 90.5886 9.51797V9.90519C90.5886 10.1714 90.3556 10.3892 90.0678 10.3892H89.6532C89.3688 10.3892 89.1323 10.1749 89.1323 9.90519Z" fill="white"/>
<path d="M82.2964 16.2736V15.8449C82.2964 15.589 82.5191 15.3816 82.7967 15.3816H83.2593C83.5334 15.3816 83.7596 15.589 83.7596 15.8449V16.2736C83.7596 16.5294 83.5369 16.7369 83.2593 16.7369H82.7967C82.5225 16.7369 82.2964 16.5294 82.2964 16.2736Z" fill="white"/>
<path d="M82.7386 7.0564H81.7722C81.1246 7.0564 80.6003 7.54389 80.6003 8.142V9.2449" stroke="white" stroke-miterlimit="10"/>
<path d="M90.5137 7.0564H91.4869C92.1311 7.0564 92.6519 7.54043 92.6519 8.13854V9.2449" stroke="white" stroke-miterlimit="10"/>
<path d="M82.7386 18.5832H81.7722C81.1246 18.5832 80.6003 18.0957 80.6003 17.4975V16.3947" stroke="white" stroke-miterlimit="10"/>
<path d="M90.5137 18.5832H91.4869C92.1311 18.5832 92.6519 18.0991 92.6519 17.501V16.3947" stroke="white" stroke-miterlimit="10"/>
</g>
<defs>
<clipPath id="clip0_1031_4844">
<rect width="280" height="240" fill="white"/>
</clipPath>
</defs>
</svg>
