<svg width="268" height="241" viewBox="0 0 268 241" fill="none" xmlns="http://www.w3.org/2000/svg">
<g clip-path="url(#clip0_1031_5039)">
<path d="M142.11 180.75C124.912 182.398 99.7372 205.778 82.3855 204.158C65.0338 202.538 61.2004 197.066 59.5877 181.864C57.9751 166.665 43.8517 163.421 27.3048 160.99C10.7609 158.558 3.49648 132.008 16.0073 113.161C28.5181 94.3142 21.2536 75.668 34.3665 66.9559C47.4824 58.2408 59.385 62.2959 70.0774 61.6879C80.7698 61.08 80.5701 48.5164 80.9725 35.7461C81.3749 22.9789 106.596 10.616 147.756 14.668C188.916 18.7201 204.047 30.0708 204.047 43.446C204.047 56.8212 217.565 68.5761 241.576 78.5072C265.587 88.4383 259.533 141.331 230.279 151.87C201.024 162.409 188.514 171.325 194.365 180.04C200.217 188.755 195.978 196.659 182.865 194.227C169.752 191.795 160.07 179.028 142.11 180.75Z" fill="#E1FAF9"/>
<path d="M182.333 230.328C182.902 230.328 183.362 229.865 183.362 229.294C183.362 228.723 182.902 228.26 182.333 228.26C181.765 228.26 181.304 228.723 181.304 229.294C181.304 229.865 181.765 230.328 182.333 230.328Z" fill="#FFC06E"/>
<path d="M151.494 241C152.062 241 152.523 240.537 152.523 239.966C152.523 239.395 152.062 238.932 151.494 238.932C150.926 238.932 150.465 239.395 150.465 239.966C150.465 240.537 150.926 241 151.494 241Z" fill="#518774"/>
<path d="M104.206 198.001C104.817 197.273 105.137 196.4 105.183 195.517C105.195 195.301 104.993 195.128 104.784 195.177C103.927 195.372 103.122 195.835 102.514 196.563C101.902 197.291 101.583 198.165 101.537 199.047C101.525 199.263 101.727 199.436 101.936 199.387C102.793 199.192 103.598 198.726 104.206 198.001Z" fill="#CDCE9F"/>
<path d="M172.67 209.676C172.412 209.83 172.163 209.997 171.921 210.17C168.308 207.503 163.317 207.108 159.229 209.562C153.782 212.83 152.007 219.913 155.257 225.381C158.51 230.853 165.559 232.637 171.002 229.372C171.26 229.217 171.509 229.051 171.752 228.878C175.364 231.544 180.355 231.939 184.444 229.486C189.89 226.218 191.665 219.135 188.415 213.666C185.162 208.195 178.113 206.408 172.67 209.676Z" fill="#3F4F6B"/>
<path d="M184.146 211.895C189.368 212.194 217.633 223.887 223.407 225.656C224.326 225.937 225.263 226.137 226.215 226.255L239.208 227.875C242.105 228.236 244.795 229.584 246.798 231.717C249.019 234.084 250.8 236.797 250.8 237.198C250.8 237.843 240.188 235.488 238.91 235.352C238.839 235.346 238.772 235.334 238.701 235.315L214.149 228.754C213.557 228.597 213.142 228.054 213.142 227.437C213.142 226.684 212.534 226.072 211.784 226.072L180.153 225.162" fill="#FFC06E"/>
<path d="M247.71 236.062C247.71 236.062 239.819 229.177 232.681 229.177C225.542 229.177 212.39 224.357 206.004 221.604C199.615 218.848 140.504 218.058 140.504 218.058L153.77 236.062H247.71Z" fill="#B1B369"/>
<path d="M68.2188 217.876C69.2386 218.811 70.5195 219.357 71.8464 219.527C72.172 219.567 72.4577 219.308 72.4116 219.008C72.2273 217.792 71.6314 216.62 70.6086 215.685C69.5888 214.75 68.3079 214.203 66.9809 214.034C66.6553 213.993 66.3697 214.253 66.4158 214.552C66.6001 215.768 67.199 216.941 68.2188 217.876Z" fill="#FFC06E"/>
<path d="M76.6228 217.876C75.603 218.811 74.3221 219.357 72.9952 219.527C72.6696 219.567 72.3839 219.308 72.43 219.008C72.6142 217.792 73.2102 216.62 74.233 215.685C75.2528 214.75 76.5337 214.203 77.8607 214.034C78.1863 213.993 78.4719 214.253 78.4258 214.552C78.2415 215.768 77.6426 216.941 76.6228 217.876Z" fill="#FFA35F"/>
<path d="M68.2188 211.704C69.2386 212.639 70.5195 213.185 71.8464 213.355C72.172 213.395 72.4577 213.135 72.4116 212.836C72.2273 211.62 71.6314 210.447 70.6086 209.512C69.5888 208.577 68.3079 208.031 66.9809 207.861C66.6553 207.821 66.3697 208.08 66.4158 208.38C66.6001 209.596 67.199 210.768 68.2188 211.704Z" fill="#FFC06E"/>
<path d="M76.6228 211.704C75.603 212.639 74.3221 213.185 72.9952 213.355C72.6696 213.395 72.3839 213.135 72.43 212.836C72.6142 211.62 73.2102 210.447 74.233 209.512C75.2528 208.577 76.5337 208.031 77.8607 207.861C78.1863 207.821 78.4719 208.08 78.4258 208.38C78.2415 209.596 77.6426 210.768 76.6228 211.704Z" fill="#FFA35F"/>
<path d="M69.6716 203.92C70.3381 204.531 71.1767 204.889 72.046 205C72.2579 205.028 72.4453 204.859 72.4146 204.661C72.2948 203.865 71.9016 203.096 71.2351 202.485C70.5685 201.874 69.73 201.516 68.8607 201.405C68.6457 201.377 68.4614 201.547 68.4921 201.745C68.6119 202.541 69.002 203.306 69.6716 203.92Z" fill="#FFC06E"/>
<path d="M75.1699 203.92C74.5034 204.531 73.6648 204.889 72.7955 205C72.5805 205.028 72.3962 204.859 72.4269 204.661C72.5467 203.865 72.9399 203.096 73.6064 202.485C74.273 201.874 75.1115 201.516 75.9808 201.405C76.1958 201.377 76.3801 201.547 76.3494 201.745C76.2296 202.541 75.8364 203.306 75.1699 203.92Z" fill="#FFA35F"/>
<path d="M72.47 222.977H72.7434C73.0813 222.977 73.3577 222.699 73.3577 222.36V208.192C73.3577 207.852 73.0813 207.574 72.7434 207.574H72.47C72.1322 207.574 71.8557 207.852 71.8557 208.192V222.36C71.8557 222.702 72.1322 222.977 72.47 222.977Z" fill="#D36D69"/>
<path d="M86.0989 208.093C86.3262 208.093 86.5505 208.102 86.7747 208.121C88.0832 205.272 91.1579 203.275 94.7425 203.275C99.5159 203.275 103.386 206.821 103.386 211.194C103.386 215.567 99.5159 219.113 94.7425 219.113C94.5152 219.113 94.291 219.104 94.0668 219.086C92.7583 221.934 89.6835 223.931 86.0989 223.931C81.3256 223.931 77.4553 220.385 77.4553 216.012C77.4553 211.639 81.3256 208.093 86.0989 208.093Z" fill="#3F4F6B"/>
<path d="M220.471 236.062C220.471 236.062 199.611 228.143 192.473 228.143C185.334 228.143 164.06 227.872 159.173 225.804C154.289 223.739 138.372 212.811 135.589 212.811C132.806 212.811 93.9899 209.124 84.2221 212.222C74.4512 215.32 71.8588 224.699 64.3425 225.042C56.8262 225.387 48.0413 236.059 48.0413 236.059H220.471" fill="#518774"/>
<path d="M171.767 236.062H267.006C267.498 236.062 267.946 236.386 267.995 236.834C268.051 237.349 267.611 237.784 267.061 237.784H36.7253C36.1755 237.784 35.7332 237.349 35.7916 236.834C35.8407 236.386 36.2892 236.062 36.7806 236.062H100.526" fill="#3F4F6B"/>
<path d="M225.336 212.061C226.07 212.734 226.992 213.129 227.947 213.25C228.181 213.28 228.386 213.092 228.353 212.876C228.221 212.003 227.791 211.157 227.056 210.484C226.322 209.812 225.401 209.417 224.446 209.296C224.212 209.265 224.006 209.454 224.04 209.67C224.172 210.543 224.602 211.389 225.336 212.061Z" fill="#FFC06E"/>
<path d="M230.629 212.061C229.895 212.734 228.973 213.129 228.018 213.25C227.784 213.28 227.579 213.092 227.613 212.876C227.745 212.003 228.175 211.157 228.909 210.484C229.643 209.812 230.564 209.417 231.52 209.296C231.753 209.265 231.959 209.454 231.925 209.67C231.793 210.543 231.363 211.389 230.629 212.061Z" fill="#FFA35F"/>
<path d="M223.782 221.662C224.802 222.597 226.083 223.144 227.41 223.313C227.735 223.354 228.021 223.094 227.975 222.795C227.791 221.579 227.195 220.406 226.172 219.471C225.152 218.536 223.871 217.99 222.544 217.82C222.219 217.78 221.933 218.039 221.979 218.339C222.163 219.555 222.759 220.727 223.782 221.662Z" fill="#FFC06E"/>
<path d="M232.183 221.662C231.163 222.597 229.882 223.144 228.555 223.313C228.23 223.354 227.944 223.094 227.99 222.795C228.175 221.579 228.77 220.406 229.793 219.471C230.813 218.536 232.094 217.99 233.421 217.82C233.746 217.78 234.032 218.039 233.986 218.339C233.802 219.555 233.206 220.727 232.183 221.662Z" fill="#FFA35F"/>
<path d="M228.033 226.767H228.307C228.645 226.767 228.921 226.489 228.921 226.149V218.089C228.921 217.749 228.645 217.471 228.307 217.471H228.033C227.695 217.471 227.419 217.749 227.419 218.089V226.149C227.419 226.489 227.692 226.767 228.033 226.767Z" fill="#D36D69"/>
<path d="M91.7721 224.702C92.3947 224.702 92.8994 224.239 92.8994 223.668C92.8994 223.097 92.3947 222.635 91.7721 222.635C91.1495 222.635 90.6448 223.097 90.6448 223.668C90.6448 224.239 91.1495 224.702 91.7721 224.702Z" fill="#FFC06E"/>
<path d="M82.0013 227.801C82.6239 227.801 83.1286 227.338 83.1286 226.767C83.1286 226.196 82.6239 225.733 82.0013 225.733C81.3787 225.733 80.874 226.196 80.874 226.767C80.874 227.338 81.3787 227.801 82.0013 227.801Z" fill="#B1B369"/>
<path d="M213.517 232.275C214.139 232.275 214.644 231.813 214.644 231.242C214.644 230.671 214.139 230.208 213.517 230.208C212.894 230.208 212.389 230.671 212.389 231.242C212.389 231.813 212.894 232.275 213.517 232.275Z" fill="#518774"/>
<path d="M246.887 210.287C247.621 210.96 248.543 211.355 249.498 211.475C249.731 211.506 249.937 211.318 249.903 211.102C249.771 210.228 249.341 209.383 248.607 208.71C247.873 208.037 246.951 207.642 245.996 207.522C245.763 207.491 245.557 207.679 245.591 207.895C245.726 208.769 246.153 209.614 246.887 210.287Z" fill="#B1B369"/>
<path d="M51.5276 217.172C50.9224 217.947 50.6491 218.842 50.6767 219.724C50.6828 219.94 50.9194 220.095 51.1436 220.03C52.0651 219.768 52.9006 219.24 53.5057 218.468C54.1108 217.694 54.3842 216.799 54.3565 215.916C54.3504 215.7 54.1139 215.546 53.8896 215.611C52.9712 215.873 52.1327 216.401 51.5276 217.172Z" fill="#FFC06E"/>
<path d="M216.382 202.248C217.117 202.92 218.038 203.316 218.993 203.436C219.227 203.467 219.433 203.278 219.399 203.062C219.267 202.189 218.837 201.343 218.102 200.671C217.368 199.998 216.447 199.603 215.492 199.483C215.258 199.452 215.052 199.64 215.086 199.856C215.218 200.732 215.648 201.575 216.382 202.248Z" fill="#FFC06E"/>
<path d="M116.88 231.149C116.146 230.476 115.224 230.081 114.269 229.961C114.035 229.93 113.829 230.118 113.863 230.334C113.995 231.208 114.425 232.053 115.159 232.726C115.894 233.399 116.815 233.794 117.77 233.914C118.004 233.945 118.21 233.757 118.176 233.541C118.044 232.664 117.614 231.822 116.88 231.149Z" fill="#3F4F6B"/>
<path d="M155.208 227.362C154.474 226.69 153.552 226.295 152.597 226.174C152.363 226.143 152.158 226.332 152.191 226.548C152.323 227.421 152.753 228.267 153.488 228.939C154.222 229.612 155.143 230.007 156.099 230.128C156.332 230.158 156.538 229.97 156.504 229.754C156.369 228.878 155.942 228.035 155.208 227.362Z" fill="#FFC06E"/>
<path d="M199.329 229.773C198.595 230.445 198.165 231.288 198.032 232.164C197.999 232.38 198.204 232.566 198.438 232.538C199.393 232.417 200.315 232.022 201.049 231.35C201.783 230.677 202.213 229.834 202.345 228.958C202.379 228.742 202.173 228.557 201.94 228.584C200.984 228.705 200.063 229.1 199.329 229.773Z" fill="#FFC06E"/>
<path d="M110.094 213.16L108.199 216.509C107.923 216.996 107.453 217.348 106.909 217.465C102.597 218.391 100.176 217.329 100.176 217.329C100.176 217.329 100.109 216.891 100.075 216.376C100.038 215.823 100.035 215.182 100.176 214.854C100.462 214.219 102.99 210.685 103.343 209.907C103.696 209.13 103.838 204.679 103.838 204.679L109.535 204.609L109.465 208.92L109.932 212.046L110.094 213.16Z" fill="#D36D69"/>
<path d="M110.094 213.16L108.199 216.509C107.923 216.996 107.453 217.348 106.909 217.465C102.597 218.391 100.176 217.33 100.176 217.33C100.176 217.33 100.108 216.891 100.075 216.376C101.061 216.536 104.059 216.935 106.605 216.336C107.103 216.219 107.53 215.898 107.8 215.462L109.932 212.043L110.094 213.16Z" fill="#0C1A3C"/>
<path d="M104.575 204.664L104.314 207.871C104.234 208.846 104.965 209.71 105.938 209.756C105.954 209.756 105.969 209.756 105.988 209.759C106.906 209.796 107.686 209.08 107.763 208.161L108.07 204.522L104.575 204.664Z" fill="#0C1A3C"/>
<path d="M134.293 215.891H126.491C124.608 215.645 122.949 215.274 122.949 215.274V215.891H118.621C118.609 215.111 118.6 214.435 118.594 213.861C118.575 211.466 118.621 210.781 118.621 210.781L118.413 205.389L122.418 204.812L124.752 204.476C124.752 204.476 124.752 207.985 125.167 209.111C125.21 209.229 125.256 209.321 125.308 209.38C125.867 210.006 133.11 211.475 133.669 212.105C133.998 212.475 134.158 213.731 134.235 214.694C134.281 215.364 134.293 215.891 134.293 215.891Z" fill="#D36D69"/>
<path d="M125.164 209.114L124.31 209.232C123.634 209.324 123.011 208.861 122.903 208.185C122.698 206.889 122.504 205.504 122.415 204.815L124.749 204.479C124.749 204.479 124.749 207.988 125.164 209.114Z" fill="#0C1A3C"/>
<path d="M134.293 215.891H126.491C124.608 215.645 122.949 215.274 122.949 215.274V215.891H118.621C118.609 215.111 118.6 214.435 118.594 213.861H124.058C124.058 213.861 128.779 214.642 134.232 214.697C134.281 215.364 134.293 215.891 134.293 215.891Z" fill="#0C1A3C"/>
<path d="M123.02 94.9315C123.02 94.9315 123.327 96.1659 119.703 96.956C117.046 97.5362 114.112 93.697 114.112 93.697L116.342 86.4231L117.021 86.6237L122.338 88.1729L122.639 93.2002L123.02 94.9315Z" fill="#FF8B61"/>
<path d="M122.636 93.1971C118.824 92.4225 117.476 88.7068 117.018 86.6206L122.335 88.1698L122.636 93.1971Z" fill="#F9591A"/>
<path d="M118.686 75.2144C112.81 76.6773 113.949 92.0893 121.398 91.2005C126.282 90.6203 126.519 87.7903 127.099 83.6951C128.079 76.7884 124.685 73.7208 118.686 75.2144Z" fill="#FF8B61"/>
<path d="M115.338 85.6455C115.338 85.6455 112.03 84.7999 112.033 77.6247C112.036 71.8567 121.248 68.783 125.692 70.9062C130.14 73.0295 130.423 77.0352 127.216 77.8407C124.009 78.6462 120.655 75.4243 120.655 75.4243C120.655 75.4243 120.074 77.6957 117.156 78.353L117.598 80.791C117.752 81.6459 117.798 82.4513 116.938 82.5285L115.338 85.6455Z" fill="#0C1A3C"/>
<path d="M117.884 80.1953L118.069 82.9389C118.069 82.9389 116.063 83.2105 115.098 81.1551C114.333 79.5287 115.553 78.1215 116.843 78.643C117.46 78.893 117.841 79.5257 117.884 80.1953Z" fill="#FF8B61"/>
<path d="M55.7573 74.1373C55.7573 74.1373 51.2819 76.384 49.0457 80.1305C46.8096 83.8771 42.8318 83.8771 42.8318 83.8771L51.5338 83.6271L48.3024 90.1203C48.3024 90.1203 52.7778 88.8704 54.7651 87.1236C56.7525 85.3738 56.7463 82.8803 60.7272 80.504L55.7573 74.1373Z" fill="#F9591A"/>
<path d="M82.1149 102.088C81.7832 102.403 81.258 102.388 80.9447 102.054L55.7019 75.1527C55.3886 74.8194 55.404 74.2917 55.7357 73.9769C56.0675 73.6621 56.5927 73.6775 56.906 74.0108L82.1487 100.912C82.4621 101.249 82.4467 101.773 82.1149 102.088Z" fill="#FFA35F"/>
<path d="M124.442 84.1055C125.005 84.1055 125.462 83.6467 125.462 83.0809C125.462 82.515 125.005 82.0563 124.442 82.0563C123.879 82.0563 123.422 82.515 123.422 83.0809C123.422 83.6467 123.879 84.1055 124.442 84.1055Z" fill="#FFC06E"/>
<path d="M120.944 84.1055C121.507 84.1055 121.963 83.6467 121.963 83.0809C121.963 82.515 121.507 82.0563 120.944 82.0563C120.38 82.0563 119.924 82.515 119.924 83.0809C119.924 83.6467 120.38 84.1055 120.944 84.1055Z" fill="#FFC06E"/>
<path d="M229.118 0.293003L231.879 0.0152462C232.41 -0.0372176 232.948 0.0461193 233.439 0.259061L240.452 3.16308L247.781 1.73114C249.602 1.25588 251.513 1.2497 253.341 1.70645L254.109 1.90087C254.456 1.98728 254.6 2.4039 254.379 2.68782L253.325 4.04879C252.692 4.86352 251.47 5.14128 250.456 5.31719L241.88 7.47129L236.609 16.6339C236.152 17.4456 235.448 18.0875 234.601 18.464L232.69 19.3189L232.948 8.90634L212.678 13.2145L210.178 16.4457H208.75L209.822 11.4184L206.962 9.6223H209.106L207.678 6.03315L210.178 5.67517L212.58 8.54834L232.235 4.95919L229.118 0.293003Z" fill="#95CECE"/>
<path d="M252.29 1.4873L249.08 2.08601C249.08 2.08601 249.004 2.4656 249.713 2.56744C250.42 2.6662 253.866 1.78974 253.866 1.78974L252.29 1.4873Z" fill="#3F4F6B"/>
<path d="M223.312 9.12546L222.888 9.19336C222.713 9.22114 222.547 9.10078 222.52 8.92487L222.452 8.49899C222.425 8.32308 222.544 8.15643 222.719 8.12865L223.143 8.06075C223.318 8.03297 223.484 8.15333 223.512 8.32924L223.579 8.75512C223.607 8.93103 223.487 9.09768 223.312 9.12546Z" fill="#3F4F6B"/>
<path d="M224.756 8.83223L224.332 8.90013C224.157 8.92791 223.991 8.80755 223.963 8.63164L223.896 8.20576C223.868 8.02985 223.988 7.8632 224.163 7.83542L224.587 7.76754C224.762 7.73976 224.928 7.86012 224.956 8.03603L225.023 8.46191C225.054 8.63782 224.934 8.80445 224.756 8.83223Z" fill="#3F4F6B"/>
<path d="M226.203 8.53903L225.779 8.60692C225.604 8.63469 225.438 8.51434 225.41 8.33843L225.343 7.91254C225.315 7.73664 225.435 7.56998 225.61 7.54221L226.034 7.47432C226.209 7.44655 226.375 7.5669 226.402 7.74281L226.47 8.1687C226.498 8.3446 226.378 8.51126 226.203 8.53903Z" fill="#3F4F6B"/>
<path d="M227.646 8.24594L227.222 8.31383C227.047 8.3416 226.881 8.22125 226.854 8.04534L226.786 7.61945C226.759 7.44355 226.878 7.27689 227.053 7.24912L227.477 7.18123C227.652 7.15346 227.818 7.27381 227.846 7.44972L227.914 7.87561C227.941 8.05151 227.821 8.21817 227.646 8.24594Z" fill="#3F4F6B"/>
<path d="M229.09 7.95273L228.666 8.02061C228.491 8.04839 228.325 7.92803 228.298 7.75212L228.23 7.32624C228.202 7.15033 228.322 6.9837 228.497 6.95592L228.921 6.88802C229.096 6.86024 229.262 6.9806 229.29 7.15651L229.357 7.58239C229.385 7.7583 229.265 7.92495 229.09 7.95273Z" fill="#3F4F6B"/>
<path d="M230.534 7.65952L230.11 7.72742C229.935 7.7552 229.769 7.63484 229.741 7.45893L229.674 7.03305C229.646 6.85714 229.766 6.69049 229.941 6.66271L230.365 6.59481C230.54 6.56703 230.706 6.68739 230.733 6.8633L230.801 7.28918C230.829 7.46509 230.709 7.63174 230.534 7.65952Z" fill="#3F4F6B"/>
<path d="M231.977 7.36628L231.553 7.43419C231.378 7.46196 231.212 7.34161 231.185 7.1657L231.117 6.73981C231.09 6.56391 231.209 6.39725 231.385 6.36948L231.808 6.30159C231.983 6.27382 232.149 6.39417 232.177 6.57008L232.245 6.99597C232.272 7.17188 232.155 7.33851 231.977 7.36628Z" fill="#3F4F6B"/>
<path d="M233.424 7.07321L233 7.1411C232.825 7.16887 232.659 7.04852 232.632 6.87261L232.564 6.44672C232.536 6.27082 232.656 6.10416 232.831 6.07639L233.255 6.0085C233.43 5.98073 233.596 6.10108 233.624 6.27699L233.691 6.70288C233.719 6.87878 233.599 7.04544 233.424 7.07321Z" fill="#3F4F6B"/>
<path d="M234.868 6.78L234.444 6.84789C234.269 6.87566 234.103 6.7553 234.075 6.5794L234.008 6.15351C233.98 5.9776 234.1 5.81095 234.275 5.78317L234.699 5.71529C234.874 5.68751 235.04 5.80787 235.067 5.98378L235.135 6.40966C235.163 6.58557 235.043 6.75222 234.868 6.78Z" fill="#3F4F6B"/>
<path d="M236.311 6.48679L235.888 6.55467C235.713 6.58245 235.547 6.46209 235.519 6.28618L235.451 5.8603C235.424 5.68439 235.544 5.51776 235.719 5.48998L236.143 5.42208C236.318 5.3943 236.484 5.51466 236.511 5.69057L236.579 6.11645C236.606 6.29236 236.487 6.45901 236.311 6.48679Z" fill="#3F4F6B"/>
<path d="M237.755 6.19357L237.331 6.26148C237.156 6.28925 236.99 6.1689 236.963 5.99299L236.895 5.5671C236.867 5.3912 236.987 5.22454 237.162 5.19677L237.586 5.12886C237.761 5.10109 237.927 5.22145 237.955 5.39735L238.022 5.82324C238.05 5.99915 237.93 6.1658 237.755 6.19357Z" fill="#3F4F6B"/>
<path d="M239.199 5.90046L238.775 5.96837C238.6 5.99614 238.434 5.87579 238.406 5.69988L238.339 5.27399C238.311 5.09809 238.431 4.93143 238.606 4.90366L239.03 4.83577C239.205 4.808 239.371 4.92835 239.398 5.10426L239.466 5.53015C239.494 5.70605 239.374 5.87269 239.199 5.90046Z" fill="#3F4F6B"/>
<path d="M240.646 5.60727L240.222 5.67516C240.047 5.70293 239.881 5.58257 239.853 5.40667L239.785 4.98078C239.758 4.80487 239.878 4.63822 240.053 4.61045L240.477 4.54256C240.652 4.51479 240.818 4.63514 240.845 4.81105L240.913 5.23693C240.94 5.41284 240.821 5.5795 240.646 5.60727Z" fill="#3F4F6B"/>
<path d="M242.089 5.31406L241.665 5.38194C241.49 5.40972 241.324 5.28936 241.297 5.11345L241.229 4.68757C241.201 4.51166 241.321 4.34501 241.496 4.31723L241.92 4.24935C242.095 4.22157 242.261 4.34193 242.289 4.51784L242.356 4.94372C242.384 5.11963 242.264 5.28628 242.089 5.31406Z" fill="#3F4F6B"/>
<path d="M243.533 5.02084L243.109 5.08873C242.934 5.1165 242.768 4.99615 242.74 4.82024L242.673 4.39436C242.645 4.21845 242.765 4.05181 242.94 4.02404L243.364 3.95613C243.539 3.92836 243.705 4.04872 243.733 4.22462L243.8 4.65051C243.828 4.82642 243.708 4.99307 243.533 5.02084Z" fill="#3F4F6B"/>
<path d="M25.3666 39.9463L22.6052 39.6686C22.0738 39.6161 21.5363 39.6994 21.0448 39.9124L14.0322 42.8164L6.70326 41.3844C4.88178 40.9092 2.97126 40.903 1.14364 41.3597L0.375727 41.5542C0.0286315 41.6406 -0.115775 42.0572 0.105384 42.3411L1.15901 43.7021C1.79177 44.5168 3.01423 44.7946 4.02787 44.9705L12.6039 47.1246L17.8749 56.2872C18.3325 57.0989 19.0359 57.7408 19.8837 58.1173L21.7943 58.9722L21.5362 48.5596L41.806 52.8678L44.3063 56.099H45.7346L44.6626 51.0717L47.5223 49.2756H45.3783L46.8066 45.6865L44.3063 45.3285L41.9043 48.2016L22.2489 44.6125L25.3666 39.9463Z" fill="#95CECE"/>
<path d="M2.19412 41.1437L5.40397 41.7424C5.40397 41.7424 5.48082 42.122 4.77127 42.2238C4.06479 42.3226 0.618408 41.4461 0.618408 41.4461L2.19412 41.1437Z" fill="#3F4F6B"/>
<path d="M31.1687 48.7818L31.5925 48.8497C31.7676 48.8775 31.9335 48.7572 31.9611 48.5812L32.0288 48.1554C32.0564 47.9795 31.9366 47.8128 31.7615 47.785L31.3377 47.7171C31.1626 47.6893 30.9966 47.8097 30.969 47.9856L30.9014 48.4115C30.8738 48.5874 30.9936 48.7541 31.1687 48.7818Z" fill="#3F4F6B"/>
<path d="M29.7253 48.4886L30.1492 48.5565C30.3243 48.5843 30.4901 48.4639 30.5178 48.288L30.5853 47.8621C30.613 47.6862 30.4932 47.5196 30.3181 47.4918L29.8942 47.4239C29.7191 47.3961 29.5533 47.5165 29.5256 47.6924L29.4581 48.1183C29.4304 48.2942 29.5503 48.4608 29.7253 48.4886Z" fill="#3F4F6B"/>
<path d="M28.2817 48.1955L28.7056 48.2634C28.8807 48.2912 29.0465 48.1708 29.0742 47.9949L29.1417 47.569C29.1694 47.3931 29.0496 47.2265 28.8745 47.1987L28.4506 47.1308C28.2755 47.103 28.1097 47.2234 28.082 47.3993L28.0145 47.8252C27.9868 48.0011 28.1066 48.1678 28.2817 48.1955Z" fill="#3F4F6B"/>
<path d="M26.8378 47.9023L27.2617 47.9702C27.4368 47.998 27.6027 47.8776 27.6303 47.7017L27.6979 47.2758C27.7255 47.0999 27.6057 46.9333 27.4306 46.9055L27.0068 46.8376C26.8317 46.8098 26.6658 46.9302 26.6382 47.1061L26.5706 47.532C26.543 47.7079 26.6627 47.8745 26.8378 47.9023Z" fill="#3F4F6B"/>
<path d="M25.3943 47.6091L25.8181 47.677C25.9932 47.7048 26.1591 47.5844 26.1868 47.4085L26.2544 46.9826C26.282 46.8067 26.1622 46.6401 25.9871 46.6123L25.5632 46.5444C25.3882 46.5166 25.2223 46.637 25.1947 46.8129L25.127 47.2388C25.0994 47.4147 25.2192 47.5813 25.3943 47.6091Z" fill="#3F4F6B"/>
<path d="M23.9475 47.3159L24.3714 47.3838C24.5464 47.4116 24.7124 47.2912 24.74 47.1153L24.8076 46.6894C24.8352 46.5135 24.7154 46.3469 24.5403 46.3191L24.1165 46.2512C23.9414 46.2234 23.7754 46.3438 23.7478 46.5197L23.6802 46.9456C23.6526 47.1215 23.7724 47.2881 23.9475 47.3159Z" fill="#3F4F6B"/>
<path d="M22.5037 47.0228L22.9275 47.0907C23.1026 47.1185 23.2684 46.9981 23.2961 46.8222L23.3637 46.3963C23.3913 46.2204 23.2715 46.0537 23.0965 46.026L22.6725 45.9581C22.4975 45.9303 22.3316 46.0507 22.304 46.2266L22.2364 46.6525C22.2087 46.8284 22.3286 46.995 22.5037 47.0228Z" fill="#3F4F6B"/>
<path d="M21.06 46.7296L21.4839 46.7975C21.659 46.8252 21.8248 46.7049 21.8525 46.529L21.9201 46.1031C21.9477 45.9272 21.8279 45.7605 21.6529 45.7328L21.2289 45.6649C21.0539 45.6371 20.888 45.7575 20.8604 45.9334L20.7928 46.3592C20.7651 46.5352 20.8849 46.6987 21.06 46.7296Z" fill="#3F4F6B"/>
<path d="M19.6164 46.4365L20.0403 46.5044C20.2154 46.5322 20.3812 46.4118 20.4089 46.2359L20.4765 45.81C20.5041 45.6341 20.3843 45.4674 20.2093 45.4397L19.7853 45.3718C19.6102 45.344 19.4444 45.4644 19.4167 45.6403L19.3492 46.0662C19.3215 46.2421 19.4413 46.4056 19.6164 46.4365Z" fill="#3F4F6B"/>
<path d="M18.1728 46.1432L18.5967 46.211C18.7718 46.2388 18.9376 46.1185 18.9653 45.9426L19.0328 45.5167C19.0605 45.3408 18.9407 45.1741 18.7656 45.1464L18.3417 45.0784C18.1666 45.0507 18.0008 45.171 17.9731 45.3469L17.9056 45.7728C17.8779 45.9487 17.9977 46.1123 18.1728 46.1432Z" fill="#3F4F6B"/>
<path d="M16.7291 45.8501L17.153 45.918C17.328 45.9457 17.494 45.8254 17.5216 45.6495L17.5892 45.2236C17.6168 45.0477 17.497 44.881 17.3219 44.8533L16.8981 44.7854C16.723 44.7576 16.557 44.8779 16.5294 45.0538L16.4618 45.4797C16.4311 45.6556 16.5509 45.8192 16.7291 45.8501Z" fill="#3F4F6B"/>
<path d="M15.2825 45.5568L15.7063 45.6247C15.8814 45.6525 16.0473 45.5322 16.0749 45.3563L16.1425 44.9304C16.1701 44.7545 16.0504 44.5878 15.8753 44.56L15.4513 44.4921C15.2763 44.4644 15.1104 44.5847 15.0828 44.7606L15.0152 45.1865C14.9876 45.3624 15.1074 45.526 15.2825 45.5568Z" fill="#3F4F6B"/>
<path d="M13.8385 45.2636L14.2625 45.3315C14.4376 45.3593 14.6034 45.2389 14.6311 45.063L14.6986 44.6372C14.7263 44.4612 14.6065 44.2946 14.4314 44.2668L14.0075 44.1989C13.8324 44.1712 13.6666 44.2915 13.6389 44.4674L13.5714 44.8933C13.5437 45.0692 13.6635 45.2328 13.8385 45.2636Z" fill="#3F4F6B"/>
<path d="M12.3949 44.9674L12.8189 45.0353C12.9939 45.063 13.1598 44.9427 13.1874 44.7668L13.255 44.3409C13.2827 44.165 13.1629 43.9983 12.9878 43.9706L12.5639 43.9027C12.3888 43.8749 12.223 43.9952 12.1953 44.1712L12.1277 44.597C12.1001 44.776 12.2199 44.9396 12.3949 44.9674Z" fill="#3F4F6B"/>
<path d="M10.9513 44.6742L11.3753 44.7421C11.5503 44.7698 11.7162 44.6495 11.7438 44.4736L11.8114 44.0477C11.8391 43.8718 11.7192 43.7051 11.5441 43.6774L11.1203 43.6095C10.9452 43.5817 10.7794 43.702 10.7517 43.8779L10.6841 44.3038C10.6565 44.4828 10.7763 44.6464 10.9513 44.6742Z" fill="#3F4F6B"/>
<path d="M192.252 124.861L191.041 122.74L174.866 119.228L175.395 126.104C180.082 126.487 186.744 126.57 192.252 124.861Z" fill="#FFA660"/>
<path d="M81.2428 96.7862C81.163 96.8325 81.08 96.8664 81.0002 96.8973C80.4903 97.101 80.0479 97.0485 80.0479 97.0485C80.0479 97.0485 80.0479 98.5113 79.9159 99.0421C79.7838 99.5729 77.0684 100.838 77.0684 100.838C77.0684 100.838 75.4774 101.239 73.49 99.9063C73.49 99.9063 72.7651 93.3205 73.0907 91.9225C73.2566 91.2281 73.9415 90.4844 74.6572 89.8888C75.3821 89.287 76.1347 88.8364 76.4019 88.7346C76.9364 88.5309 77.7934 89.4629 77.7934 89.4629C77.7934 89.4629 78.5244 89.2005 79.1848 89.3981C79.8514 89.5956 80.177 90.9936 80.177 90.9936C80.177 90.9936 80.7114 90.7961 81.0401 91.3269C81.3718 91.8577 81.2428 93.4594 81.2428 93.4594C81.2428 93.4594 81.7711 93.3884 81.7711 94.1877C81.7711 94.9901 81.8387 96.4529 81.2428 96.7862Z" fill="#FF8B61"/>
<path d="M81.2427 96.7862C81.1629 96.8325 81.0799 96.8665 81.0001 96.8973C81.0953 95.9746 81.2212 94.4007 81.0216 94.2001C80.7329 93.91 78.8653 94.0087 78.8653 94.0087L80.6376 93.5273C80.6376 93.5273 80.6837 91.8423 80.2997 91.6047C79.9158 91.3609 77.7656 92.1324 77.7656 92.1324L79.584 91.1263C79.584 91.1263 79.4366 90.0184 78.767 89.8764C78.1158 89.7345 76.2022 90.864 76.0916 90.9288L77.2864 89.8764C77.2864 89.8764 76.9486 89.2993 76.3742 89.2037C76.1008 89.1574 75.3605 89.5123 74.6602 89.898C75.3851 89.2962 76.1377 88.8457 76.4049 88.7438C76.9394 88.5401 77.7964 89.4722 77.7964 89.4722C77.7964 89.4722 78.5273 89.2098 79.1878 89.4073C79.8543 89.6049 80.18 91.0029 80.18 91.0029C80.18 91.0029 80.7144 90.8054 81.043 91.3362C81.3748 91.867 81.2458 93.4687 81.2458 93.4687C81.2458 93.4687 81.7741 93.3977 81.7741 94.197C81.7711 94.9901 81.8386 96.4529 81.2427 96.7862Z" fill="white"/>
<path d="M101.233 104.539C99.5437 103.44 97.3044 103.792 96.0297 105.356C95.6365 106.075 94.7366 105.992 94.0516 106.44C92.3161 107.569 90.5438 109.205 89.567 108.603C89.567 108.603 83.8507 105.356 79.8729 99.1131C79.0313 97.7892 75.1487 98.1132 75.1487 98.1132C73.2136 97.8694 72.6423 102.65 74.7187 104.461L75.3514 105.082L86.3172 116.587C86.5169 116.797 86.7411 116.985 86.9807 117.148C91.2595 120.043 95.1143 118.445 99.8447 114.97C100.557 114.445 101.227 113.862 101.838 113.22L103.408 111.575C105.125 109.776 104.784 106.85 102.701 105.495L101.233 104.539Z" fill="#FF8B61"/>
<path d="M136.947 96.2832L143.237 92.8792C144.064 92.4317 144.721 91.7219 145.108 90.8609L149.627 81.2446L156.154 81.0811L151.082 96.4468C150.652 97.746 149.789 98.857 148.637 99.5884L138.046 102.637L136.947 96.2832Z" fill="#FF8B61"/>
<path d="M159.576 77.4549L157.183 82.2908L154.314 84.3987L149.553 81.4545L151.304 76.8007L152.978 72.3412L155.162 66.5178C155.358 65.9931 155.963 65.7555 156.458 66.0085C156.719 66.1413 156.897 66.3912 156.952 66.669C156.955 66.6844 156.958 66.6937 156.955 66.7091C156.971 66.7924 156.977 66.8912 156.962 66.9807L156.071 73.2948L157.729 75.2638L159.576 77.4549Z" fill="#FF8B61"/>
<path d="M159.576 77.4549L157.183 82.2908L155.094 84.2412L149.553 81.4545L151.304 76.8007C152.882 76.8901 155.042 76.5939 157.729 75.2668L159.576 77.4549Z" fill="#F9591A"/>
<path d="M156.952 66.6751C156.956 66.6905 156.959 66.6998 156.956 66.7152C156.547 66.5424 156.043 66.4406 155.742 66.7584C155.156 67.3757 153.07 72.4708 153.07 72.4708L152.978 72.3443L155.162 66.5208C155.358 65.9962 155.963 65.7585 156.458 66.0116C156.722 66.1474 156.897 66.3974 156.952 66.6751Z" fill="white"/>
<path d="M157.084 78.3406L158.396 74.9089C158.617 74.3318 159.324 74.125 159.818 74.4922L160.405 74.9274C160.798 75.2206 160.899 75.7668 160.635 76.1804L158.737 79.1739C158.461 79.609 157.886 79.7355 157.453 79.4609C157.081 79.2263 156.925 78.7572 157.084 78.3406Z" fill="#FF8B61"/>
<path d="M156.003 77.3192L157.435 73.5757C157.674 72.9462 158.445 72.7209 158.986 73.1221L159.625 73.5973C160.052 73.9152 160.162 74.5139 159.877 74.9645L157.806 78.2327C157.505 78.7079 156.879 78.8468 156.406 78.5444C156 78.2851 155.831 77.7728 156.003 77.3192Z" fill="#FF8B61"/>
<path d="M154.947 76.0538L156.378 72.3103C156.618 71.6808 157.389 71.4555 157.929 71.8567L158.568 72.332C158.995 72.6498 159.106 73.2485 158.82 73.6991L156.75 76.9673C156.449 77.4425 155.822 77.5814 155.349 77.279C154.94 77.0198 154.772 76.5075 154.947 76.0538Z" fill="#FF8B61"/>
<path d="M156.344 73.6405C156.359 73.6899 156.369 73.7393 156.369 73.7917C156.384 74.0633 156.249 74.3164 156.022 74.4583L154.086 75.6959L154.986 77.8499C155.38 78.7881 155.281 79.859 154.725 80.7077L153.395 82.7353L150.05 81.3681L150.161 78.0506C150.164 78.0444 150.167 78.0351 150.167 78.0289L150.25 75.5169C150.274 74.6497 150.904 73.9213 151.755 73.7639L155.49 73.0881C155.886 73.014 156.255 73.2671 156.344 73.6405Z" fill="#FF8B61"/>
<path d="M156.344 73.6405C155.281 73.7732 151.488 74.2793 150.956 74.8503C150.668 75.165 150.388 76.5939 150.167 78.0289L150.25 75.5169C150.275 74.6497 150.904 73.9213 151.755 73.7639L155.49 73.0881C155.886 73.014 156.255 73.2671 156.344 73.6405Z" fill="white"/>
<path d="M184.637 100.138C184.637 100.138 184.441 101.409 184.394 101.733C184.143 103.573 190.544 103.264 190.544 103.264L190.82 99.6409C190.823 99.6409 189.122 100.718 184.637 100.138Z" fill="#56114A"/>
<path d="M131.596 136.893L127.603 206.331H116.852L119.002 159.422L119.617 151.707L119.279 140.22L131.596 136.893Z" fill="#8A705F"/>
<path d="M119.617 140.27V151.707C119.617 151.707 122.725 148.531 122.553 140.519C122.381 132.508 119.617 140.27 119.617 140.27Z" fill="#70432B"/>
<path d="M106.409 135.35L101.187 206.639L112.552 206.948L118.388 158.496L119.617 152.015V136.893L106.409 135.35Z" fill="#A98F78"/>
<path d="M172.768 123.984L172.231 130.264C172.231 130.264 167.663 146.278 170.922 161.237C174.181 176.195 177.299 120.463 177.299 120.463L172.768 123.984Z" fill="#BC4F5C"/>
<path d="M187.641 162.854L203.31 225.526L209.508 224.807L205.933 218.342L196.257 158.154L187.641 162.854Z" fill="#93405C"/>
<path opacity="0.2" d="M204.974 212.389L196.257 158.154L187.641 162.857L200.266 213.345C201.832 213.006 203.402 212.691 204.974 212.389Z" fill="#201829"/>
<path d="M167.937 158.69C167.937 158.69 168.241 160.943 166.511 164.912C164.782 168.881 161.56 171.64 161.71 171.992C161.861 172.343 161.71 174.18 169.254 174.769C176.798 175.362 177.867 173.633 177.637 173.044C177.406 172.454 174.814 168.844 174.175 166.224C173.536 163.604 173.656 159.888 173.656 159.888L167.937 158.69Z" fill="#FF4F5B"/>
<path d="M167.937 158.69C167.937 158.69 168.241 160.943 166.511 164.912C164.782 168.881 161.56 171.64 161.71 171.992C161.861 172.343 161.71 174.18 169.254 174.769C176.798 175.362 177.867 173.633 177.637 173.044C177.406 172.454 174.814 168.844 174.175 166.224C173.536 163.604 173.656 159.888 173.656 159.888L167.937 158.69Z" fill="#FDBA5F"/>
<path d="M170.133 152.861L171.739 153.074L172.458 153.169C173.444 153.299 174.157 154.185 174.077 155.182L174.166 160.218L167.304 159.805L168.035 154.469C168.173 153.444 169.11 152.725 170.133 152.861Z" fill="#FDBA5F"/>
<path d="M173.229 154.638L176.525 155.033L176.589 155.817L182.054 159.07L179.999 161.304C179.999 161.304 177.815 158.996 176.654 158.848C175.493 158.7 175.487 159.369 175.487 159.369L173.552 158.62L173.229 154.638Z" fill="#1A2E35"/>
<path d="M169.586 174.383C173.662 174.677 177.02 174.183 177.084 173.282C177.149 172.381 173.896 171.415 169.82 171.124C165.744 170.831 162.386 171.325 162.322 172.226C162.257 173.127 165.51 174.093 169.586 174.383Z" fill="#1A2E35"/>
<path d="M171.933 151.759L172.001 153.111L170.308 152.886L170.535 151.768L171.933 151.759Z" fill="#375A64"/>
<path d="M174.218 158.879L175.091 154.861L174.151 154.75L174.218 158.879Z" fill="#1A2E35"/>
<path d="M170.308 152.886L172.001 153.111L171.985 152.833L170.336 152.753L170.308 152.886Z" fill="#1A2E35"/>
<path d="M173.653 160.187C173.653 160.187 173.653 161.147 173.653 161.119C173.653 161.088 167.9 160.089 167.9 160.089L167.924 159.845L173.462 160.16" fill="#1A2E35"/>
<path d="M167.623 171.439C167.623 171.439 167.169 173.664 169.967 173.754C172.765 173.843 172.467 171.791 172.467 171.791C170.978 171.455 169.365 171.331 167.623 171.439Z" fill="#FDBA5F"/>
<path d="M164.014 170.588C164.011 170.575 164.186 170.541 164.506 170.486C164.825 170.433 165.286 170.353 165.857 170.273C166.146 170.251 166.462 170.229 166.8 170.208C166.969 170.196 167.144 170.186 167.325 170.174C167.415 170.168 167.507 170.162 167.602 170.155C167.694 170.152 167.789 170.155 167.884 170.159C168.268 170.165 168.668 170.171 169.085 170.18C169.19 170.183 169.294 170.183 169.402 170.186C169.506 170.186 169.614 170.205 169.721 170.214C169.936 170.236 170.151 170.257 170.372 170.279C170.594 170.301 170.809 170.322 171.024 170.344C171.131 170.356 171.239 170.362 171.343 170.381C171.448 170.399 171.552 170.418 171.653 170.436C172.062 170.51 172.458 170.584 172.836 170.655C172.931 170.674 173.023 170.686 173.115 170.711C173.205 170.736 173.294 170.76 173.383 170.782C173.558 170.828 173.727 170.875 173.893 170.921C174.221 171.01 174.525 171.094 174.805 171.171C175.349 171.362 175.785 171.532 176.086 171.646C176.387 171.763 176.553 171.831 176.547 171.844C176.543 171.853 176.371 171.807 176.064 171.708C175.751 171.606 175.309 171.461 174.765 171.282C174.485 171.211 174.181 171.134 173.853 171.053C173.69 171.01 173.521 170.967 173.346 170.924C173.26 170.902 173.171 170.878 173.082 170.856C172.993 170.834 172.897 170.822 172.805 170.807C172.43 170.742 172.037 170.671 171.629 170.6C171.527 170.581 171.423 170.563 171.322 170.544C171.217 170.526 171.113 170.52 171.005 170.507C170.793 170.486 170.578 170.464 170.36 170.442C170.142 170.421 169.927 170.399 169.715 170.378C169.608 170.368 169.503 170.35 169.399 170.35C169.294 170.347 169.19 170.344 169.085 170.344C168.674 170.334 168.275 170.322 167.894 170.313C167.798 170.313 167.706 170.307 167.611 170.307C167.519 170.313 167.427 170.316 167.338 170.322C167.157 170.331 166.984 170.341 166.815 170.35C166.478 170.365 166.164 170.381 165.876 170.396C165.31 170.464 164.85 170.517 164.521 170.557C164.195 170.584 164.017 170.6 164.014 170.588Z" fill="#1A2E35"/>
<path d="M185.439 159.555L183.627 222.169L179.124 219.24L173.914 160.872L185.439 159.555Z" fill="#93405C"/>
<path opacity="0.2" d="M183.894 213L185.439 159.558L173.914 160.585L178.525 212.935C180.312 212.876 182.128 212.969 183.894 213Z" fill="#201829"/>
<path d="M188.984 87.4323C188.984 87.4323 183.353 83.8401 180.404 86.8922C177.456 89.9444 179.6 93.4471 176.918 94.1662C174.237 94.8852 168.966 94.3452 169.233 98.746C169.5 103.147 173.254 100.99 171.825 104.94C170.397 108.89 173.702 112.393 178.171 111.316C182.641 110.239 184.247 111.763 187.733 111.584C191.22 111.405 188.984 87.4323 188.984 87.4323Z" fill="#201829"/>
<path d="M184.904 105.594L183.934 112.001L179.938 113.609L184.858 119.374L193.419 113.609L189.896 112.578L190.421 103.884L184.904 105.594Z" fill="#93405C"/>
<path d="M186.044 91.9226C186.044 91.9226 180.303 92.1294 179.339 98.8725C178.374 105.613 183.28 107.282 186.456 106.733C189.635 106.183 191.739 102.727 192.166 100.721C192.593 98.712 191.253 91.9905 186.044 91.9226Z" fill="#93405C"/>
<path d="M185.187 98.8509C185.187 99.5453 185.427 100.11 185.725 100.11C186.019 100.11 186.262 99.5453 186.262 98.8509C186.262 98.1565 186.022 97.5918 185.725 97.5918C185.427 97.5918 185.187 98.1535 185.187 98.8509Z" fill="#201829"/>
<path d="M181.117 98.2984C181.117 98.9928 181.357 99.5576 181.654 99.5576C181.952 99.5576 182.192 98.9928 182.192 98.2984C182.192 97.6041 181.952 97.0393 181.654 97.0393C181.357 97.0393 181.117 97.6041 181.117 98.2984Z" fill="#201829"/>
<path d="M178.973 218.792L183.977 220.048L184.514 223.82L167.534 224.449C167.534 224.449 168.545 222.653 178.973 218.792Z" fill="#F56D8E"/>
<path d="M167.534 224.449L184.514 223.82L184.692 225.076L167.712 225.255L167.534 224.449Z" fill="#2A2138"/>
<path d="M201.224 217.175L202.474 223.909C202.474 223.909 204.707 230.464 209.087 228.936C213.467 227.409 205.871 217.354 205.871 217.354C205.871 217.354 203.638 219.24 201.224 217.175Z" fill="#F56D8E"/>
<path d="M209.09 227.859C204.885 228.915 202.827 224.07 202.268 222.786L202.477 223.909C202.477 223.909 204.71 230.464 209.09 228.936C210.11 228.581 210.476 227.761 210.442 226.714C210.205 227.06 209.803 227.68 209.09 227.859Z" fill="#2A2138"/>
<path d="M188.271 86.5003C188.271 86.5003 183.295 87.5496 183.117 91.1418C183.117 91.1418 185.144 94.6229 187.915 95.2216C190.685 95.8203 190.615 97.4868 190.418 98.4713C190.237 99.3755 187.485 101.385 190.059 104.224C191.22 105.508 188.391 107.193 189.644 109.501C190.645 111.347 192.98 113.377 198.223 112.464C201.362 111.917 205.07 109.242 206.329 105.054C208.562 97.6134 201.19 100.561 202.219 96.3326C203.202 92.2929 199.737 91.1326 197.126 90.2623C195.029 89.5648 193.72 83.9327 188.271 86.5003Z" fill="#2A2138"/>
<path d="M197.941 147.568C197.941 147.568 199.403 150.67 199.24 158.342C199.148 162.659 199.108 165.48 199.092 167.119C199.08 168.149 198.266 168.989 197.243 169.023C193.978 169.137 187.239 169.316 184.456 168.952L183.482 159.484C183.482 159.484 179.305 155.638 180.58 148.176C181.857 140.714 197.941 147.568 197.941 147.568Z" fill="#A98F78"/>
<path d="M175.358 148.386C175.358 148.701 174.903 147.343 173.407 165.486C173.312 166.637 174.129 167.662 175.265 167.819C177.428 168.119 180.997 168.449 184.358 168.011L183.479 145.939L175.358 148.386Z" fill="#8A705F"/>
<path d="M178.672 113.516C178.672 113.516 169.162 124.012 169.469 127.947C169.654 130.314 173.337 132.187 178.098 133.999L179.047 132.866L178.672 113.516Z" fill="#F9D974"/>
<path d="M198.404 148.426L195.916 142.994C195.406 141.877 195.139 140.664 195.139 139.436V132.582L196.288 126.866L195.609 125.268L192.104 121.068C192.095 120.491 192.129 119.938 192.215 119.426C192.845 115.75 194.847 115.028 195.71 114.889C195.959 114.849 196.113 114.855 196.113 114.855L190.261 112.167L189.45 114.528L184.739 115.507L180.515 113.059L178.727 113.55L174.295 124.999C173.521 126.999 173.893 129.261 175.262 130.903L178.076 134.279C178.076 143.785 175.1 147.738 173.963 148.901C173.717 149.154 173.699 149.549 173.917 149.827C175.382 151.697 177.284 152.759 178.313 153.234C178.718 153.422 179.197 153.253 179.397 152.851L181.492 148.645L183.031 153.024C183.279 153.737 183.964 154.2 184.714 154.166C191.244 153.87 195.956 151.361 197.897 150.133C198.469 149.772 198.687 149.043 198.404 148.426Z" fill="#BECE6C"/>
<path d="M183.768 112.081C183.768 112.081 183.279 114.855 184.904 115.019C186.529 115.182 189.976 111.88 189.976 111.88L193.615 113.535C193.834 113.633 193.883 113.923 193.708 114.087C192.418 115.3 188.068 119.312 186.692 119.589C185.067 119.917 184.741 116.324 184.741 116.324C184.741 116.324 182.791 119.262 181.817 119.426C180.844 119.589 179.851 116.093 180.346 113.106C180.349 113.109 181.98 112.245 183.768 112.081Z" fill="#F9D974"/>
<path d="M196.524 124.635L203.309 130.517L196.334 138.723C196.334 138.723 193.778 136.754 193.096 137.313C191.333 138.754 189.545 144.059 192.927 138.939C192.927 138.939 189.386 147.241 194.119 139.365C194.119 139.365 191.736 147.065 195.274 140.51C195.274 140.51 193.809 147.062 196.073 141.282C196.073 141.282 196.924 142.723 198.275 141.711C199.627 140.702 210.307 132.477 211.308 130.002C212.309 127.527 201.562 119.698 201.562 119.698L196.524 124.635Z" fill="#BC4F5C"/>
<path d="M207.751 122.049C206.166 120.889 202.732 118.383 200.204 116.577C198.447 115.321 196.859 114.763 195.711 114.889C194.847 115.028 192.845 115.753 192.215 119.426C192.135 119.892 192.104 120.395 192.104 120.92C192.104 120.92 192.104 120.92 192.101 120.923C191.699 121.781 194.795 125.435 195.542 126.299V126.314C195.588 126.363 195.637 126.41 195.683 126.459C195.695 126.471 195.701 126.481 195.701 126.481L195.711 126.573C195.723 126.558 195.729 126.536 195.741 126.518C196.558 127.348 197.523 128.16 198.65 128.848C199.556 129.403 202.775 129.842 202.775 129.842C203.451 130.005 204.167 129.832 204.686 129.372C206.864 127.45 207.877 125.154 208.32 123.811C208.535 123.166 208.304 122.453 207.751 122.049Z" fill="#F9D974"/>
<path d="M181.357 119.796L178.187 119.034C177.619 118.898 177.05 119.272 176.952 119.852L176.553 122.185C176.464 122.713 176.795 123.222 177.315 123.348L183.78 124.904C184.349 125.04 184.917 124.666 185.015 124.086L185.414 121.753C185.503 121.225 185.172 120.716 184.653 120.589L181.357 119.796Z" fill="white" stroke="#93DBE5" stroke-miterlimit="10"/>
<path d="M177.987 122.216C177.87 122.185 177.766 122.132 177.677 122.061C177.588 121.991 177.514 121.904 177.459 121.805C177.403 121.707 177.369 121.599 177.354 121.478C177.339 121.361 177.348 121.241 177.382 121.117C177.416 120.997 177.465 120.889 177.535 120.793C177.606 120.701 177.689 120.623 177.787 120.565C177.885 120.506 177.99 120.469 178.104 120.451C178.217 120.432 178.334 120.441 178.451 120.472C178.561 120.503 178.653 120.543 178.727 120.593C178.801 120.642 178.868 120.713 178.93 120.802C178.939 120.815 178.945 120.827 178.948 120.836C178.951 120.849 178.954 120.858 178.954 120.867C178.954 120.876 178.951 120.889 178.948 120.901C178.942 120.929 178.924 120.95 178.899 120.963C178.875 120.975 178.847 120.981 178.819 120.975C178.792 120.969 178.767 120.954 178.749 120.926C178.709 120.864 178.663 120.815 178.61 120.775C178.561 120.734 178.488 120.701 178.392 120.676C178.306 120.654 178.223 120.648 178.137 120.663C178.051 120.679 177.975 120.707 177.901 120.753C177.827 120.799 177.763 120.858 177.71 120.929C177.658 121 177.618 121.083 177.594 121.173C177.569 121.265 177.56 121.358 177.572 121.447C177.581 121.537 177.609 121.62 177.649 121.694C177.689 121.771 177.744 121.836 177.809 121.892C177.873 121.947 177.95 121.984 178.036 122.009C178.11 122.028 178.183 122.034 178.254 122.028C178.328 122.021 178.399 122.003 178.472 121.972C178.503 121.96 178.531 121.96 178.555 121.969C178.58 121.978 178.598 121.994 178.61 122.018C178.623 122.04 178.626 122.068 178.617 122.102C178.614 122.117 178.607 122.129 178.598 122.142C178.589 122.154 178.577 122.163 178.561 122.173C178.466 122.216 178.371 122.24 178.273 122.247C178.183 122.25 178.085 122.24 177.987 122.216ZM178.626 122.095L178.42 121.994L178.524 121.605L178.226 121.525C178.196 121.515 178.171 121.5 178.153 121.475C178.137 121.45 178.131 121.423 178.14 121.395C178.15 121.367 178.165 121.346 178.193 121.33C178.22 121.318 178.248 121.315 178.282 121.324L178.687 121.432C178.721 121.441 178.746 121.46 178.758 121.484C178.773 121.512 178.776 121.54 178.767 121.574L178.626 122.095Z" fill="#3F4F6B"/>
<path d="M179.618 122.669C179.48 122.632 179.363 122.574 179.271 122.494C179.179 122.413 179.114 122.318 179.077 122.213C179.04 122.105 179.04 121.994 179.071 121.876L179.344 120.858C179.354 120.824 179.372 120.799 179.4 120.784C179.427 120.768 179.458 120.765 179.489 120.775C179.523 120.784 179.547 120.802 179.563 120.827C179.578 120.855 179.581 120.883 179.572 120.917L179.298 121.935C179.277 122.012 179.28 122.089 179.305 122.16C179.329 122.231 179.375 122.293 179.437 122.349C179.501 122.401 179.578 122.441 179.673 122.469C179.765 122.494 179.848 122.497 179.928 122.484C180.008 122.469 180.076 122.438 180.131 122.389C180.186 122.339 180.226 122.274 180.248 122.197L180.521 121.179C180.53 121.145 180.549 121.12 180.576 121.105C180.604 121.089 180.635 121.086 180.665 121.096C180.699 121.105 180.724 121.123 180.736 121.148C180.751 121.176 180.754 121.204 180.745 121.238L180.472 122.256C180.441 122.373 180.383 122.469 180.3 122.546C180.217 122.623 180.116 122.673 179.999 122.694C179.879 122.713 179.753 122.707 179.618 122.669Z" fill="#3F4F6B"/>
<path d="M180.865 122.969C180.834 122.96 180.81 122.941 180.794 122.913C180.779 122.886 180.776 122.855 180.782 122.824L181.175 121.349C181.184 121.315 181.203 121.29 181.231 121.275C181.258 121.259 181.289 121.256 181.32 121.265C181.353 121.275 181.378 121.293 181.393 121.318C181.409 121.346 181.412 121.373 181.402 121.407L181.009 122.882C181 122.913 180.985 122.938 180.957 122.953C180.926 122.972 180.896 122.975 180.865 122.969Z" fill="#3F4F6B"/>
<path d="M181.522 123.145C181.491 123.135 181.467 123.117 181.452 123.089C181.436 123.061 181.433 123.03 181.439 123L181.832 121.524C181.842 121.491 181.86 121.466 181.888 121.45C181.915 121.435 181.946 121.432 181.977 121.441L182.37 121.546C182.493 121.58 182.6 121.629 182.692 121.7C182.785 121.771 182.855 121.852 182.911 121.947C182.966 122.043 183 122.148 183.012 122.262C183.024 122.376 183.015 122.497 182.981 122.62C182.947 122.743 182.898 122.855 182.828 122.947C182.76 123.04 182.677 123.114 182.582 123.169C182.487 123.225 182.382 123.262 182.269 123.274C182.155 123.287 182.038 123.277 181.912 123.243L181.522 123.145ZM181.688 122.975L181.968 123.049C182.087 123.083 182.204 123.083 182.312 123.052C182.419 123.021 182.514 122.963 182.594 122.879C182.674 122.796 182.729 122.691 182.763 122.564C182.797 122.438 182.8 122.318 182.772 122.206C182.745 122.095 182.692 122 182.613 121.919C182.533 121.839 182.434 121.784 182.312 121.75L182.032 121.676L181.688 122.975Z" fill="#3F4F6B"/>
<path d="M183.221 123.604C183.19 123.595 183.166 123.577 183.15 123.549C183.135 123.521 183.132 123.49 183.138 123.459L183.531 121.984C183.54 121.95 183.559 121.926 183.586 121.91C183.614 121.895 183.645 121.892 183.676 121.901L184.655 122.166C184.689 122.176 184.714 122.191 184.729 122.219C184.744 122.244 184.748 122.271 184.738 122.305C184.729 122.336 184.714 122.358 184.689 122.37C184.665 122.382 184.634 122.385 184.6 122.376L183.734 122.142L183.593 122.672L184.216 122.839C184.25 122.848 184.274 122.864 184.29 122.892C184.305 122.916 184.308 122.944 184.299 122.975C184.29 123.006 184.274 123.027 184.25 123.043C184.225 123.058 184.195 123.058 184.161 123.052L183.537 122.885L183.393 123.429L184.259 123.663C184.293 123.672 184.317 123.688 184.333 123.712C184.348 123.737 184.351 123.765 184.342 123.796C184.333 123.827 184.317 123.851 184.29 123.864C184.265 123.879 184.235 123.879 184.201 123.873L183.221 123.604Z" fill="#3F4F6B"/>
<path d="M193.02 113.198C192.138 113.868 191.223 114.491 190.295 115.096C189.364 115.695 188.421 116.278 187.457 116.818C186.489 117.358 185.5 117.852 184.523 118.367L181.578 119.892L181.495 119.935L181.458 119.846C181.228 119.266 181.089 118.664 181 118.053C180.911 117.445 180.862 116.828 180.871 116.21C180.89 115.596 180.942 114.979 181.052 114.374C181.092 114.069 181.178 113.772 181.243 113.473C181.317 113.177 181.418 112.887 181.504 112.593L181.535 112.603C181.44 113.204 181.344 113.803 181.289 114.408C181.218 115.01 181.209 115.612 181.2 116.213C181.2 116.815 181.224 117.417 181.289 118.016C181.36 118.611 181.455 119.213 181.621 119.784L181.504 119.738C182.508 119.284 183.51 118.812 184.474 118.278C185.448 117.756 186.388 117.173 187.331 116.599L190.172 114.896L193.004 113.174L193.02 113.198Z" fill="white"/>
<path d="M106.409 114.365C106.409 114.352 105.794 112.204 105.794 112.204C105.77 111.927 105.794 112.204 105.794 111.896C105.794 110.853 105.797 111.893 105.794 111.896C104.704 112.562 101.81 112.785 101.81 112.785C100.996 112.979 100.136 112.772 99.5098 112.22C96.7361 109.773 95.529 106.816 95.0529 105.255C94.8594 104.622 95.0897 103.937 95.6242 103.545C97.4303 102.224 101.359 98.3602 104.91 96.8109C106.412 96.1567 107.948 95.2309 109.081 94.8389C109.13 94.8235 109.179 94.8173 109.222 94.7865C109.447 94.6352 110.138 94.4748 110.337 94.3945L114.478 92.7126C114.613 92.6571 114.767 92.6817 114.877 92.7743C115.691 93.4471 118.532 96.9251 120.237 96.7739C121.696 96.6443 122.584 94.4532 122.667 93.7619C122.691 93.5489 122.882 93.3946 123.094 93.4131C124.762 93.5705 125.858 93.7989 126.159 93.9069C126.19 93.9193 126.224 93.9285 126.258 93.9316L130.3 94.2989C130.349 94.3019 130.395 94.2896 130.444 94.2865C135.589 93.9964 138.987 92.1139 141.425 93.3792C143.576 94.4964 144.512 96.5147 144.497 101.403C144.491 102.949 142.341 104.313 140.811 104.489L132.702 106.628L132.72 106.674C132.21 109.112 132.211 110.655 131.685 112.988C131.682 112.994 131.682 113.004 131.682 113.01L131.596 120.537C131.59 120.571 131.593 121.734 131.596 121.771C132.21 132.881 131.596 137.819 131.261 139.504C131.24 139.609 131.252 139.72 131.191 139.807C129.646 141.948 129.041 142.13 127.806 142.464C124.455 143.371 121.208 143.454 120.965 143.461C120.956 143.461 120.947 143.461 120.935 143.461C113.95 143.14 108.909 140.458 106.833 139.143C106.234 138.763 106.098 138.436 106.098 138.128C106.098 138.097 106.292 137.301 106.295 137.27L106.716 125.783L106.409 114.365Z" fill="#F9D974"/>
<path d="M119.009 104.563L115.522 104.693C114.896 104.717 114.419 105.267 114.481 105.893L114.736 108.415C114.794 108.986 115.283 109.415 115.857 109.393L122.971 109.131C123.598 109.106 124.074 108.557 124.012 107.93L123.757 105.409C123.699 104.838 123.211 104.409 122.636 104.43L119.009 104.563Z" fill="white" stroke="#93DBE5" stroke-miterlimit="10"/>
<path d="M116.229 108.029C116.1 108.029 115.977 108.007 115.863 107.958C115.749 107.908 115.651 107.844 115.565 107.754C115.479 107.668 115.415 107.566 115.365 107.449C115.316 107.331 115.292 107.205 115.292 107.069C115.292 106.933 115.313 106.807 115.359 106.689C115.405 106.572 115.47 106.47 115.553 106.381C115.636 106.291 115.734 106.223 115.845 106.171C115.955 106.119 116.078 106.094 116.21 106.094C116.333 106.094 116.441 106.109 116.53 106.14C116.619 106.171 116.708 106.223 116.8 106.298C116.812 106.307 116.821 106.316 116.831 106.328C116.837 106.338 116.843 106.35 116.846 106.359C116.849 106.369 116.849 106.381 116.849 106.396C116.849 106.427 116.84 106.452 116.818 106.473C116.797 106.495 116.769 106.507 116.738 106.507C116.708 106.51 116.677 106.498 116.649 106.477C116.591 106.424 116.527 106.387 116.465 106.359C116.401 106.331 116.318 106.319 116.213 106.319C116.118 106.319 116.029 106.341 115.946 106.381C115.863 106.421 115.789 106.473 115.728 106.541C115.667 106.609 115.617 106.689 115.584 106.779C115.55 106.868 115.531 106.964 115.534 107.066C115.534 107.168 115.553 107.267 115.59 107.353C115.627 107.439 115.676 107.52 115.74 107.588C115.805 107.655 115.878 107.708 115.961 107.745C116.044 107.782 116.133 107.8 116.229 107.8C116.312 107.8 116.388 107.785 116.459 107.757C116.533 107.73 116.6 107.689 116.668 107.637C116.695 107.615 116.723 107.606 116.754 107.609C116.785 107.612 116.806 107.621 116.824 107.643C116.843 107.662 116.855 107.689 116.855 107.726C116.855 107.742 116.852 107.757 116.846 107.773C116.84 107.788 116.831 107.804 116.815 107.816C116.729 107.887 116.64 107.942 116.539 107.976C116.441 108.01 116.336 108.029 116.229 108.029ZM116.852 107.723L116.613 107.677L116.609 107.245L116.278 107.248C116.244 107.248 116.213 107.239 116.189 107.217C116.164 107.196 116.152 107.171 116.152 107.137C116.152 107.106 116.164 107.078 116.186 107.057C116.21 107.035 116.238 107.026 116.275 107.026L116.723 107.023C116.76 107.023 116.791 107.035 116.812 107.057C116.834 107.078 116.846 107.109 116.846 107.146L116.852 107.723Z" fill="#3F4F6B"/>
<path d="M118.041 108.026C117.887 108.026 117.749 108.001 117.632 107.942C117.512 107.887 117.42 107.807 117.353 107.708C117.285 107.606 117.251 107.492 117.251 107.362L117.239 106.236C117.239 106.199 117.251 106.168 117.273 106.146C117.297 106.122 117.325 106.109 117.362 106.109C117.399 106.109 117.429 106.122 117.451 106.143C117.476 106.165 117.488 106.196 117.488 106.233L117.497 107.359C117.497 107.446 117.522 107.523 117.568 107.591C117.614 107.655 117.678 107.708 117.758 107.745C117.838 107.782 117.933 107.8 118.038 107.8C118.139 107.8 118.228 107.779 118.305 107.742C118.382 107.705 118.443 107.649 118.486 107.584C118.529 107.517 118.551 107.439 118.551 107.353L118.538 106.227C118.538 106.189 118.551 106.159 118.572 106.137C118.597 106.112 118.624 106.1 118.661 106.1C118.698 106.1 118.729 106.112 118.75 106.134C118.772 106.156 118.784 106.186 118.784 106.223L118.793 107.35C118.793 107.479 118.763 107.597 118.698 107.699C118.634 107.8 118.544 107.881 118.431 107.939C118.32 107.995 118.188 108.026 118.041 108.026Z" fill="#3F4F6B"/>
<path d="M119.411 107.976C119.374 107.976 119.346 107.964 119.322 107.939C119.297 107.915 119.285 107.887 119.285 107.85L119.27 106.214C119.27 106.177 119.282 106.146 119.303 106.125C119.328 106.1 119.356 106.088 119.392 106.088C119.429 106.088 119.46 106.1 119.481 106.122C119.506 106.143 119.518 106.174 119.518 106.211L119.534 107.847C119.534 107.881 119.521 107.912 119.5 107.936C119.475 107.961 119.445 107.973 119.411 107.976Z" fill="#3F4F6B"/>
<path d="M120.139 107.967C120.102 107.967 120.074 107.955 120.05 107.93C120.025 107.905 120.013 107.878 120.013 107.841L119.998 106.205C119.998 106.168 120.01 106.137 120.031 106.115C120.056 106.091 120.084 106.078 120.12 106.078L120.557 106.075C120.695 106.075 120.821 106.097 120.934 106.14C121.048 106.183 121.146 106.248 121.229 106.335C121.312 106.418 121.38 106.517 121.426 106.631C121.472 106.745 121.497 106.872 121.497 107.01C121.497 107.149 121.478 107.276 121.432 107.39C121.389 107.504 121.325 107.606 121.242 107.692C121.159 107.779 121.06 107.844 120.95 107.89C120.839 107.936 120.713 107.961 120.575 107.961L120.139 107.967ZM120.262 107.745L120.572 107.742C120.707 107.742 120.824 107.708 120.928 107.646C121.033 107.584 121.113 107.498 121.171 107.387C121.229 107.279 121.257 107.152 121.257 107.013C121.257 106.872 121.226 106.748 121.165 106.64C121.103 106.532 121.023 106.449 120.919 106.39C120.815 106.328 120.695 106.301 120.563 106.301L120.253 106.304L120.262 107.745Z" fill="#3F4F6B"/>
<path d="M122.022 107.949C121.985 107.949 121.957 107.936 121.933 107.912C121.908 107.887 121.896 107.859 121.896 107.822L121.88 106.186C121.88 106.149 121.893 106.119 121.914 106.097C121.939 106.072 121.966 106.06 122.003 106.06L123.091 106.051C123.127 106.051 123.158 106.06 123.18 106.082C123.201 106.103 123.213 106.131 123.213 106.168C123.213 106.202 123.204 106.23 123.18 106.251C123.158 106.273 123.127 106.282 123.091 106.282L122.129 106.291L122.135 106.878L122.826 106.872C122.863 106.872 122.894 106.881 122.915 106.902C122.937 106.924 122.949 106.952 122.949 106.986C122.949 107.02 122.94 107.047 122.915 107.069C122.894 107.091 122.863 107.103 122.826 107.103L122.135 107.109L122.141 107.714L123.103 107.705C123.14 107.705 123.17 107.714 123.192 107.736C123.213 107.757 123.226 107.785 123.226 107.819C123.226 107.853 123.216 107.884 123.192 107.905C123.17 107.927 123.14 107.939 123.103 107.939L122.022 107.949Z" fill="#3F4F6B"/>
<path d="M124.7 93.5334C124.814 94.6568 124.752 95.7925 124.58 96.9096C124.488 97.4682 124.369 98.0206 124.215 98.5669C124.061 99.1131 123.853 99.6408 123.622 100.159C123.14 101.187 122.492 102.131 121.715 102.943C120.941 103.764 120.019 104.434 119.015 104.949L118.962 104.977L118.916 104.934C118.121 104.171 117.377 103.363 116.671 102.517C115.965 101.675 115.295 100.798 114.69 99.8754C114.075 98.9588 113.532 97.996 113.071 96.993C112.613 95.99 112.254 94.9345 112.073 93.8482L112.104 93.8421C112.663 95.9684 113.753 97.8879 114.954 99.6995C115.568 100.601 116.213 101.48 116.895 102.332C117.58 103.181 118.29 104.017 119.036 104.81L118.938 104.795C119.942 104.335 120.888 103.705 121.635 102.875C121.828 102.674 121.997 102.452 122.172 102.236C122.332 102.008 122.495 101.783 122.633 101.542C122.922 101.067 123.177 100.573 123.386 100.057C123.822 99.036 124.138 97.9651 124.341 96.8695C124.547 95.774 124.66 94.6599 124.663 93.5365L124.7 93.5334Z" fill="white"/>
<path d="M113.781 92.9532C113.781 92.9532 112.859 97.0824 117.159 99.2427L117.117 96.2337L119.924 96.7738C119.924 96.7738 117.467 95.5394 114.92 92.765C114.92 92.765 114.527 92.5119 113.781 92.9532Z" fill="#F9591A"/>
<path d="M122.679 93.3947C122.679 93.3947 122.547 96.1567 120.007 96.7739L122.996 96.1567L123.303 98.6256C123.303 98.6256 126.067 93.9964 122.679 93.3947Z" fill="#F9591A"/>
<path d="M129.255 111.538L127.861 111.621C126.807 111.686 125.901 110.877 125.837 109.819L125.582 105.575L130.794 105.258L131.049 109.501C131.111 110.566 130.309 111.476 129.255 111.538Z" fill="#F9591A"/>
</g>
<defs>
<clipPath id="clip0_1031_5039">
<rect width="268" height="241" fill="white"/>
</clipPath>
</defs>
</svg>
