<?xml version="1.0" standalone="no"?>
<!DOCTYPE svg PUBLIC "-//W3C//DTD SVG 20010904//EN"
 "http://www.w3.org/TR/2001/REC-SVG-20010904/DTD/svg10.dtd">
<svg version="1.0" xmlns="http://www.w3.org/2000/svg"
 width="162.000000pt" height="162.000000pt" viewBox="0 0 162.000000 162.000000"
 preserveAspectRatio="xMidYMid meet">
<metadata>
Created by potrace 1.14, written by Peter Selinger 2001-2017
</metadata>
<g transform="translate(0.000000,162.000000) scale(0.100000,-0.100000)"
fill="#000000" stroke="none">
<path d="M718 1090 c-65 -35 -112 -109 -111 -175 1 -74 6 -88 65 -176 34 -52
78 -125 98 -163 19 -38 40 -71 46 -73 6 -2 19 17 28 41 10 25 53 100 97 167
51 79 80 133 81 153 0 17 1 38 2 46 2 69 -56 158 -121 185 -50 21 -140 18
-185 -5z"/>
</g>
</svg>
