<?xml version="1.0" standalone="no"?>
<!DOCTYPE svg PUBLIC "-//W3C//DTD SVG 20010904//EN"
 "http://www.w3.org/TR/2001/REC-SVG-20010904/DTD/svg10.dtd">
<svg version="1.0" xmlns="http://www.w3.org/2000/svg"
 width="1080.000000pt" height="1080.000000pt" viewBox="0 0 1080.000000 1080.000000"
 preserveAspectRatio="xMidYMid meet">
<metadata>
Created by potrace 1.14, written by Peter Selinger 2001-2017
</metadata>
<g transform="translate(0.000000,1080.000000) scale(0.100000,-0.100000)"
fill="#000000" stroke="none">
<path d="M2201 9379 c-199 -42 -354 -124 -495 -264 -161 -159 -249 -324 -290
-540 -13 -70 -15 -461 -15 -3180 0 -2964 1 -3104 18 -3185 38 -178 93 -295
202 -435 130 -166 302 -278 524 -342 l100 -28 3135 0 c2999 0 3139 1 3220 18
292 63 543 255 678 518 38 74 79 185 88 237 3 15 9 52 14 82 7 34 10 1185 10
3150 -1 3345 2 3145 -53 3311 -110 326 -396 584 -727 655 -19 4 -46 10 -60 13
-14 3 -1427 6 -3140 7 -3070 3 -3116 2 -3209 -17z"/>
</g>
</svg>
